SplineFontDB: 3.2
FontName: dashicons
FullName: dashicons
FamilyName: dashicons
Weight: Book
Version: 1.0
ItalicAngle: 0
UnderlinePosition: 5
UnderlineWidth: 0
Ascent: 512
Descent: 0
InvalidEm: 0
sfntRevision: 0x00010000
LayerCount: 2
Layer: 0 1 "Back" 1
Layer: 1 1 "Fore" 0
XUID: [1021 615 1303938715 15534831]
StyleMap: 0x0040
FSType: 8
OS2Version: 1
OS2_WeightWidthSlopeOnly: 0
OS2_UseTypoMetrics: 0
CreationTime: 1553710250
ModificationTime: 1553710250
PfmFamily: 17
TTFWeight: 400
TTFWidth: 5
LineGap: 46
VLineGap: 0
Panose: 2 0 5 3 0 0 0 0 0 0
OS2TypoAscent: 512
OS2TypoAOffset: 0
OS2TypoDescent: 0
OS2TypoDOffset: 0
OS2TypoLinegap: 46
OS2WinAscent: 513
OS2WinAOffset: 0
OS2WinDescent: 1
OS2WinDOffset: 0
HheadAscent: 512
HheadAOffset: 0
HheadDescent: 0
HheadDOffset: 0
OS2SubXSize: 12
OS2SubYSize: 358
OS2SubXOff: 0
OS2SubYOff: 71
OS2SupXSize: 12
OS2SupYSize: 358
OS2SupXOff: 0
OS2SupYOff: 245
OS2StrikeYSize: 25
OS2StrikeYPos: 132
OS2Vendor: 'PfEd'
OS2CodePages: 00000001.00000000
OS2UnicodeRanges: 00000000.00000000.00000000.00000000
DEI: 91125
ShortTable: cvt  2
  17
  324
EndShort
ShortTable: maxp 16
  1
  0
  272
  148
  17
  0
  0
  2
  0
  10
  10
  0
  255
  46
  0
  0
EndShort
LangName: 1033 "" "" "Regular" "dashicons" "" "Version 1.0" "" "" "" "" "Generated by svg2ttf from Fontello project." "http://fontello.com"
GaspTable: 1 65535 2 0
Encoding: Original
UnicodeInterp: none
NameList: AGL For New Fonts
DisplaySize: -48
AntiAlias: 1
FitToEm: 0
WinInfo: 0 18 7
BeginChars: 272 272

StartChar: .notdef
Encoding: 0 -1 0
Width: 512
GlyphClass: 1
Flags: W
LayerCount: 2
Fore
SplineSet
17 0 m 1,0,-1
 17 341 l 1,1,-1
 153 341 l 1,2,-1
 153 0 l 1,3,-1
 17 0 l 1,0,-1
34 17 m 1,4,-1
 136 17 l 1,5,-1
 136 324 l 1,6,-1
 34 324 l 1,7,-1
 34 17 l 1,4,-1
EndSplineSet
EndChar

StartChar: admin-appearance
Encoding: 3 61696 3
Width: 512
GlyphClass: 2
Flags: W
LayerCount: 2
Fore
SplineSet
371 229 m 1,0,-1
 190 410 l 1,1,-1
 228 448 l 2,2,3
 238 459 238 459 266.5 457 c 128,-1,4
 295 455 295 455 318 440 c 0,5,6
 331 432 331 432 348 418 c 0,7,8
 370 399 370 399 392 386 c 0,9,10
 422 370 422 370 442 365 c 0,11,12
 472 358 472 358 506 365 c 1,13,-1
 371 229 l 1,0,-1
353 211 m 1,14,-1
 172 392 l 1,15,-1
 126 346 l 2,16,17
 119 339 119 339 119 328.5 c 128,-1,18
 119 318 119 318 126 310 c 2,19,-1
 153 283 l 2,20,21
 161 276 161 276 161 265 c 128,-1,22
 161 254 161 254 153 247 c 0,23,24
 143 236 143 236 115 216 c 2,25,-1
 97 204 l 2,26,27
 80 191 80 191 71 182 c 0,28,29
 42 153 42 153 31 125 c 0,30,31
 18 93 18 93 35.5 75 c 128,-1,32
 53 57 53 57 86 70 c 0,33,34
 114 81 114 81 143 110 c 0,35,36
 152 119 152 119 165 136 c 2,37,-1
 176 152 l 2,38,39
 196 181 196 181 208 193 c 0,40,41
 215 200 215 200 225.5 200 c 128,-1,42
 236 200 236 200 244 193 c 2,43,-1
 271 165 l 2,44,45
 279 158 279 158 289.5 158 c 128,-1,46
 300 158 300 158 307 165 c 2,47,-1
 353 211 l 1,14,-1
EndSplineSet
EndChar

StartChar: admin-comments
Encoding: 4 61697 4
Width: 512
GlyphClass: 2
Flags: W
LayerCount: 2
Fore
SplineSet
128 461 m 2,0,-1
 358 461 l 2,1,2
 380 461 380 461 395 446 c 128,-1,3
 410 431 410 431 410 410 c 2,4,-1
 410 230 l 2,5,6
 410 209 410 209 395 194 c 128,-1,7
 380 179 380 179 358 179 c 2,8,-1
 307 179 l 1,9,-1
 179 51 l 1,10,-1
 179 179 l 1,11,-1
 128 179 l 2,12,13
 107 179 107 179 92 194 c 128,-1,14
 77 209 77 209 77 230 c 2,15,-1
 77 410 l 2,16,17
 77 431 77 431 92 446 c 128,-1,18
 107 461 107 461 128 461 c 2,0,-1
EndSplineSet
EndChar

StartChar: admin-home
Encoding: 5 61698 5
Width: 512
GlyphClass: 2
Flags: W
LayerCount: 2
Fore
SplineSet
410 294 m 1,0,-1
 449 255 l 1,1,-1
 422 228 l 1,2,-1
 256 394 l 1,3,-1
 90 228 l 1,4,-1
 63 255 l 1,5,-1
 256 448 l 1,6,-1
 358 346 l 1,7,-1
 358 397 l 1,8,-1
 410 397 l 1,9,-1
 410 294 l 1,0,-1
256 357 m 1,10,-1
 410 204 l 1,11,-1
 410 51 l 1,12,-1
 102 51 l 1,13,-1
 102 204 l 1,14,-1
 256 357 l 1,10,-1
307 77 m 1,15,-1
 307 205 l 1,16,-1
 205 205 l 1,17,-1
 205 77 l 1,18,-1
 307 77 l 1,15,-1
EndSplineSet
EndChar

StartChar: admin-links
Encoding: 6 61699 6
Width: 512
GlyphClass: 2
Flags: W
LayerCount: 2
Fore
SplineSet
454 441 m 256,0,1
 475 420 475 420 482.5 391.5 c 128,-1,2
 490 363 490 363 482.5 334.5 c 128,-1,3
 475 306 475 306 454 285 c 2,4,-1
 415 246 l 2,5,6
 394 225 394 225 365.5 218 c 128,-1,7
 337 211 337 211 309 218 c 1,8,-1
 415 324 l 2,9,10
 431 340 431 340 431 363 c 128,-1,11
 431 386 431 386 415 402 c 128,-1,12
 399 418 399 418 376 418 c 128,-1,13
 353 418 353 418 337 402 c 2,14,-1
 231 296 l 1,15,16
 224 324 224 324 231 352.5 c 128,-1,17
 238 381 238 381 259 402 c 2,18,-1
 298 441 l 2,19,20
 319 462 319 462 347.5 469.5 c 128,-1,21
 376 477 376 477 404.5 469.5 c 128,-1,22
 433 462 433 462 454 441 c 256,0,1
220 168 m 2,23,-1
 357 305 l 2,24,25
 365 313 365 313 365 324.5 c 128,-1,26
 365 336 365 336 356.5 344 c 128,-1,27
 348 352 348 352 336.5 351.5 c 128,-1,28
 325 351 325 351 317 344 c 2,29,-1
 181 207 l 2,30,31
 173 199 173 199 173 187.5 c 128,-1,32
 173 176 173 176 181 168 c 128,-1,33
 189 160 189 160 200.5 160.5 c 128,-1,34
 212 161 212 161 220 168 c 2,23,-1
200 110 m 2,35,-1
 306 216 l 1,36,37
 314 188 314 188 307 159.5 c 128,-1,38
 300 131 300 131 279 110 c 2,39,-1
 240 71 l 2,40,41
 218 49 218 49 190 42 c 128,-1,42
 162 35 162 35 133.5 42 c 128,-1,43
 105 49 105 49 83.5 70.5 c 128,-1,44
 62 92 62 92 54.5 120.5 c 128,-1,45
 47 149 47 149 54.5 177.5 c 128,-1,46
 62 206 62 206 83 227 c 2,47,-1
 123 266 l 2,48,49
 144 287 144 287 172 294 c 128,-1,50
 200 301 200 301 229 294 c 1,51,-1
 123 188 l 2,52,53
 106 172 106 172 106 149 c 128,-1,54
 106 126 106 126 122.5 109.5 c 128,-1,55
 139 93 139 93 161.5 93 c 128,-1,56
 184 93 184 93 200 110 c 2,35,-1
EndSplineSet
EndChar

StartChar: admin-media
Encoding: 7 61700 7
Width: 512
GlyphClass: 2
Flags: W
LayerCount: 2
Fore
SplineSet
333 230 m 2,0,-1
 333 410 l 2,1,2
 333 420 333 420 325.5 427.5 c 128,-1,3
 318 435 318 435 307 435 c 2,4,-1
 264 435 l 1,5,-1
 230 486 l 1,6,-1
 128 486 l 1,7,-1
 94 435 l 1,8,-1
 51 435 l 2,9,10
 41 435 41 435 33.5 427.5 c 128,-1,11
 26 420 26 420 26 410 c 2,12,-1
 26 230 l 2,13,14
 26 220 26 220 33.5 212.5 c 128,-1,15
 41 205 41 205 51 205 c 2,16,-1
 307 205 l 2,17,18
 318 205 318 205 325.5 212.5 c 128,-1,19
 333 220 333 220 333 230 c 2,0,-1
179 397 m 0,20,21
 206 397 206 397 224.5 378 c 128,-1,22
 243 359 243 359 243 332.5 c 128,-1,23
 243 306 243 306 224.5 287.5 c 128,-1,24
 206 269 206 269 179.5 269 c 128,-1,25
 153 269 153 269 134 287.5 c 128,-1,26
 115 306 115 306 115 332.5 c 128,-1,27
 115 359 115 359 134 378 c 128,-1,28
 153 397 153 397 179 397 c 0,20,21
358 358 m 1,29,-1
 486 358 l 1,30,-1
 486 90 l 2,31,32
 486 63 486 63 467.5 44.5 c 128,-1,33
 449 26 449 26 422.5 26 c 128,-1,34
 396 26 396 26 377 44.5 c 128,-1,35
 358 63 358 63 358 89.5 c 128,-1,36
 358 116 358 116 377 135 c 128,-1,37
 396 154 396 154 422 154 c 0,38,39
 428 154 428 154 435 152 c 1,40,-1
 435 282 l 1,41,-1
 358 282 l 1,42,-1
 358 358 l 1,29,-1
256 152 m 1,43,-1
 256 179 l 1,44,-1
 307 179 l 1,45,-1
 307 90 l 2,46,47
 307 63 307 63 288.5 44.5 c 128,-1,48
 270 26 270 26 243.5 26 c 128,-1,49
 217 26 217 26 198 44.5 c 128,-1,50
 179 63 179 63 179 89.5 c 128,-1,51
 179 116 179 116 198 135 c 128,-1,52
 217 154 217 154 243 154 c 0,53,54
 249 154 249 154 256 152 c 1,43,-1
EndSplineSet
EndChar

StartChar: admin-page
Encoding: 8 61701 8
Width: 512
GlyphClass: 2
Flags: W
LayerCount: 2
Fore
SplineSet
154 128 m 1,0,-1
 154 461 l 1,1,-1
 410 461 l 1,2,-1
 410 128 l 1,3,-1
 154 128 l 1,0,-1
128 102 m 1,4,-1
 333 102 l 1,5,-1
 333 51 l 1,6,-1
 77 51 l 1,7,-1
 77 384 l 1,8,-1
 128 384 l 1,9,-1
 128 102 l 1,4,-1
EndSplineSet
EndChar

StartChar: admin-plugins
Encoding: 9 61702 9
Width: 512
GlyphClass: 2
Flags: W
LayerCount: 2
Fore
SplineSet
336 400 m 2,0,-1
 253 317 l 1,1,-1
 205 365 l 1,2,-1
 288 448 l 2,3,4
 294 455 294 455 306 452.5 c 128,-1,5
 318 450 318 450 328 440 c 128,-1,6
 338 430 338 430 340 418.5 c 128,-1,7
 342 407 342 407 336 400 c 2,0,-1
131 355 m 2,8,-1
 154 384 l 1,9,-1
 385 153 l 1,10,-1
 354 132 l 2,11,12
 341 119 341 119 310 110 c 0,13,14
 281 102 281 102 257 102 c 2,15,-1
 157 102 l 1,16,-1
 125 70 l 2,17,18
 114 59 114 59 98 59 c 128,-1,19
 82 59 82 59 71 70 c 128,-1,20
 60 81 60 81 60 97 c 128,-1,21
 60 113 60 113 71 124 c 2,22,-1
 103 156 l 1,23,-1
 103 255 l 2,24,25
 103 280 103 280 110 309 c 0,26,27
 119 343 119 343 131 355 c 2,8,-1
317 253 m 1,28,-1
 400 336 l 2,29,30
 406 343 406 343 418 340.5 c 128,-1,31
 430 338 430 338 439.5 328.5 c 128,-1,32
 449 319 449 319 451.5 307 c 128,-1,33
 454 295 454 295 447 289 c 2,34,-1
 364 206 l 1,35,-1
 317 253 l 1,28,-1
EndSplineSet
EndChar

StartChar: admin-tools
Encoding: 10 61703 10
Width: 512
GlyphClass: 2
Flags: W
LayerCount: 2
Fore
SplineSet
427 262 m 0,0,1
 402 237 402 237 367 230 c 128,-1,2
 332 223 332 223 300 237 c 1,3,-1
 162 70 l 2,4,5
 143 51 143 51 116 51 c 128,-1,6
 89 51 89 51 70 70 c 128,-1,7
 51 89 51 89 51 115.5 c 128,-1,8
 51 142 51 142 70 161 c 2,9,-1
 237 300 l 1,10,11
 224 332 224 332 230.5 366.5 c 128,-1,12
 237 401 237 401 262 426 c 128,-1,13
 287 451 287 451 319.5 458 c 128,-1,14
 352 465 352 465 383 454 c 1,15,-1
 309 380 l 1,16,-1
 381 307 l 1,17,-1
 455 381 l 1,18,19
 465 350 465 350 458 318 c 128,-1,20
 451 286 451 286 427 262 c 0,0,1
98 97 m 0,21,22
 105 90 105 90 116 90 c 128,-1,23
 127 90 127 90 134.5 97.5 c 128,-1,24
 142 105 142 105 142 115.5 c 128,-1,25
 142 126 142 126 134.5 133.5 c 128,-1,26
 127 141 127 141 116 141 c 128,-1,27
 105 141 105 141 97.5 133.5 c 128,-1,28
 90 126 90 126 90 115.5 c 128,-1,29
 90 105 90 105 98 97 c 0,21,22
EndSplineSet
EndChar

StartChar: admin-settings
Encoding: 11 61704 11
Width: 512
GlyphClass: 2
Flags: W
LayerCount: 2
Fore
SplineSet
461 102 m 2,0,-1
 461 410 l 2,1,2
 461 420 461 420 453.5 427.5 c 128,-1,3
 446 435 446 435 435 435 c 2,4,-1
 102 435 l 2,5,6
 92 435 92 435 84.5 427.5 c 128,-1,7
 77 420 77 420 77 410 c 2,8,-1
 77 102 l 2,9,10
 77 92 77 92 84.5 84.5 c 128,-1,11
 92 77 92 77 102 77 c 2,12,-1
 435 77 l 2,13,14
 446 77 446 77 453.5 84.5 c 128,-1,15
 461 92 461 92 461 102 c 2,0,-1
205 230 m 1,16,-1
 230 230 l 2,17,18
 241 230 241 230 248.5 222.5 c 128,-1,19
 256 215 256 215 256 204.5 c 128,-1,20
 256 194 256 194 248.5 186.5 c 128,-1,21
 241 179 241 179 230 179 c 2,22,-1
 205 179 l 1,23,-1
 205 141 l 2,24,25
 205 135 205 135 201 131.5 c 128,-1,26
 197 128 197 128 192 128 c 128,-1,27
 187 128 187 128 183 131.5 c 128,-1,28
 179 135 179 135 179 141 c 2,29,-1
 179 179 l 1,30,-1
 154 179 l 2,31,32
 143 179 143 179 135.5 186.5 c 128,-1,33
 128 194 128 194 128 204.5 c 128,-1,34
 128 215 128 215 135.5 222.5 c 128,-1,35
 143 230 143 230 154 230 c 2,36,-1
 179 230 l 1,37,-1
 179 371 l 2,38,39
 179 377 179 377 183 380.5 c 128,-1,40
 187 384 187 384 192 384 c 128,-1,41
 197 384 197 384 201 380.5 c 128,-1,42
 205 377 205 377 205 371 c 2,43,-1
 205 230 l 1,16,-1
333 282 m 1,44,-1
 307 282 l 2,45,46
 297 282 297 282 289.5 289.5 c 128,-1,47
 282 297 282 297 282 307.5 c 128,-1,48
 282 318 282 318 289.5 325.5 c 128,-1,49
 297 333 297 333 307 333 c 2,50,-1
 333 333 l 1,51,-1
 333 371 l 2,52,53
 333 377 333 377 336.5 380.5 c 128,-1,54
 340 384 340 384 345.5 384 c 128,-1,55
 351 384 351 384 354.5 380.5 c 128,-1,56
 358 377 358 377 358 371 c 2,57,-1
 358 333 l 1,58,-1
 384 333 l 2,59,60
 395 333 395 333 402.5 325.5 c 128,-1,61
 410 318 410 318 410 307.5 c 128,-1,62
 410 297 410 297 402.5 289.5 c 128,-1,63
 395 282 395 282 384 282 c 2,64,-1
 358 282 l 1,65,-1
 358 141 l 2,66,67
 358 135 358 135 354.5 131.5 c 128,-1,68
 351 128 351 128 345.5 128 c 128,-1,69
 340 128 340 128 336.5 131.5 c 128,-1,70
 333 135 333 135 333 141 c 2,71,-1
 333 282 l 1,44,-1
EndSplineSet
EndChar

StartChar: admin-post
Encoding: 12 61705 12
Width: 512
GlyphClass: 2
Flags: W
LayerCount: 2
Fore
SplineSet
267 435 m 1,0,-1
 314 481 l 1,1,-1
 477 319 l 1,2,-1
 430 272 l 1,3,4
 409 285 409 285 384.5 283 c 128,-1,5
 360 281 360 281 343 263 c 2,6,-1
 323 244 l 2,7,8
 306 226 306 226 303.5 201.5 c 128,-1,9
 301 177 301 177 314 156 c 1,10,-1
 268 110 l 1,11,-1
 206 172 l 1,12,-1
 134 100 l 2,13,14
 127 93 127 93 107 78 c 0,15,16
 82 60 82 60 64 50 c 0,17,18
 42 37 42 37 37 41.5 c 128,-1,19
 32 46 32 46 45 69 c 0,20,21
 55 87 55 87 73 111 c 0,22,23
 88 132 88 132 95 139 c 2,24,-1
 167 210 l 1,25,-1
 105 272 l 1,26,-1
 152 319 l 1,27,28
 172 306 172 306 196.5 308 c 128,-1,29
 221 310 221 310 239 328 c 2,30,-1
 258 347 l 2,31,32
 276 365 276 365 278.5 389.5 c 128,-1,33
 281 414 281 414 267 435 c 1,0,-1
EndSplineSet
EndChar

StartChar: editor-ltr
Encoding: 13 61708 13
Width: 512
GlyphClass: 2
Flags: W
LayerCount: 2
Fore
SplineSet
333 461 m 2,0,-1
 141 461 l 2,1,2
 109 461 109 461 82.5 445.5 c 128,-1,3
 56 430 56 430 41 403.5 c 128,-1,4
 26 377 26 377 26 345.5 c 128,-1,5
 26 314 26 314 41 287.5 c 128,-1,6
 56 261 56 261 82.5 245.5 c 128,-1,7
 109 230 109 230 141 230 c 2,8,-1
 154 230 l 1,9,-1
 154 77 l 2,10,11
 154 67 154 67 162 59 c 128,-1,12
 170 51 170 51 179.5 51 c 128,-1,13
 189 51 189 51 197 59 c 128,-1,14
 205 67 205 67 205 77 c 2,15,-1
 205 384 l 2,16,17
 205 394 205 394 213 402 c 128,-1,18
 221 410 221 410 230.5 410 c 128,-1,19
 240 410 240 410 248 402 c 128,-1,20
 256 394 256 394 256 384 c 2,21,-1
 256 77 l 2,22,23
 256 67 256 67 264 59 c 128,-1,24
 272 51 272 51 281.5 51 c 128,-1,25
 291 51 291 51 299 59 c 128,-1,26
 307 67 307 67 307 77 c 2,27,-1
 307 410 l 1,28,-1
 333 410 l 2,29,30
 342 410 342 410 350 418 c 128,-1,31
 358 426 358 426 358 435.5 c 128,-1,32
 358 445 358 445 350 453 c 128,-1,33
 342 461 342 461 333 461 c 2,0,-1
358 358 m 1,34,-1
 358 154 l 1,35,-1
 486 256 l 1,36,-1
 358 358 l 1,34,-1
EndSplineSet
EndChar

StartChar: tide
Encoding: 14 61709 14
Width: 512
GlyphClass: 2
Flags: W
LayerCount: 2
Fore
SplineSet
435 328 m 1,0,-1
 435 435 l 1,1,-1
 77 435 l 1,2,-1
 77 253 l 1,3,4
 122 262 122 262 165 281 c 0,5,6
 196 294 196 294 241 320 c 0,7,8
 243 323 243 323 248 326.5 c 128,-1,9
 253 330 253 330 256 333 c 1,10,-1
 256 256 l 1,11,12
 211 230 211 230 177 215 c 0,13,14
 129 195 129 195 77 184 c 1,15,-1
 77 77 l 1,16,-1
 435 77 l 1,17,-1
 435 259 l 1,18,19
 390 250 390 250 348 231 c 0,20,21
 319 218 319 218 276 192 c 0,22,23
 273 191 273 191 266.5 187 c 128,-1,24
 260 183 260 183 256 182 c 1,25,-1
 256 256 l 1,26,27
 307 284 307 284 336 297 c 0,28,29
 384 317 384 317 435 328 c 1,0,-1
EndSplineSet
EndChar

StartChar: admin-users
Encoding: 15 61712 15
Width: 512
GlyphClass: 2
Flags: W
LayerCount: 2
Fore
SplineSet
256 275 m 256,0,1
 236 275 236 275 221 289 c 0,2,3
 208 300 208 300 199 319 c 0,4,5
 193 333 193 333 189 350 c 2,6,-1
 186 363 l 2,7,8
 180 401 180 401 197 429 c 0,9,10
 217 461 217 461 255.5 461 c 128,-1,11
 294 461 294 461 313 429 c 0,12,13
 330 401 330 401 325 363 c 2,14,-1
 322 350 l 2,15,16
 318 333 318 333 312 319 c 0,17,18
 303 300 303 300 291 289 c 0,19,20
 276 275 276 275 256 275 c 256,0,1
256 209 m 1,21,-1
 326 256 l 1,22,23
 355 256 355 256 382 239 c 128,-1,24
 409 222 409 222 425 195 c 128,-1,25
 441 168 441 168 441 140 c 2,26,-1
 441 76 l 1,27,-1
 414 69 l 2,28,29
 379 60 379 60 345 55 c 0,30,31
 297 47 297 47 255.5 47 c 128,-1,32
 214 47 214 47 166 55 c 0,33,34
 132 60 132 60 98 69 c 2,35,-1
 71 76 l 1,36,-1
 71 140 l 2,37,38
 71 169 71 169 86 195.5 c 128,-1,39
 101 222 101 222 127.5 238.5 c 128,-1,40
 154 255 154 255 185 255 c 1,41,-1
 256 209 l 1,21,-1
EndSplineSet
EndChar

StartChar: admin-generic
Encoding: 16 61713 16
Width: 512
GlyphClass: 2
Flags: W
LayerCount: 2
Fore
SplineSet
461 205 m 1,0,-1
 405 205 l 1,1,2
 398 178 398 178 384 155 c 1,3,-1
 424 116 l 1,4,-1
 370 62 l 1,5,-1
 330 102 l 1,6,7
 308 88 308 88 282 81 c 1,8,-1
 282 26 l 1,9,-1
 205 26 l 1,10,-1
 205 81 l 1,11,12
 179 88 179 88 156 102 c 1,13,-1
 116 62 l 1,14,-1
 62 116 l 1,15,-1
 102 156 l 1,16,17
 88 179 88 179 81 205 c 1,18,-1
 26 205 l 1,19,-1
 26 281 l 1,20,-1
 81 281 l 1,21,22
 87 307 87 307 102 330 c 1,23,-1
 62 370 l 1,24,-1
 116 424 l 1,25,-1
 155 384 l 1,26,27
 177 398 177 398 205 405 c 1,28,-1
 205 461 l 1,29,-1
 282 461 l 1,30,-1
 282 405 l 1,31,32
 308 399 308 399 330 385 c 1,33,-1
 370 424 l 1,34,-1
 424 370 l 1,35,-1
 385 330 l 1,36,37
 399 307 399 307 405 281 c 1,38,-1
 461 281 l 1,39,-1
 461 205 l 1,0,-1
243 166 m 256,40,41
 275 166 275 166 297.5 188.5 c 128,-1,42
 320 211 320 211 320 243 c 128,-1,43
 320 275 320 275 297.5 297.5 c 128,-1,44
 275 320 275 320 243 320 c 128,-1,45
 211 320 211 320 188.5 297.5 c 128,-1,46
 166 275 166 275 166 243 c 128,-1,47
 166 211 166 211 188.5 188.5 c 128,-1,48
 211 166 211 166 243 166 c 256,40,41
EndSplineSet
EndChar

StartChar: admin-network
Encoding: 17 61714 17
Width: 512
GlyphClass: 2
Flags: W
LayerCount: 2
Fore
SplineSet
434 446 m 256,0,1
 459 421 459 421 467.5 388 c 128,-1,2
 476 355 476 355 467.5 322.5 c 128,-1,3
 459 290 459 290 434 265 c 0,4,5
 405 236 405 236 366 229.5 c 128,-1,6
 327 223 327 223 291 239 c 1,7,-1
 243 154 l 1,8,-1
 166 146 l 1,9,-1
 128 51 l 1,10,-1
 51 51 l 1,11,-1
 26 102 l 1,12,-1
 229 299 l 1,13,14
 211 336 211 336 217.5 376.5 c 128,-1,15
 224 417 224 417 253 446 c 0,16,17
 277 471 277 471 310 479.5 c 128,-1,18
 343 488 343 488 376 479.5 c 128,-1,19
 409 471 409 471 434 446 c 256,0,1
370 349 m 256,20,21
 384 349 384 349 394 359 c 128,-1,22
 404 369 404 369 404 383 c 128,-1,23
 404 397 404 397 394 407 c 128,-1,24
 384 417 384 417 370 417 c 128,-1,25
 356 417 356 417 346 407 c 128,-1,26
 336 397 336 397 336 383 c 128,-1,27
 336 369 336 369 346 359 c 128,-1,28
 356 349 356 349 370 349 c 256,20,21
EndSplineSet
EndChar

StartChar: update-alt
Encoding: 18 61715 18
Width: 512
GlyphClass: 2
Flags: W
LayerCount: 2
Fore
SplineSet
146 282 m 1,0,1
 154 320 154 320 185 345.5 c 128,-1,2
 216 371 216 371 256 371 c 0,3,4
 284 371 284 371 307 359 c 128,-1,5
 330 347 330 347 346 325 c 1,6,-1
 389 376 l 1,7,8
 366 404 366 404 331 419.5 c 128,-1,9
 296 435 296 435 256 435 c 0,10,11
 212 435 212 435 174 415 c 128,-1,12
 136 395 136 395 111 360 c 128,-1,13
 86 325 86 325 79 282 c 1,14,-1
 26 282 l 1,15,-1
 115 179 l 1,16,-1
 205 282 l 1,17,-1
 146 282 l 1,0,1
397 333 m 1,18,-1
 307 230 l 1,19,-1
 366 230 l 1,20,21
 356 191 356 191 326 166 c 128,-1,22
 296 141 296 141 256 141 c 0,23,24
 228 141 228 141 205 153 c 128,-1,25
 182 165 182 165 166 187 c 1,26,-1
 123 138 l 1,27,28
 146 109 146 109 181 93 c 128,-1,29
 216 77 216 77 256 77 c 0,30,31
 300 77 300 77 338 97 c 128,-1,32
 376 117 376 117 401 152 c 128,-1,33
 426 187 426 187 433 230 c 1,34,-1
 486 230 l 1,35,-1
 397 333 l 1,18,-1
EndSplineSet
EndChar

StartChar: welcome-view-site
Encoding: 19 61717 19
Width: 512
GlyphClass: 2
Flags: W
LayerCount: 2
Fore
SplineSet
461 154 m 2,0,-1
 461 410 l 2,1,2
 461 420 461 420 453.5 427.5 c 128,-1,3
 446 435 446 435 435 435 c 2,4,-1
 77 435 l 2,5,6
 66 435 66 435 58.5 427.5 c 128,-1,7
 51 420 51 420 51 410 c 2,8,-1
 51 154 l 2,9,10
 51 143 51 143 58.5 135.5 c 128,-1,11
 66 128 66 128 77 128 c 2,12,-1
 435 128 l 2,13,14
 446 128 446 128 453.5 135.5 c 128,-1,15
 461 143 461 143 461 154 c 2,0,-1
256 358 m 256,16,17
 299 358 299 358 338.5 338 c 128,-1,18
 378 318 378 318 410 282 c 1,19,20
 378 245 378 245 338.5 225 c 128,-1,21
 299 205 299 205 256 205 c 128,-1,22
 213 205 213 205 173.5 225 c 128,-1,23
 134 245 134 245 102 282 c 1,24,25
 134 318 134 318 173.5 338 c 128,-1,26
 213 358 213 358 256 358 c 256,16,17
307 282 m 0,27,28
 307 303 307 303 292 318 c 128,-1,29
 277 333 277 333 256 333 c 128,-1,30
 235 333 235 333 220 318 c 128,-1,31
 205 303 205 303 205 281.5 c 128,-1,32
 205 260 205 260 220 245 c 128,-1,33
 235 230 235 230 256 230 c 128,-1,34
 277 230 277 230 292 245 c 128,-1,35
 307 260 307 260 307 282 c 0,27,28
358 77 m 1,36,-1
 435 77 l 1,37,-1
 435 51 l 1,38,-1
 77 51 l 1,39,-1
 77 77 l 1,40,-1
 154 77 l 1,41,-1
 154 102 l 1,42,-1
 358 102 l 1,43,-1
 358 77 l 1,36,-1
EndSplineSet
EndChar

StartChar: welcome-widgets-menus
Encoding: 20 61718 20
Width: 512
GlyphClass: 2
Flags: W
LayerCount: 2
Fore
SplineSet
486 102 m 2,0,-1
 486 435 l 2,1,2
 486 446 486 446 478.5 453.5 c 128,-1,3
 471 461 471 461 461 461 c 2,4,-1
 77 461 l 2,5,6
 66 461 66 461 58.5 453.5 c 128,-1,7
 51 446 51 446 51 435 c 2,8,-1
 51 102 l 2,9,10
 51 92 51 92 58.5 84.5 c 128,-1,11
 66 77 66 77 77 77 c 2,12,-1
 461 77 l 2,13,14
 471 77 471 77 478.5 84.5 c 128,-1,15
 486 92 486 92 486 102 c 2,0,-1
102 410 m 1,16,-1
 435 410 l 1,17,-1
 435 307 l 1,18,-1
 102 307 l 1,19,-1
 102 410 l 1,16,-1
128 384 m 1,20,-1
 128 333 l 1,21,-1
 205 333 l 1,22,-1
 205 384 l 1,23,-1
 128 384 l 1,20,-1
230 384 m 1,24,-1
 230 333 l 1,25,-1
 307 333 l 1,26,-1
 307 384 l 1,27,-1
 230 384 l 1,24,-1
333 384 m 1,28,-1
 333 333 l 1,29,-1
 410 333 l 1,30,-1
 410 384 l 1,31,-1
 333 384 l 1,28,-1
115 256 m 0,32,33
 121 256 121 256 124.5 252.5 c 128,-1,34
 128 249 128 249 128 243.5 c 128,-1,35
 128 238 128 238 124.5 234 c 128,-1,36
 121 230 121 230 115.5 230 c 128,-1,37
 110 230 110 230 106 234 c 128,-1,38
 102 238 102 238 102 243.5 c 128,-1,39
 102 249 102 249 106 252.5 c 128,-1,40
 110 256 110 256 115 256 c 0,32,33
154 256 m 1,41,-1
 256 256 l 1,42,-1
 256 230 l 1,43,-1
 154 230 l 1,44,-1
 154 256 l 1,41,-1
307 256 m 1,45,-1
 435 256 l 1,46,-1
 435 128 l 1,47,-1
 307 128 l 1,48,-1
 307 256 l 1,45,-1
115 205 m 0,49,50
 121 205 121 205 124.5 201 c 128,-1,51
 128 197 128 197 128 192 c 128,-1,52
 128 187 128 187 124.5 183 c 128,-1,53
 121 179 121 179 115.5 179 c 128,-1,54
 110 179 110 179 106 183 c 128,-1,55
 102 187 102 187 102 192 c 128,-1,56
 102 197 102 197 106 201 c 128,-1,57
 110 205 110 205 115 205 c 0,49,50
154 205 m 1,58,-1
 256 205 l 1,59,-1
 256 179 l 1,60,-1
 154 179 l 1,61,-1
 154 205 l 1,58,-1
333 205 m 1,62,-1
 333 154 l 1,63,-1
 410 154 l 1,64,-1
 410 205 l 1,65,-1
 333 205 l 1,62,-1
115 154 m 0,66,67
 121 154 121 154 124.5 150 c 128,-1,68
 128 146 128 146 128 140.5 c 128,-1,69
 128 135 128 135 124.5 131.5 c 128,-1,70
 121 128 121 128 115.5 128 c 128,-1,71
 110 128 110 128 106 131.5 c 128,-1,72
 102 135 102 135 102 140.5 c 128,-1,73
 102 146 102 146 106 150 c 128,-1,74
 110 154 110 154 115 154 c 0,66,67
154 154 m 1,75,-1
 256 154 l 1,76,-1
 256 128 l 1,77,-1
 154 128 l 1,78,-1
 154 154 l 1,75,-1
EndSplineSet
EndChar

StartChar: welcome-comments
Encoding: 21 61719 21
Width: 512
GlyphClass: 2
Flags: W
LayerCount: 2
Fore
SplineSet
128 461 m 2,0,-1
 384 461 l 2,1,2
 405 461 405 461 420 446 c 128,-1,3
 435 431 435 431 435 410 c 2,4,-1
 435 205 l 2,5,6
 435 184 435 184 420 169 c 128,-1,7
 405 154 405 154 384 154 c 2,8,-1
 333 154 l 1,9,-1
 205 26 l 1,10,-1
 205 154 l 1,11,-1
 128 154 l 2,12,13
 107 154 107 154 92 169 c 128,-1,14
 77 184 77 184 77 205 c 2,15,-1
 77 410 l 2,16,17
 77 431 77 431 92 446 c 128,-1,18
 107 461 107 461 128 461 c 2,0,-1
346 243 m 1,19,-1
 282 307 l 1,20,-1
 346 371 l 1,21,-1
 320 397 l 1,22,-1
 256 333 l 1,23,-1
 192 397 l 1,24,-1
 166 371 l 1,25,-1
 230 307 l 1,26,-1
 166 243 l 1,27,-1
 192 218 l 1,28,-1
 256 282 l 1,29,-1
 320 218 l 1,30,-1
 346 243 l 1,19,-1
EndSplineSet
EndChar

StartChar: welcome-learn-more
Encoding: 22 61720 22
Width: 512
GlyphClass: 2
Flags: W
LayerCount: 2
Fore
SplineSet
256 256 m 1,0,-1
 65 332 l 1,1,-1
 77 51 l 1,2,-1
 26 51 l 1,3,-1
 38 343 l 1,4,-1
 0 358 l 1,5,-1
 256 461 l 1,6,-1
 512 358 l 1,7,-1
 256 256 l 1,0,-1
256 384 m 256,8,9
 245 384 245 384 237.5 380.5 c 128,-1,10
 230 377 230 377 230 371.5 c 128,-1,11
 230 366 230 366 237.5 362 c 128,-1,12
 245 358 245 358 256 358 c 128,-1,13
 267 358 267 358 274.5 362 c 128,-1,14
 282 366 282 366 282 371.5 c 128,-1,15
 282 377 282 377 274.5 380.5 c 128,-1,16
 267 384 267 384 256 384 c 256,8,9
256 230 m 1,17,-1
 399 287 l 1,18,19
 427 249 427 249 433 203 c 1,20,21
 420 205 420 205 410 205 c 0,22,23
 361 205 361 205 320.5 181 c 128,-1,24
 280 157 280 157 256 118 c 1,25,26
 232 157 232 157 191.5 181 c 128,-1,27
 151 205 151 205 102 205 c 0,28,29
 92 205 92 205 79 203 c 1,30,31
 85 249 85 249 113 287 c 1,32,-1
 256 230 l 1,17,-1
EndSplineSet
EndChar

StartChar: welcome-write-blog
Encoding: 23 61721 23
Width: 512
GlyphClass: 2
Flags: W
LayerCount: 2
Fore
SplineSet
432 481 m 2,0,-1
 468 445 l 2,1,2
 476 438 476 438 476 427.5 c 128,-1,3
 476 417 476 417 468 409 c 2,4,-1
 358 299 l 1,5,-1
 358 51 l 1,6,-1
 77 51 l 1,7,-1
 77 435 l 1,8,-1
 350 435 l 1,9,-1
 396 481 l 2,10,11
 404 489 404 489 414.5 489 c 128,-1,12
 425 489 425 489 432 481 c 2,0,-1
287 264 m 1,13,-1
 425 401 l 1,14,-1
 389 438 l 1,15,-1
 251 300 l 1,16,-1
 233 246 l 1,17,-1
 287 264 l 1,13,-1
EndSplineSet
EndChar

StartChar: admin-site-alt
Encoding: 24 61725 24
Width: 512
GlyphClass: 2
Flags: W
LayerCount: 2
Fore
SplineSet
230 512 m 0,0,1
 168 512 168 512 115 481 c 128,-1,2
 62 450 62 450 31 397 c 128,-1,3
 0 344 0 344 0 281.5 c 128,-1,4
 0 219 0 219 31 166 c 128,-1,5
 62 113 62 113 115 82 c 128,-1,6
 168 51 168 51 230.5 51 c 128,-1,7
 293 51 293 51 346 82 c 128,-1,8
 399 113 399 113 430 166 c 128,-1,9
 461 219 461 219 461 281.5 c 128,-1,10
 461 344 461 344 430 397 c 128,-1,11
 399 450 399 450 346 481 c 128,-1,12
 293 512 293 512 230 512 c 0,0,1
422 346 m 1,13,14
 417 329 417 329 405.5 315 c 128,-1,15
 394 301 394 301 378 294 c 1,16,17
 369 326 369 326 347 351.5 c 128,-1,18
 325 377 325 377 294 390 c 1,19,20
 299 407 299 407 314 418 c 1,21,22
 305 424 305 424 295.5 424 c 128,-1,23
 286 424 286 424 280 416 c 0,24,25
 271 405 271 405 275 388 c 0,26,27
 277 379 277 379 285 366 c 1,28,-1
 285 365 l 1,29,-1
 285 361 l 1,30,31
 263 374 263 374 253 398 c 1,32,33
 216 399 216 399 183 380 c 1,34,35
 179 402 179 402 187 423 c 1,36,37
 201 422 201 422 214 427.5 c 128,-1,38
 227 433 227 433 236 444 c 0,39,40
 250 459 250 459 221 484 c 1,41,-1
 230 484 l 2,42,43
 283 484 283 484 330 458 c 1,44,45
 356 439 356 439 371 410.5 c 128,-1,46
 386 382 386 382 388 349 c 0,47,48
 392 349 392 349 399.5 357 c 128,-1,49
 407 365 407 365 411 373 c 1,50,51
 418 360 418 360 422 346 c 1,13,14
230 81 m 1,52,53
 211 101 211 101 208 123 c 0,54,55
 206 136 206 136 211 161 c 0,56,57
 215 180 215 180 215 189 c 0,58,59
 214 204 214 204 205 215 c 0,60,61
 197 222 197 222 186 225 c 0,62,63
 180 227 180 227 165.5 229 c 128,-1,64
 151 231 151 231 144 234 c 0,65,66
 132 238 132 238 125 247 c 1,67,68
 120 275 120 275 129.5 302 c 128,-1,69
 139 329 139 329 162 347 c 0,70,71
 169 353 169 353 196 358 c 0,72,73
 225 362 225 362 251 359 c 0,74,75
 284 356 284 356 301 342 c 0,76,77
 333 313 333 313 343 271 c 1,78,79
 361 270 361 270 377 279 c 1,80,81
 382 243 382 243 358 199 c 0,82,83
 337 160 337 160 300.5 127 c 128,-1,84
 264 94 264 94 230 81 c 1,52,53
132 458 m 1,85,86
 147 464 147 464 162.5 459.5 c 128,-1,87
 178 455 178 455 187 442 c 1,88,89
 171 427 171 427 149 423 c 1,90,91
 150 434 150 434 154 445 c 1,92,-1
 132 458 l 1,85,86
EndSplineSet
EndChar

StartChar: admin-site-alt2
Encoding: 25 61726 25
Width: 512
GlyphClass: 2
Flags: W
LayerCount: 2
Fore
SplineSet
230 512 m 0,0,1
 168 512 168 512 115 481 c 128,-1,2
 62 450 62 450 31 397 c 128,-1,3
 0 344 0 344 0 281.5 c 128,-1,4
 0 219 0 219 31 166 c 128,-1,5
 62 113 62 113 115 82 c 128,-1,6
 168 51 168 51 230.5 51 c 128,-1,7
 293 51 293 51 346 82 c 128,-1,8
 399 113 399 113 430 166 c 128,-1,9
 461 219 461 219 461 281.5 c 128,-1,10
 461 344 461 344 430 397 c 128,-1,11
 399 450 399 450 346 481 c 128,-1,12
 293 512 293 512 230 512 c 0,0,1
305 196 m 1,13,14
 305 189 305 189 307.5 184.5 c 128,-1,15
 310 180 310 180 314.5 179.5 c 128,-1,16
 319 179 319 179 323 183 c 128,-1,17
 327 187 327 187 329 195 c 1,18,-1
 334 193 l 2,19,20
 348 185 348 185 354 170.5 c 128,-1,21
 360 156 360 156 356 141 c 0,22,23
 353 128 353 128 342.5 119 c 128,-1,24
 332 110 332 110 319 110 c 1,25,26
 314 122 314 122 301 123 c 0,27,28
 293 124 293 124 273 119 c 0,29,30
 243 112 243 112 228 115 c 0,31,32
 216 118 216 118 207 126 c 128,-1,33
 198 134 198 134 194 146 c 1,34,35
 203 147 203 147 218 154 c 0,36,37
 226 158 226 158 245.5 169.5 c 128,-1,38
 265 181 265 181 275 186 c 0,39,40
 292 194 292 194 305 196 c 1,13,14
205 223 m 1,41,42
 222 223 222 223 235.5 235 c 128,-1,43
 249 247 249 247 251 264 c 1,44,45
 260 254 260 254 259.5 240.5 c 128,-1,46
 259 227 259 227 249 217.5 c 128,-1,47
 239 208 239 208 225.5 210 c 128,-1,48
 212 212 212 212 205 223 c 1,41,42
282 243 m 1,49,50
 285 239 285 239 310 237.5 c 128,-1,51
 335 236 335 236 346 233 c 0,52,53
 366 227 366 227 372 215 c 1,54,55
 365 216 365 216 346 215 c 0,56,57
 320 213 320 213 309 217 c 0,58,59
 289 222 289 222 283 243 c 1,60,-1
 282 243 l 1,49,50
249 372 m 2,61,-1
 249 366 l 1,62,63
 236 381 236 381 224.5 385.5 c 128,-1,64
 213 390 213 390 208 380 c 0,65,66
 206 376 206 376 208 371 c 0,67,68
 210 367 210 367 216.5 359.5 c 128,-1,69
 223 352 223 352 225 347 c 0,70,71
 229 339 229 339 227 332.5 c 128,-1,72
 225 326 225 326 220 321 c 0,73,74
 216 319 216 319 207 314.5 c 128,-1,75
 198 310 198 310 193 306 c 0,76,77
 185 300 185 300 179 291 c 0,78,79
 166 269 166 269 173 246 c 0,80,81
 180 219 180 219 211 197 c 1,82,83
 188 199 188 199 170.5 214 c 128,-1,84
 153 229 153 229 146 251 c 0,85,86
 142 263 142 263 140 284 c 0,87,88
 138 298 138 298 136 304 c 0,89,90
 133 312 133 312 126 314 c 0,91,92
 109 319 109 319 93 301 c 128,-1,93
 77 283 77 283 77 261 c 1,94,95
 66 272 66 272 63 287 c 0,96,97
 61 296 61 296 61.5 314.5 c 128,-1,98
 62 333 62 333 60 342 c 0,99,100
 57 357 57 357 46 368 c 1,101,102
 68 414 68 414 107.5 443.5 c 128,-1,103
 147 473 147 473 196 481.5 c 128,-1,104
 245 490 245 490 293 474 c 1,105,106
 272 454 272 454 260.5 427.5 c 128,-1,107
 249 401 249 401 249 372 c 2,61,-1
EndSplineSet
EndChar

StartChar: admin-site-alt3
Encoding: 26 61727 26
Width: 512
GlyphClass: 2
Flags: W
LayerCount: 2
Fore
SplineSet
230 512 m 0,0,1
 168 512 168 512 115 481 c 128,-1,2
 62 450 62 450 31 397 c 128,-1,3
 0 344 0 344 0 281.5 c 128,-1,4
 0 219 0 219 31 166 c 128,-1,5
 62 113 62 113 115 82 c 128,-1,6
 168 51 168 51 230.5 51 c 128,-1,7
 293 51 293 51 346 82 c 128,-1,8
 399 113 399 113 430 166 c 128,-1,9
 461 219 461 219 461 281.5 c 128,-1,10
 461 344 461 344 430 397 c 128,-1,11
 399 450 399 450 346 481 c 128,-1,12
 293 512 293 512 230 512 c 0,0,1
28 264 m 1,13,-1
 93 264 l 1,14,15
 94 229 94 229 102 195 c 1,16,-1
 47 195 l 1,17,18
 32 228 32 228 28 264 c 1,13,-1
248 402 m 1,19,-1
 248 482 l 1,20,21
 286 467 286 467 305 430 c 0,22,23
 313 417 313 417 318 403 c 1,24,-1
 248 402 l 1,19,-1
330 368 m 1,25,26
 339 334 339 334 341 299 c 1,27,-1
 248 299 l 1,28,-1
 248 368 l 1,29,-1
 330 368 l 1,25,26
213 482 m 1,30,-1
 213 402 l 1,31,-1
 142 402 l 1,32,33
 148 417 148 417 156 430 c 0,34,35
 175 467 175 467 213 482 c 1,30,-1
213 368 m 1,36,-1
 213 299 l 1,37,-1
 120 299 l 1,38,39
 122 334 122 334 131 368 c 1,40,-1
 213 368 l 1,36,-1
93 299 m 1,41,-1
 28 299 l 1,42,43
 32 335 32 335 47 368 c 1,44,-1
 102 368 l 1,45,46
 94 334 94 334 93 299 c 1,41,-1
120 264 m 1,47,-1
 213 264 l 1,48,-1
 213 195 l 1,49,-1
 131 195 l 1,50,51
 122 229 122 229 120 264 c 1,47,-1
213 162 m 1,52,-1
 213 83 l 1,53,54
 175 97 175 97 156 134 c 0,55,56
 148 147 148 147 143 162 c 1,57,-1
 213 162 l 1,52,-1
248 83 m 1,58,-1
 248 161 l 1,59,-1
 318 161 l 1,60,61
 313 146 313 146 305 133 c 0,62,63
 286 96 286 96 248 82 c 1,64,-1
 248 83 l 1,58,-1
248 196 m 1,65,-1
 248 265 l 1,66,-1
 340 265 l 1,67,68
 339 230 339 230 330 196 c 1,69,-1
 248 196 l 1,65,-1
368 265 m 1,70,-1
 433 265 l 1,71,72
 430 229 430 229 414 196 c 1,73,-1
 358 196 l 1,74,75
 366 230 366 230 368 264 c 2,76,-1
 368 265 l 1,70,-1
368 300 m 1,77,78
 367 334 367 334 358 368 c 1,79,-1
 414 368 l 1,80,81
 429 335 429 335 432 299 c 1,82,-1
 368 300 l 1,77,78
394 402 m 1,83,-1
 348 402 l 1,84,85
 336 438 336 438 313 467 c 1,86,87
 361 445 361 445 393 402 c 1,88,-1
 394 402 l 1,83,-1
148 467 m 1,89,90
 125 438 125 438 113 402 c 1,91,-1
 68 402 l 1,92,93
 100 445 100 445 148 467 c 1,89,90
68 160 m 1,94,-1
 113 160 l 1,95,96
 125 125 125 125 148 95 c 1,97,98
 99 117 99 117 68 161 c 1,99,-1
 68 160 l 1,94,-1
312 95 m 1,100,101
 335 125 335 125 348 160 c 1,102,-1
 393 160 l 1,103,104
 361 118 361 118 313 96 c 1,105,-1
 312 95 l 1,100,101
EndSplineSet
EndChar

StartChar: wordpress
Encoding: 27 61728 27
Width: 512
GlyphClass: 2
Flags: W
LayerCount: 2
Fore
SplineSet
512 256 m 256,0,1
 512 326 512 326 477.5 384.5 c 128,-1,2
 443 443 443 443 384.5 477.5 c 128,-1,3
 326 512 326 512 256 512 c 128,-1,4
 186 512 186 512 127.5 477.5 c 128,-1,5
 69 443 69 443 34.5 384.5 c 128,-1,6
 0 326 0 326 0 256 c 128,-1,7
 0 186 0 186 34.5 127.5 c 128,-1,8
 69 69 69 69 127.5 34.5 c 128,-1,9
 186 0 186 0 256 0 c 128,-1,10
 326 0 326 0 384.5 34.5 c 128,-1,11
 443 69 443 69 477.5 127.5 c 128,-1,12
 512 186 512 186 512 256 c 256,0,1
256 486 m 256,13,14
 319 486 319 486 371.5 455 c 128,-1,15
 424 424 424 424 455 371.5 c 128,-1,16
 486 319 486 319 486 256 c 128,-1,17
 486 193 486 193 455 140.5 c 128,-1,18
 424 88 424 88 371.5 57 c 128,-1,19
 319 26 319 26 256 26 c 128,-1,20
 193 26 193 26 140.5 57 c 128,-1,21
 88 88 88 88 57 140.5 c 128,-1,22
 26 193 26 193 26 256 c 128,-1,23
 26 319 26 319 57 371.5 c 128,-1,24
 88 424 88 424 140.5 455 c 128,-1,25
 193 486 193 486 256 486 c 256,13,14
205 133 m 1,26,-1
 127 343 l 1,27,-1
 154 345 l 2,28,29
 159 345 159 345 161 351.5 c 128,-1,30
 163 358 163 358 160.5 364 c 128,-1,31
 158 370 158 370 152 370 c 2,32,-1
 133 369 l 2,33,34
 111 368 111 368 98 368 c 2,35,-1
 84 368 l 1,36,37
 113 410 113 410 158 435 c 128,-1,38
 203 460 203 460 256 460 c 0,39,40
 295 460 295 460 331 446 c 128,-1,41
 367 432 367 432 394 407 c 1,42,43
 381 408 381 408 370 399 c 0,44,45
 357 389 357 389 357 370 c 0,46,47
 357 360 357 360 363 348 c 0,48,49
 366 340 366 340 375 325 c 1,50,-1
 378 322 l 1,51,52
 390 300 390 300 390 265 c 0,53,54
 390 244 390 244 374 195 c 0,55,56
 366 171 366 171 358 151 c 1,57,-1
 358 151 l 1,58,-1
 289 343 l 1,59,60
 296 343 296 343 303 345 c 2,61,-1
 308 347 l 2,62,63
 313 347 313 347 314.5 354 c 128,-1,64
 316 361 316 361 314 368 c 128,-1,65
 312 375 312 375 306 375 c 2,66,-1
 287 373 l 2,67,68
 265 372 265 372 252 372 c 128,-1,69
 239 372 239 372 217 373 c 2,70,-1
 198 375 l 2,71,72
 192 375 192 375 190 368 c 128,-1,73
 188 361 188 361 189.5 354 c 128,-1,74
 191 347 191 347 196 347 c 2,75,-1
 218 345 l 1,76,-1
 247 267 l 1,77,-1
 205 133 l 1,26,-1
359 78 m 1,78,-1
 426 256 l 1,79,-1
 430 269 l 2,80,81
 435 286 435 286 437 304 c 0,82,83
 439 329 439 329 436 354 c 1,84,85
 460 310 460 310 460 255 c 128,-1,86
 460 200 460 200 432.5 152.5 c 128,-1,87
 405 105 405 105 359 78 c 1,78,-1
69 339 m 1,88,-1
 166 70 l 1,89,90
 115 96 115 96 83.5 146 c 128,-1,91
 52 196 52 196 52 256 c 0,92,93
 52 302 52 302 69 339 c 1,88,-1
259 223 m 1,94,-1
 318 63 l 1,95,96
 288 52 288 52 256 52 c 0,97,98
 230 52 230 52 203 60 c 1,99,-1
 259 223 l 1,94,-1
EndSplineSet
EndChar

StartChar: text-page
Encoding: 28 61729 28
Width: 512
GlyphClass: 2
Flags: W
LayerCount: 2
Fore
SplineSet
77 486 m 1,0,-1
 77 26 l 1,1,-1
 435 26 l 1,2,-1
 435 486 l 1,3,-1
 77 486 l 1,0,-1
307 154 m 1,4,-1
 154 154 l 1,5,-1
 154 179 l 1,6,-1
 307 179 l 1,7,-1
 307 154 l 1,4,-1
358 230 m 1,8,-1
 154 230 l 1,9,-1
 154 256 l 1,10,-1
 358 256 l 1,11,-1
 358 230 l 1,8,-1
358 307 m 1,12,-1
 154 307 l 1,13,-1
 154 333 l 1,14,-1
 358 333 l 1,15,-1
 358 307 l 1,12,-1
358 384 m 1,16,-1
 154 384 l 1,17,-1
 154 410 l 1,18,-1
 358 410 l 1,19,-1
 358 384 l 1,16,-1
EndSplineSet
EndChar

StartChar: format-quote
Encoding: 29 61730 29
Width: 512
GlyphClass: 2
Flags: W
LayerCount: 2
Fore
SplineSet
219 186 m 0,0,1
 219 219 219 219 200 243 c 0,2,3
 187 259 187 259 163 264 c 0,4,5
 143 269 143 269 124 264 c 1,6,7
 118 301 118 301 144.5 342 c 128,-1,8
 171 383 171 383 212 404 c 1,9,-1
 170 462 l 1,10,11
 127 442 127 442 92 408 c 0,12,13
 54 370 54 370 36 325 c 0,14,15
 15 275 15 275 21.5 221 c 128,-1,16
 28 167 28 167 57.5 134.5 c 128,-1,17
 87 102 87 102 130 102 c 0,18,19
 169 102 169 102 194 124.5 c 128,-1,20
 219 147 219 147 219 186 c 0,0,1
460 186 m 0,21,22
 460 219 460 219 442 243 c 0,23,24
 429 259 429 259 405 264 c 0,25,26
 384 269 384 269 366 264 c 1,27,28
 359 301 359 301 385.5 342 c 128,-1,29
 412 383 412 383 453 404 c 1,30,-1
 412 462 l 1,31,32
 368 442 368 442 334 408 c 0,33,34
 296 370 296 370 277 325 c 0,35,36
 257 275 257 275 263.5 221 c 128,-1,37
 270 167 270 167 299 134.5 c 128,-1,38
 328 102 328 102 371 102 c 0,39,40
 410 102 410 102 435 124.5 c 128,-1,41
 460 147 460 147 460 186 c 0,21,22
EndSplineSet
EndChar

StartChar: format-aside
Encoding: 30 61731 30
Width: 512
GlyphClass: 2
Flags: W
LayerCount: 2
Fore
SplineSet
26 486 m 1,0,-1
 486 486 l 1,1,-1
 486 179 l 1,2,-1
 333 26 l 1,3,-1
 26 26 l 1,4,-1
 26 486 l 1,0,-1
102 410 m 1,5,-1
 102 384 l 1,6,-1
 410 384 l 1,7,-1
 410 410 l 1,8,-1
 102 410 l 1,5,-1
102 307 m 1,9,-1
 102 282 l 1,10,-1
 410 282 l 1,11,-1
 410 307 l 1,12,-1
 102 307 l 1,9,-1
256 179 m 1,13,-1
 256 205 l 1,14,-1
 102 205 l 1,15,-1
 102 179 l 1,16,-1
 256 179 l 1,13,-1
307 77 m 1,17,-1
 435 205 l 1,18,-1
 307 205 l 1,19,-1
 307 77 l 1,17,-1
EndSplineSet
EndChar

StartChar: rest-api
Encoding: 31 61732 31
Width: 512
GlyphClass: 2
Flags: W
LayerCount: 2
Fore
SplineSet
410 179 m 0,0,1
 385 179 385 179 365.5 165 c 128,-1,2
 346 151 346 151 338 128 c 1,3,-1
 230 128 l 1,4,5
 230 153 230 153 218 174 c 1,6,-1
 399 361 l 2,7,8
 403 361 403 361 411 359.5 c 128,-1,9
 419 358 419 358 422 358 c 0,10,11
 449 358 449 358 467.5 377 c 128,-1,12
 486 396 486 396 486 422.5 c 128,-1,13
 486 449 486 449 467.5 467.5 c 128,-1,14
 449 486 449 486 422.5 486 c 128,-1,15
 396 486 396 486 377 467.5 c 128,-1,16
 358 449 358 449 358 422 c 0,17,18
 358 412 358 412 364 397 c 1,19,-1
 184 212 l 1,20,21
 163 230 163 230 128 230 c 1,22,-1
 128 338 l 1,23,24
 151 346 151 346 165 365.5 c 128,-1,25
 179 385 179 385 179 410 c 0,26,27
 179 442 179 442 157 464 c 128,-1,28
 135 486 135 486 102.5 486 c 128,-1,29
 70 486 70 486 48 464 c 128,-1,30
 26 442 26 442 26 410 c 0,31,32
 26 385 26 385 40 365.5 c 128,-1,33
 54 346 54 346 77 338 c 1,34,-1
 77 218 l 1,35,36
 54 204 54 204 40 180.5 c 128,-1,37
 26 157 26 157 26 131 c 0,38,39
 26 88 26 88 56 58 c 128,-1,40
 86 28 86 28 128 28 c 0,41,42
 157 28 157 28 180 42 c 128,-1,43
 203 56 203 56 215 79 c 1,44,-1
 335 79 l 1,45,46
 343 58 343 58 363 43 c 128,-1,47
 383 28 383 28 407 28 c 0,48,49
 438 28 438 28 461 50.5 c 128,-1,50
 484 73 484 73 484 105 c 0,51,52
 486 135 486 135 463.5 157 c 128,-1,53
 441 179 441 179 410 179 c 0,0,1
EndSplineSet
EndChar

StartChar: format-chat
Encoding: 32 61733 32
Width: 512
GlyphClass: 2
Flags: W
LayerCount: 2
Fore
SplineSet
282 358 m 1,0,-1
 261 358 l 2,1,2
 240 358 240 358 222.5 340 c 128,-1,3
 205 322 205 322 205 303 c 2,4,-1
 205 256 l 1,5,-1
 128 179 l 1,6,-1
 128 256 l 1,7,-1
 77 256 l 2,8,9
 56 256 56 256 41 271 c 128,-1,10
 26 286 26 286 26 307 c 2,11,-1
 26 435 l 2,12,13
 26 456 26 456 41 471 c 128,-1,14
 56 486 56 486 77 486 c 2,15,-1
 230 486 l 2,16,17
 252 486 252 486 267 471 c 128,-1,18
 282 456 282 456 282 435 c 2,19,-1
 282 358 l 1,0,-1
282 333 m 2,20,-1
 435 333 l 2,21,22
 456 333 456 333 471 318 c 128,-1,23
 486 303 486 303 486 282 c 2,24,-1
 486 154 l 2,25,26
 486 132 486 132 471 117 c 128,-1,27
 456 102 456 102 435 102 c 2,28,-1
 384 102 l 1,29,-1
 384 26 l 1,30,-1
 307 102 l 1,31,-1
 282 102 l 2,32,33
 260 102 260 102 245 117 c 128,-1,34
 230 132 230 132 230 154 c 2,35,-1
 230 282 l 2,36,37
 230 303 230 303 245 318 c 128,-1,38
 260 333 260 333 282 333 c 2,20,-1
EndSplineSet
EndChar

StartChar: format-video
Encoding: 33 61734 33
Width: 512
GlyphClass: 2
Flags: W
LayerCount: 2
Fore
SplineSet
51 486 m 2,0,-1
 461 486 l 2,1,2
 471 486 471 486 478.5 478.5 c 128,-1,3
 486 471 486 471 486 461 c 2,4,-1
 486 51 l 1,5,-1
 26 52 l 1,6,-1
 26 461 l 2,7,8
 26 471 26 471 33.5 478.5 c 128,-1,9
 41 486 41 486 51 486 c 2,0,-1
154 461 m 1,10,-1
 102 384 l 1,11,-1
 128 384 l 1,12,-1
 179 461 l 1,13,-1
 154 461 l 1,10,-1
256 461 m 1,14,-1
 230 461 l 1,15,-1
 179 384 l 1,16,-1
 205 384 l 1,17,-1
 256 461 l 1,14,-1
333 461 m 1,18,-1
 307 461 l 1,19,-1
 256 384 l 1,20,-1
 282 384 l 1,21,-1
 333 461 l 1,18,-1
410 461 m 1,22,-1
 384 461 l 1,23,-1
 333 384 l 1,24,-1
 358 384 l 1,25,-1
 410 461 l 1,22,-1
435 102 m 1,26,-1
 435 358 l 1,27,-1
 77 358 l 1,28,-1
 77 102 l 1,29,-1
 435 102 l 1,26,-1
205 333 m 1,30,-1
 358 230 l 1,31,-1
 205 128 l 1,32,-1
 205 333 l 1,30,-1
EndSplineSet
EndChar

StartChar: format-audio
Encoding: 34 61735 34
Width: 512
GlyphClass: 2
Flags: W
LayerCount: 2
Fore
SplineSet
179 433 m 2,0,-1
 461 484 l 2,1,2
 471 486 471 486 478.5 478 c 128,-1,3
 486 470 486 470 486 459 c 2,4,-1
 486 141 l 2,5,6
 486 104 486 104 460 77.5 c 128,-1,7
 434 51 434 51 397 51 c 128,-1,8
 360 51 360 51 333.5 77.5 c 128,-1,9
 307 104 307 104 307 141 c 128,-1,10
 307 178 307 178 333.5 204 c 128,-1,11
 360 230 360 230 397 230 c 0,12,13
 416 230 416 230 435 221 c 1,14,-1
 435 382 l 1,15,-1
 205 331 l 1,16,-1
 205 102 l 1,17,18
 200 70 200 70 174.5 48 c 128,-1,19
 149 26 149 26 115 26 c 0,20,21
 78 26 78 26 52 52 c 128,-1,22
 26 78 26 78 26 115 c 128,-1,23
 26 152 26 152 52 178.5 c 128,-1,24
 78 205 78 205 115 205 c 0,25,26
 134 205 134 205 154 196 c 1,27,-1
 154 408 l 2,28,29
 154 418 154 418 161 424.5 c 128,-1,30
 168 431 168 431 179 433 c 2,0,-1
EndSplineSet
EndChar

StartChar: format-image
Encoding: 35 61736 35
Width: 512
GlyphClass: 2
Flags: W
LayerCount: 2
Fore
SplineSet
58 486 m 2,0,-1
 454 486 l 2,1,2
 468 486 468 486 477 477 c 128,-1,3
 486 468 486 468 486 454 c 2,4,-1
 486 58 l 2,5,6
 486 44 486 44 477 35 c 128,-1,7
 468 26 468 26 454 26 c 2,8,-1
 58 26 l 2,9,10
 44 26 44 26 35 35 c 128,-1,11
 26 44 26 44 26 58 c 2,12,-1
 26 454 l 2,13,14
 26 468 26 468 35 477 c 128,-1,15
 44 486 44 486 58 486 c 2,0,-1
435 77 m 1,16,-1
 435 435 l 1,17,-1
 77 435 l 1,18,-1
 77 77 l 1,19,-1
 435 77 l 1,16,-1
256 358 m 0,20,21
 256 380 256 380 241 395 c 128,-1,22
 226 410 226 410 205 410 c 128,-1,23
 184 410 184 410 169 395 c 128,-1,24
 154 380 154 380 154 358.5 c 128,-1,25
 154 337 154 337 169 322 c 128,-1,26
 184 307 184 307 205 307 c 128,-1,27
 226 307 226 307 241 322 c 128,-1,28
 256 337 256 337 256 358 c 0,20,21
333 230 m 1,29,30
 333 242 333 242 334 254 c 0,31,32
 336 283 336 283 342 307 c 0,33,34
 351 341 351 341 365 360 c 0,35,36
 383 384 383 384 410 384 c 1,37,-1
 410 128 l 2,38,39
 410 117 410 117 402.5 109.5 c 128,-1,40
 395 102 395 102 384 102 c 2,41,-1
 128 102 l 2,42,43
 117 102 117 102 109.5 109.5 c 128,-1,44
 102 117 102 117 102 128 c 2,45,-1
 102 307 l 1,46,47
 134 307 134 307 160 256 c 0,48,49
 173 230 173 230 179 205 c 1,50,-1
 179 205 l 1,51,-1
 184 217 l 2,52,53
 190 231 190 231 198 243 c 0,54,55
 210 260 210 260 222 270 c 0,56,57
 238 282 238 282 256 282 c 0,58,59
 288 282 288 282 314 256 c 0,60,61
 326 243 326 243 333 230 c 1,62,-1
 333 230 l 1,29,30
EndSplineSet
EndChar

StartChar: camera-alt
Encoding: 36 61737 36
Width: 512
GlyphClass: 2
Flags: W
LayerCount: 2
Fore
SplineSet
384 410 m 1,0,-1
 459 410 l 2,1,2
 471 410 471 410 478.5 402 c 128,-1,3
 486 394 486 394 486 382 c 2,4,-1
 486 80 l 2,5,6
 486 69 486 69 478 60 c 128,-1,7
 470 51 470 51 459 51 c 2,8,-1
 53 51 l 2,9,10
 42 51 42 51 34 60 c 128,-1,11
 26 69 26 69 26 80 c 2,12,-1
 26 382 l 2,13,14
 26 394 26 394 33.5 402 c 128,-1,15
 41 410 41 410 53 410 c 2,16,-1
 128 410 l 1,17,-1
 205 461 l 1,18,-1
 307 461 l 1,19,-1
 384 410 l 1,0,-1
256 128 m 256,20,21
 298 128 298 128 328 158 c 128,-1,22
 358 188 358 188 358 230.5 c 128,-1,23
 358 273 358 273 328 303 c 128,-1,24
 298 333 298 333 256 333 c 128,-1,25
 214 333 214 333 184 303 c 128,-1,26
 154 273 154 273 154 230.5 c 128,-1,27
 154 188 154 188 184 158 c 128,-1,28
 214 128 214 128 256 128 c 256,20,21
EndSplineSet
EndChar

StartChar: yes-alt
Encoding: 37 61738 37
Width: 512
GlyphClass: 2
Flags: W
LayerCount: 2
Fore
SplineSet
256 461 m 256,0,1
 200 461 200 461 153 433.5 c 128,-1,2
 106 406 106 406 78.5 359 c 128,-1,3
 51 312 51 312 51 256 c 128,-1,4
 51 200 51 200 78.5 153 c 128,-1,5
 106 106 106 106 153 78.5 c 128,-1,6
 200 51 200 51 256 51 c 128,-1,7
 312 51 312 51 359 78.5 c 128,-1,8
 406 106 406 106 433.5 153 c 128,-1,9
 461 200 461 200 461 256 c 128,-1,10
 461 312 461 312 433.5 359 c 128,-1,11
 406 406 406 406 359 433.5 c 128,-1,12
 312 461 312 461 256 461 c 256,0,1
240 137 m 1,13,-1
 206 137 l 1,14,-1
 123 253 l 1,15,-1
 157 285 l 1,16,-1
 223 223 l 1,17,-1
 355 375 l 1,18,-1
 389 351 l 1,19,-1
 240 137 l 1,13,-1
EndSplineSet
EndChar

StartChar: editor-ol-rtl
Encoding: 38 61740 38
Width: 512
GlyphClass: 2
Flags: W
LayerCount: 2
Fore
SplineSet
384 287 m 0,0,1
 387 289 387 289 394.5 289 c 128,-1,2
 402 289 402 289 404 287 c 0,3,4
 410 282 410 282 410 279 c 0,5,6
 410 274 410 274 407 271 c 0,7,8
 407 269 407 269 402 264 c 2,9,-1
 361 223 l 1,10,-1
 361 205 l 1,11,-1
 433 205 l 1,12,-1
 433 223 l 1,13,-1
 389 223 l 1,14,-1
 420 253 l 2,15,16
 422 256 422 256 428 266 c 0,17,18
 430 271 430 271 430 279 c 0,19,20
 430 284 430 284 425 294 c 0,21,22
 423 298 423 298 418 302 c 2,23,-1
 415 305 l 1,24,25
 404 310 404 310 397 307 c 0,26,27
 389 307 389 307 384 305 c 0,28,29
 383 305 383 305 379 303.5 c 128,-1,30
 375 302 375 302 374 302 c 0,31,32
 369 300 369 300 361 292 c 1,33,-1
 374 282 l 1,34,35
 379 287 379 287 384 287 c 0,0,1
428 120 m 0,36,37
 420 128 420 128 410 128 c 1,38,39
 422 132 422 132 425 138 c 0,40,41
 430 143 430 143 430 154 c 1,42,-1
 430 154 l 1,43,44
 430 168 430 168 420 172 c 0,45,46
 408 179 408 179 394 179 c 0,47,48
 375 179 375 179 361 169 c 1,49,-1
 371 154 l 1,50,51
 376 159 376 159 384 159 c 0,52,53
 385 159 385 159 389 160 c 128,-1,54
 393 161 393 161 394 161 c 0,55,56
 410 161 410 161 410 148 c 0,57,58
 410 143 410 143 404 138 c 0,59,60
 399 136 399 136 387 136 c 2,61,-1
 379 136 l 1,62,-1
 379 118 l 1,63,-1
 387 118 l 2,64,65
 399 118 399 118 407 115 c 0,66,67
 411 113 411 113 411.5 111 c 128,-1,68
 412 109 412 109 412 105 c 0,69,70
 412 97 412 97 407 92 c 0,71,72
 397 87 397 87 392 87 c 0,73,74
 381 87 381 87 376 90 c 0,75,76
 369 90 369 90 364 95 c 1,77,-1
 364 77 l 1,78,79
 374 72 374 72 393.5 72 c 128,-1,80
 413 72 413 72 424 79 c 128,-1,81
 435 86 435 86 435 102 c 0,82,83
 435 113 435 113 428 120 c 0,36,37
384 404 m 2,84,85
 388 404 388 404 392 412 c 1,86,-1
 392 333 l 1,87,-1
 412 333 l 1,88,-1
 412 435 l 1,89,-1
 394 435 l 1,90,-1
 361 410 l 1,91,-1
 371 397 l 1,92,-1
 384 404 l 2,84,85
102 358 m 1,93,-1
 333 358 l 1,94,-1
 333 384 l 1,95,-1
 102 384 l 1,96,-1
 102 358 l 1,93,-1
102 230 m 1,97,-1
 333 230 l 1,98,-1
 333 256 l 1,99,-1
 102 256 l 1,100,-1
 102 230 l 1,97,-1
102 102 m 1,101,-1
 333 102 l 1,102,-1
 333 128 l 1,103,-1
 102 128 l 1,104,-1
 102 102 l 1,101,-1
EndSplineSet
EndChar

StartChar: instagram
Encoding: 39 61741 39
Width: 512
GlyphClass: 2
Flags: W
LayerCount: 2
Fore
SplineSet
325 256 m 256,0,1
 325 285 325 285 305 305 c 128,-1,2
 285 325 285 325 256 325 c 128,-1,3
 227 325 227 325 207 305 c 128,-1,4
 187 285 187 285 187 256 c 128,-1,5
 187 227 187 227 207 207 c 128,-1,6
 227 187 227 187 256 187 c 128,-1,7
 285 187 285 187 305 207 c 128,-1,8
 325 227 325 227 325 256 c 256,0,1
361 256 m 256,9,10
 361 212 361 212 330.5 181.5 c 128,-1,11
 300 151 300 151 256 151 c 128,-1,12
 212 151 212 151 181.5 181.5 c 128,-1,13
 151 212 151 212 151 256 c 128,-1,14
 151 300 151 300 181.5 330.5 c 128,-1,15
 212 361 212 361 256 361 c 128,-1,16
 300 361 300 361 330.5 330.5 c 128,-1,17
 361 300 361 300 361 256 c 256,9,10
389 366 m 0,18,19
 389 355 389 355 382 347.5 c 128,-1,20
 375 340 375 340 363.5 340 c 128,-1,21
 352 340 352 340 345 347.5 c 128,-1,22
 338 355 338 355 338 366.5 c 128,-1,23
 338 378 338 378 345 385 c 128,-1,24
 352 392 352 392 363.5 392 c 128,-1,25
 375 392 375 392 382 384 c 128,-1,26
 389 376 389 376 389 366 c 0,18,19
256 425 m 2,27,28
 251 425 251 425 240 425 c 0,29,30
 203 425 203 425 184 425 c 0,31,32
 150 423 150 423 136 417 c 128,-1,33
 122 411 122 411 111.5 400 c 128,-1,34
 101 389 101 389 97 376 c 0,35,36
 92 362 92 362 90 328 c 0,37,38
 89 309 89 309 89 272 c 2,39,-1
 89 240 l 2,40,41
 89 203 89 203 90 184 c 0,42,43
 92 150 92 150 96.5 136 c 128,-1,44
 101 122 101 122 111.5 111.5 c 128,-1,45
 122 101 122 101 136 96.5 c 128,-1,46
 150 92 150 92 185 90 c 0,47,48
 204 89 204 89 241 89 c 2,49,-1
 271 89 l 2,50,51
 308 89 308 89 327 90 c 0,52,53
 362 92 362 92 376 97 c 0,54,55
 403 109 403 109 415 136 c 0,56,57
 420 151 420 151 422 186 c 0,58,59
 423 205 423 205 423 241 c 2,60,-1
 423 271 l 2,61,62
 423 308 423 308 422 327 c 0,63,64
 420 362 420 362 415.5 376 c 128,-1,65
 411 390 411 390 400.5 400.5 c 128,-1,66
 390 411 390 411 376 415 c 0,67,68
 362 422 362 422 327 424 c 0,69,70
 307 425 307 425 270 425 c 2,71,-1
 256 425 l 2,27,28
461 256 m 1,72,-1
 461 172 l 2,73,74
 461 121 461 121 428 84 c 0,75,76
 394 51 394 51 340 51 c 2,77,-1
 172 51 l 2,78,79
 121 51 121 51 84 84 c 0,80,81
 69 102 69 102 60 124.5 c 128,-1,82
 51 147 51 147 51 172 c 2,83,-1
 51 340 l 2,84,85
 51 365 51 365 60 387.5 c 128,-1,86
 69 410 69 410 84 428 c 1,87,88
 126 461 126 461 172 461 c 2,89,-1
 340 461 l 2,90,91
 391 461 391 461 428 428 c 0,92,93
 443 410 443 410 452 387.5 c 128,-1,94
 461 365 461 365 461 340 c 2,95,-1
 461 256 l 1,72,-1
EndSplineSet
EndChar

StartChar: businessperson
Encoding: 40 61742 40
Width: 512
GlyphClass: 2
Flags: W
LayerCount: 2
Fore
SplineSet
338 256 m 1,0,-1
 282 179 l 1,1,-1
 256 215 l 1,2,-1
 230 179 l 1,3,-1
 174 256 l 1,4,5
 127 244 127 244 106 221 c 0,6,7
 86 201 86 201 80 164 c 0,8,9
 77 141 77 141 77 79 c 1,10,-1
 100 72 l 2,11,12
 129 64 129 64 159 59 c 0,13,14
 202 51 202 51 241 51 c 2,15,-1
 271 51 l 2,16,17
 310 52 310 52 353 60 c 0,18,19
 383 65 383 65 412 73 c 2,20,-1
 435 79 l 1,21,22
 435 141 435 141 432 164 c 0,23,24
 426 201 426 201 406 221 c 0,25,26
 385 244 385 244 338 256 c 1,0,-1
256 238 m 1,27,-1
 215 256 l 1,28,-1
 256 215 l 1,29,-1
 297 256 l 1,30,-1
 256 238 l 1,27,-1
256 458 m 256,31,32
 220 458 220 458 200.5 429 c 128,-1,33
 181 400 181 400 187 361 c 128,-1,34
 193 322 193 322 211.5 298 c 128,-1,35
 230 274 230 274 256 274 c 128,-1,36
 282 274 282 274 300.5 298 c 128,-1,37
 319 322 319 322 325 362 c 128,-1,38
 331 402 331 402 311.5 430 c 128,-1,39
 292 458 292 458 256 458 c 256,31,32
EndSplineSet
EndChar

StartChar: businesswoman
Encoding: 41 61743 41
Width: 512
GlyphClass: 2
Flags: W
LayerCount: 2
Fore
SplineSet
410 230 m 0,0,1
 394 244 394 244 369 250 c 0,2,3
 355 253 355 253 324 256 c 2,4,-1
 323 256 l 1,5,-1
 348 202 l 1,6,-1
 256 108 l 1,7,-1
 164 200 l 1,8,-1
 189 256 l 1,9,10
 131 256 131 256 102 230 c 0,11,12
 77 208 77 208 77 151 c 2,13,-1
 77 79 l 1,14,-1
 103 71 l 2,15,16
 135 63 135 63 169 57 c 0,17,18
 215 50 215 50 256 51 c 0,19,20
 297 50 297 50 343 57 c 0,21,22
 377 63 377 63 409 71 c 2,23,-1
 435 79 l 1,24,-1
 435 151 l 2,25,26
 435 205 435 205 410 230 c 0,0,1
169 274 m 0,27,28
 184 274 184 274 202.5 280 c 128,-1,29
 221 286 221 286 225 292 c 1,30,31
 206 316 206 316 201 333 c 0,32,33
 193 359 193 359 205 392 c 1,34,-1
 210 387 l 2,35,36
 218 381 218 381 229 375 c 0,37,38
 244 368 244 368 263 363 c 0,39,40
 287 356 287 356 315 353 c 1,41,42
 315 336 315 336 307 320 c 0,43,44
 300 308 300 308 287 292 c 1,45,46
 291 286 291 286 309.5 280 c 128,-1,47
 328 274 328 274 343.5 274 c 128,-1,48
 359 274 359 274 369 277.5 c 128,-1,49
 379 281 379 281 379 287 c 0,50,51
 379 290 379 290 366 304 c 0,52,53
 342 330 342 330 338 343 c 0,54,55
 334 354 334 354 333 377 c 0,56,57
 331 406 331 406 325 422 c 0,58,59
 309 461 309 461 256 461 c 128,-1,60
 203 461 203 461 187 422 c 0,61,62
 181 406 181 406 179 377 c 0,63,64
 178 354 178 354 174 343 c 0,65,66
 170 330 170 330 146 304 c 0,67,68
 133 290 133 290 133 287 c 0,69,70
 133 281 133 281 143 277.5 c 128,-1,71
 153 274 153 274 169 274 c 0,27,28
256 230 m 1,72,-1
 197 256 l 1,73,-1
 256 108 l 1,74,-1
 315 256 l 1,75,-1
 256 230 l 1,72,-1
EndSplineSet
EndChar

StartChar: format-status
Encoding: 42 61744 42
Width: 512
GlyphClass: 2
Flags: W
LayerCount: 2
Fore
SplineSet
256 486 m 256,0,1
 381 486 381 486 438 438 c 0,2,3
 486 397 486 397 486 320 c 128,-1,4
 486 243 486 243 438 202 c 0,5,6
 381 154 381 154 256 154 c 128,-1,7
 131 154 131 154 74 202 c 0,8,9
 26 243 26 243 26 320 c 128,-1,10
 26 397 26 397 74 438 c 0,11,12
 131 486 131 486 256 486 c 256,0,1
141 282 m 256,13,14
 157 282 157 282 168 293 c 128,-1,15
 179 304 179 304 179 320 c 128,-1,16
 179 336 179 336 168 347 c 128,-1,17
 157 358 157 358 141 358 c 128,-1,18
 125 358 125 358 113.5 347 c 128,-1,19
 102 336 102 336 102 320 c 128,-1,20
 102 304 102 304 113.5 293 c 128,-1,21
 125 282 125 282 141 282 c 256,13,14
256 282 m 256,22,23
 272 282 272 282 283 293 c 128,-1,24
 294 304 294 304 294 320 c 128,-1,25
 294 336 294 336 283 347 c 128,-1,26
 272 358 272 358 256 358 c 128,-1,27
 240 358 240 358 229 347 c 128,-1,28
 218 336 218 336 218 320 c 128,-1,29
 218 304 218 304 229 293 c 128,-1,30
 240 282 240 282 256 282 c 256,22,23
371 282 m 256,31,32
 387 282 387 282 398.5 293 c 128,-1,33
 410 304 410 304 410 320 c 128,-1,34
 410 336 410 336 398.5 347 c 128,-1,35
 387 358 387 358 371 358 c 128,-1,36
 355 358 355 358 344 347 c 128,-1,37
 333 336 333 336 333 320 c 128,-1,38
 333 304 333 304 344 293 c 128,-1,39
 355 282 355 282 371 282 c 256,31,32
154 141 m 256,40,41
 170 141 170 141 181 129.5 c 128,-1,42
 192 118 192 118 192 102 c 128,-1,43
 192 86 192 86 181 75 c 128,-1,44
 170 64 170 64 154 64 c 128,-1,45
 138 64 138 64 126.5 75 c 128,-1,46
 115 86 115 86 115 102 c 128,-1,47
 115 118 115 118 126.5 129.5 c 128,-1,48
 138 141 138 141 154 141 c 256,40,41
77 90 m 0,49,50
 87 90 87 90 94.5 82.5 c 128,-1,51
 102 75 102 75 102 64 c 128,-1,52
 102 53 102 53 94.5 45.5 c 128,-1,53
 87 38 87 38 76.5 38 c 128,-1,54
 66 38 66 38 58.5 45.5 c 128,-1,55
 51 53 51 53 51 64 c 128,-1,56
 51 75 51 75 58.5 82.5 c 128,-1,57
 66 90 66 90 77 90 c 0,49,50
EndSplineSet
EndChar

StartChar: color-picker
Encoding: 43 61745 43
Width: 512
GlyphClass: 2
Flags: W
LayerCount: 2
Fore
SplineSet
455 455 m 1,0,1
 455 436 455 436 441.5 422.5 c 128,-1,2
 428 409 428 409 408.5 409 c 128,-1,3
 389 409 389 409 375.5 422.5 c 128,-1,4
 362 436 362 436 362 455 c 1,5,-1
 316 410 l 1,6,-1
 298 428 l 1,7,8
 298 420 298 420 292.5 414.5 c 128,-1,9
 287 409 287 409 279.5 409 c 128,-1,10
 272 409 272 409 266.5 414.5 c 128,-1,11
 261 420 261 420 261 428 c 1,12,-1
 243 410 l 1,13,14
 251 410 251 410 256 404.5 c 128,-1,15
 261 399 261 399 261 391.5 c 128,-1,16
 261 384 261 384 256 378.5 c 128,-1,17
 251 373 251 373 243 373 c 1,18,-1
 371 245 l 1,19,20
 371 252 371 252 376.5 257.5 c 128,-1,21
 382 263 382 263 389.5 263 c 128,-1,22
 397 263 397 263 402.5 257.5 c 128,-1,23
 408 252 408 252 408 245 c 1,24,-1
 426 263 l 1,25,26
 418 263 418 263 412.5 268.5 c 128,-1,27
 407 274 407 274 407 281.5 c 128,-1,28
 407 289 407 289 412.5 294.5 c 128,-1,29
 418 300 418 300 426 300 c 1,30,-1
 410 316 l 1,31,-1
 456 362 l 1,32,33
 437 362 437 362 423 375.5 c 128,-1,34
 409 389 409 389 409 408 c 128,-1,35
 409 427 409 427 422.5 440.5 c 128,-1,36
 436 454 436 454 455 455 c 1,0,1
243 335 m 1,37,-1
 112 205 l 2,38,39
 93 186 93 186 84 166 c 0,40,41
 78 155 78 155 73 133 c 128,-1,42
 68 111 68 111 63 99 c 0,43,44
 55 78 55 78 38 58 c 1,45,-1
 57 39 l 1,46,47
 78 55 78 55 98 64 c 0,48,49
 110 69 110 69 132 74 c 128,-1,50
 154 79 154 79 165 85 c 0,51,52
 185 94 185 94 204 113 c 2,53,-1
 335 244 l 1,54,-1
 243 335 l 1,37,-1
EndSplineSet
EndChar

StartChar: plus
Encoding: 44 61746 44
Width: 512
GlyphClass: 2
Flags: W
LayerCount: 2
Fore
SplineSet
435 333 m 1,0,-1
 435 256 l 1,1,-1
 307 256 l 1,2,-1
 307 128 l 1,3,-1
 230 128 l 1,4,-1
 230 256 l 1,5,-1
 102 256 l 1,6,-1
 102 333 l 1,7,-1
 230 333 l 1,8,-1
 230 461 l 1,9,-1
 307 461 l 1,10,-1
 307 333 l 1,11,-1
 435 333 l 1,0,-1
EndSplineSet
EndChar

StartChar: welcome-add-page
Encoding: 45 61747 45
Width: 512
GlyphClass: 2
Flags: W
LayerCount: 2
Fore
SplineSet
435 333 m 1,0,-1
 435 410 l 1,1,-1
 384 410 l 1,2,-1
 384 461 l 1,3,-1
 307 461 l 1,4,-1
 307 435 l 1,5,-1
 77 435 l 1,6,-1
 77 51 l 1,7,-1
 358 51 l 1,8,-1
 358 282 l 1,9,-1
 384 282 l 1,10,-1
 384 333 l 1,11,-1
 435 333 l 1,0,-1
410 384 m 1,12,-1
 410 358 l 1,13,-1
 358 358 l 1,14,-1
 358 307 l 1,15,-1
 333 307 l 1,16,-1
 333 358 l 1,17,-1
 282 358 l 1,18,-1
 282 384 l 1,19,-1
 333 384 l 1,20,-1
 333 435 l 1,21,-1
 358 435 l 1,22,-1
 358 384 l 1,23,-1
 410 384 l 1,12,-1
EndSplineSet
EndChar

StartChar: align-center
Encoding: 46 61748 46
Width: 512
GlyphClass: 2
Flags: W
LayerCount: 2
Fore
SplineSet
77 384 m 1,0,-1
 435 384 l 1,1,-1
 435 435 l 1,2,-1
 77 435 l 1,3,-1
 77 384 l 1,0,-1
384 179 m 1,4,-1
 384 333 l 1,5,-1
 128 333 l 1,6,-1
 128 179 l 1,7,-1
 384 179 l 1,4,-1
77 77 m 1,8,-1
 435 77 l 1,9,-1
 435 128 l 1,10,-1
 77 128 l 1,11,-1
 77 77 l 1,8,-1
EndSplineSet
EndChar

StartChar: align-left
Encoding: 47 61749 47
Width: 512
GlyphClass: 2
Flags: W
LayerCount: 2
Fore
SplineSet
77 384 m 1,0,-1
 435 384 l 1,1,-1
 435 435 l 1,2,-1
 77 435 l 1,3,-1
 77 384 l 1,0,-1
307 179 m 1,4,-1
 307 333 l 1,5,-1
 77 333 l 1,6,-1
 77 179 l 1,7,-1
 307 179 l 1,4,-1
358 282 m 1,8,-1
 435 282 l 1,9,-1
 435 333 l 1,10,-1
 358 333 l 1,11,-1
 358 282 l 1,8,-1
358 179 m 1,12,-1
 435 179 l 1,13,-1
 435 230 l 1,14,-1
 358 230 l 1,15,-1
 358 179 l 1,12,-1
77 77 m 1,16,-1
 435 77 l 1,17,-1
 435 128 l 1,18,-1
 77 128 l 1,19,-1
 77 77 l 1,16,-1
EndSplineSet
EndChar

StartChar: align-right
Encoding: 48 61750 48
Width: 512
GlyphClass: 2
Flags: W
LayerCount: 2
Fore
SplineSet
77 384 m 1,0,-1
 435 384 l 1,1,-1
 435 435 l 1,2,-1
 77 435 l 1,3,-1
 77 384 l 1,0,-1
77 282 m 1,4,-1
 154 282 l 1,5,-1
 154 333 l 1,6,-1
 77 333 l 1,7,-1
 77 282 l 1,4,-1
435 179 m 1,8,-1
 435 333 l 1,9,-1
 205 333 l 1,10,-1
 205 179 l 1,11,-1
 435 179 l 1,8,-1
77 179 m 1,12,-1
 154 179 l 1,13,-1
 154 230 l 1,14,-1
 77 230 l 1,15,-1
 77 179 l 1,12,-1
77 77 m 1,16,-1
 435 77 l 1,17,-1
 435 128 l 1,18,-1
 77 128 l 1,19,-1
 77 77 l 1,16,-1
EndSplineSet
EndChar

StartChar: align-none
Encoding: 49 61752 49
Width: 512
GlyphClass: 2
Flags: W
LayerCount: 2
Fore
SplineSet
77 384 m 1,0,-1
 435 384 l 1,1,-1
 435 435 l 1,2,-1
 77 435 l 1,3,-1
 77 384 l 1,0,-1
333 179 m 1,4,-1
 333 333 l 1,5,-1
 77 333 l 1,6,-1
 77 179 l 1,7,-1
 333 179 l 1,4,-1
77 77 m 1,8,-1
 435 77 l 1,9,-1
 435 128 l 1,10,-1
 77 128 l 1,11,-1
 77 77 l 1,8,-1
EndSplineSet
EndChar

StartChar: arrow-right
Encoding: 50 61753 50
Width: 512
GlyphClass: 2
Flags: W
LayerCount: 2
Fore
SplineSet
205 358 m 1,0,-1
 358 255 l 1,1,-1
 205 154 l 1,2,-1
 205 358 l 1,0,-1
EndSplineSet
EndChar

StartChar: code-standards
Encoding: 51 61754 51
Width: 512
GlyphClass: 2
Flags: W
LayerCount: 2
Fore
SplineSet
156 269 m 2,0,-1
 156 297 l 2,1,2
 156 306 156 306 152 310.5 c 128,-1,3
 148 315 148 315 138 317 c 1,4,5
 150 319 150 319 154.5 324 c 128,-1,6
 159 329 159 329 159 340 c 2,7,-1
 159 369 l 2,8,9
 159 376 159 376 162 378.5 c 128,-1,10
 165 381 165 381 177 381 c 2,11,-1
 184 381 l 1,12,-1
 184 394 l 1,13,-1
 169 394 l 2,14,15
 151 394 151 394 143.5 388.5 c 128,-1,16
 136 383 136 383 136 369 c 0,17,18
 136 362 136 362 137 352.5 c 128,-1,19
 138 343 138 343 138 338 c 128,-1,20
 138 333 138 333 132.5 329 c 128,-1,21
 127 325 127 325 115 325 c 1,22,-1
 115 310 l 1,23,24
 127 310 127 310 132.5 306 c 128,-1,25
 138 302 138 302 138 297 c 128,-1,26
 138 292 138 292 137 282.5 c 128,-1,27
 136 273 136 273 136 266 c 0,28,29
 136 251 136 251 143.5 246 c 128,-1,30
 151 241 151 241 169 241 c 2,31,-1
 182 241 l 1,32,-1
 182 256 l 1,33,-1
 174 256 l 2,34,35
 164 256 164 256 160 258.5 c 128,-1,36
 156 261 156 261 156 269 c 2,0,-1
422 156 m 0,37,38
 402 177 402 177 356 207 c 1,39,40
 328 236 328 236 317 243 c 1,41,42
 340 280 340 280 337 323 c 0,43,44
 335 363 335 363 312 397 c 128,-1,45
 289 431 289 431 253 449 c 0,46,47
 214 467 214 467 172.5 460.5 c 128,-1,48
 131 454 131 454 100 427 c 0,49,50
 71 402 71 402 58.5 364.5 c 128,-1,51
 46 327 46 327 53 290 c 0,52,53
 61 250 61 250 90 220 c 0,54,55
 122 184 122 184 172 176.5 c 128,-1,56
 222 169 222 169 266 192 c 1,57,58
 294 164 294 164 307 148 c 2,59,-1
 321 130 l 2,60,61
 333 114 333 114 339 106 c 0,62,63
 350 93 350 93 361 84 c 2,64,-1
 363 83 l 1,65,66
 379 69 379 69 389 63 c 0,67,68
 405 53 405 53 420 51 c 0,69,70
 440 49 440 49 451.5 60.5 c 128,-1,71
 463 72 463 72 463 92 c 0,72,73
 460 118 460 118 422 156 c 0,37,38
195 215 m 0,74,75
 152 215 152 215 122 245 c 128,-1,76
 92 275 92 275 92 317.5 c 128,-1,77
 92 360 92 360 122 390 c 128,-1,78
 152 420 152 420 194.5 420 c 128,-1,79
 237 420 237 420 267 390 c 128,-1,80
 297 360 297 360 297 317.5 c 128,-1,81
 297 275 297 275 267 245 c 128,-1,82
 237 215 237 215 195 215 c 0,74,75
248 338 m 256,83,84
 248 343 248 343 249.5 352.5 c 128,-1,85
 251 362 251 362 251 369 c 0,86,87
 251 383 251 383 243.5 388.5 c 128,-1,88
 236 394 236 394 218 394 c 2,89,-1
 205 394 l 1,90,-1
 205 381 l 1,91,-1
 212 381 l 2,92,93
 222 381 222 381 226 378.5 c 128,-1,94
 230 376 230 376 230 369 c 2,95,-1
 230 340 l 2,96,97
 230 331 230 331 234.5 326.5 c 128,-1,98
 239 322 239 322 248 320 c 1,99,100
 237 316 237 316 232.5 311 c 128,-1,101
 228 306 228 306 228 297 c 2,102,-1
 228 269 l 2,103,104
 230 261 230 261 226.5 258.5 c 128,-1,105
 223 256 223 256 212 256 c 2,106,-1
 205 256 l 1,107,-1
 205 241 l 1,108,-1
 218 241 l 2,109,110
 236 241 236 241 243.5 246 c 128,-1,111
 251 251 251 251 251 266 c 0,112,113
 251 273 251 273 249.5 282.5 c 128,-1,114
 248 292 248 292 248 297 c 128,-1,115
 248 302 248 302 253.5 306 c 128,-1,116
 259 310 259 310 271 310 c 1,117,-1
 271 325 l 1,118,119
 259 325 259 325 253.5 329 c 128,-1,120
 248 333 248 333 248 338 c 256,83,84
EndSplineSet
EndChar

StartChar: arrow-down
Encoding: 52 61760 52
Width: 512
GlyphClass: 2
Flags: W
LayerCount: 2
Fore
SplineSet
384 307 m 1,0,-1
 281 154 l 1,1,-1
 179 307 l 1,2,-1
 384 307 l 1,0,-1
EndSplineSet
EndChar

StartChar: arrow-left
Encoding: 53 61761 53
Width: 512
GlyphClass: 2
Flags: W
LayerCount: 2
Fore
SplineSet
333 154 m 1,0,-1
 179 257 l 1,1,-1
 333 358 l 1,2,-1
 333 154 l 1,0,-1
EndSplineSet
EndChar

StartChar: arrow-up
Encoding: 54 61762 54
Width: 512
GlyphClass: 2
Flags: W
LayerCount: 2
Fore
SplineSet
282 333 m 1,0,-1
 179 179 l 1,1,-1
 384 179 l 1,2,-1
 282 333 l 1,0,-1
EndSplineSet
EndChar

StartChar: arrow-up-duplicate
Encoding: 55 61763 55
Width: 512
GlyphClass: 2
Flags: W
LayerCount: 2
Fore
SplineSet
179 179 m 1,0,-1
 282 333 l 1,1,-1
 384 179 l 1,2,-1
 179 179 l 1,0,-1
EndSplineSet
EndChar

StartChar: calendar
Encoding: 56 61765 56
Width: 512
GlyphClass: 2
Flags: W
LayerCount: 2
Fore
SplineSet
384 410 m 1,0,-1
 461 410 l 1,1,-1
 461 51 l 1,2,-1
 51 51 l 1,3,-1
 51 410 l 1,4,-1
 128 410 l 1,5,-1
 128 435 l 2,6,7
 128 451 128 451 139 462.5 c 128,-1,8
 150 474 150 474 166 474 c 128,-1,9
 182 474 182 474 193.5 462.5 c 128,-1,10
 205 451 205 451 205 435 c 2,11,-1
 205 410 l 1,12,-1
 307 410 l 1,13,-1
 307 435 l 2,14,15
 307 451 307 451 318.5 462.5 c 128,-1,16
 330 474 330 474 346 474 c 128,-1,17
 362 474 362 474 373 462.5 c 128,-1,18
 384 451 384 451 384 435 c 2,19,-1
 384 410 l 1,0,-1
154 435 m 2,20,-1
 154 371 l 2,21,22
 154 366 154 366 157.5 362 c 128,-1,23
 161 358 161 358 166.5 358 c 128,-1,24
 172 358 172 358 175.5 362 c 128,-1,25
 179 366 179 366 179 371 c 2,26,-1
 179 435 l 2,27,28
 179 441 179 441 175.5 444.5 c 128,-1,29
 172 448 172 448 166.5 448 c 128,-1,30
 161 448 161 448 157.5 444.5 c 128,-1,31
 154 441 154 441 154 435 c 2,20,-1
333 435 m 2,32,-1
 333 371 l 2,33,34
 333 366 333 366 336.5 362 c 128,-1,35
 340 358 340 358 345.5 358 c 128,-1,36
 351 358 351 358 354.5 362 c 128,-1,37
 358 366 358 366 358 371 c 2,38,-1
 358 435 l 2,39,40
 358 441 358 441 354.5 444.5 c 128,-1,41
 351 448 351 448 345.5 448 c 128,-1,42
 340 448 340 448 336.5 444.5 c 128,-1,43
 333 441 333 441 333 435 c 2,32,-1
435 77 m 1,44,-1
 435 307 l 1,45,-1
 77 307 l 1,46,-1
 77 77 l 1,47,-1
 435 77 l 1,44,-1
179 102 m 1,48,-1
 179 282 l 1,49,-1
 128 282 l 1,50,-1
 128 102 l 1,51,-1
 179 102 l 1,48,-1
282 102 m 1,52,-1
 282 282 l 1,53,-1
 230 282 l 1,54,-1
 230 102 l 1,55,-1
 282 102 l 1,52,-1
384 102 m 1,56,-1
 384 282 l 1,57,-1
 333 282 l 1,58,-1
 333 102 l 1,59,-1
 384 102 l 1,56,-1
EndSplineSet
EndChar

StartChar: yes
Encoding: 57 61767 57
Width: 512
GlyphClass: 2
Flags: W
LayerCount: 2
Fore
SplineSet
380 387 m 1,0,-1
 414 363 l 1,1,-1
 265 148 l 1,2,-1
 231 148 l 1,3,-1
 148 264 l 1,4,-1
 182 296 l 1,5,-1
 248 235 l 1,6,-1
 380 387 l 1,0,-1
EndSplineSet
EndChar

StartChar: admin-collapse
Encoding: 58 61768 58
Width: 512
GlyphClass: 2
Flags: W
LayerCount: 2
Fore
SplineSet
256 457 m 0,0,1
 311 457 311 457 357 430 c 128,-1,2
 403 403 403 403 430 357 c 128,-1,3
 457 311 457 311 457 256 c 128,-1,4
 457 201 457 201 430 155 c 128,-1,5
 403 109 403 109 357 82 c 128,-1,6
 311 55 311 55 256 55 c 128,-1,7
 201 55 201 55 155 82 c 128,-1,8
 109 109 109 109 82 155 c 128,-1,9
 55 201 55 201 55 255.5 c 128,-1,10
 55 310 55 310 82.5 356.5 c 128,-1,11
 110 403 110 403 156 430 c 128,-1,12
 202 457 202 457 256 457 c 0,0,1
307 157 m 1,13,-1
 307 355 l 1,14,-1
 158 257 l 1,15,-1
 307 157 l 1,13,-1
EndSplineSet
EndChar

StartChar: dismiss
Encoding: 59 61779 59
Width: 512
GlyphClass: 2
Flags: W
LayerCount: 2
Fore
SplineSet
256 461 m 256,0,1
 312 461 312 461 359 433.5 c 128,-1,2
 406 406 406 406 433.5 359 c 128,-1,3
 461 312 461 312 461 256 c 128,-1,4
 461 200 461 200 433.5 153 c 128,-1,5
 406 106 406 106 359 78.5 c 128,-1,6
 312 51 312 51 256 51 c 128,-1,7
 200 51 200 51 153 78.5 c 128,-1,8
 106 106 106 106 78.5 153 c 128,-1,9
 51 200 51 200 51 256 c 128,-1,10
 51 312 51 312 78.5 359 c 128,-1,11
 106 406 106 406 153 433.5 c 128,-1,12
 200 461 200 461 256 461 c 256,0,1
384 179 m 1,13,-1
 307 256 l 1,14,-1
 384 333 l 1,15,-1
 333 384 l 1,16,-1
 256 307 l 1,17,-1
 179 384 l 1,18,-1
 128 333 l 1,19,-1
 205 256 l 1,20,-1
 128 179 l 1,21,-1
 179 128 l 1,22,-1
 256 205 l 1,23,-1
 333 128 l 1,24,-1
 384 179 l 1,13,-1
EndSplineSet
EndChar

StartChar: star-empty
Encoding: 60 61780 60
Width: 512
GlyphClass: 2
Flags: W
LayerCount: 2
Fore
SplineSet
256 486 m 1,0,-1
 179 333 l 1,1,-1
 26 314 l 1,2,-1
 131 195 l 1,3,-1
 102 26 l 1,4,-1
 256 102 l 1,5,-1
 410 26 l 1,6,-1
 381 195 l 1,7,-1
 486 314 l 1,8,-1
 333 333 l 1,9,-1
 256 486 l 1,0,-1
256 429 m 1,10,-1
 316 309 l 1,11,-1
 435 294 l 1,12,-1
 354 203 l 1,13,-1
 376 71 l 1,14,-1
 256 131 l 1,15,-1
 136 71 l 1,16,-1
 158 203 l 1,17,-1
 77 294 l 1,18,-1
 196 309 l 1,19,-1
 256 429 l 1,10,-1
EndSplineSet
EndChar

StartChar: star-filled
Encoding: 61 61781 61
Width: 512
GlyphClass: 2
Flags: W
LayerCount: 2
Fore
SplineSet
256 486 m 1,0,-1
 333 333 l 1,1,-1
 486 314 l 1,2,-1
 381 195 l 1,3,-1
 410 26 l 1,4,-1
 256 102 l 1,5,-1
 102 26 l 1,6,-1
 131 195 l 1,7,-1
 26 314 l 1,8,-1
 179 333 l 1,9,-1
 256 486 l 1,0,-1
EndSplineSet
EndChar

StartChar: sort
Encoding: 62 61782 62
Width: 512
GlyphClass: 2
Flags: W
LayerCount: 2
Fore
SplineSet
282 333 m 1,0,-1
 26 333 l 1,1,-1
 154 154 l 1,2,-1
 282 333 l 1,0,-1
230 154 m 1,3,-1
 486 154 l 1,4,-1
 358 333 l 1,5,-1
 230 154 l 1,3,-1
EndSplineSet
EndChar

StartChar: pressthis
Encoding: 63 61783 63
Width: 512
GlyphClass: 2
Flags: W
LayerCount: 2
Fore
SplineSet
378 486 m 256,0,1
 412 486 412 486 436.5 462 c 128,-1,2
 461 438 461 438 461 403.5 c 128,-1,3
 461 369 461 369 436.5 344.5 c 128,-1,4
 412 320 412 320 378 320 c 0,5,6
 369 320 369 320 360 322 c 1,7,-1
 333 295 l 1,8,-1
 333 26 l 1,9,-1
 51 26 l 1,10,-1
 51 410 l 1,11,-1
 295 410 l 1,12,13
 298 447 298 447 321 466.5 c 128,-1,14
 344 486 344 486 378 486 c 256,0,1
378 346 m 0,15,16
 402 346 402 346 418.5 363 c 128,-1,17
 435 380 435 380 435 403.5 c 128,-1,18
 435 427 435 427 418.5 444 c 128,-1,19
 402 461 402 461 378 461 c 128,-1,20
 354 461 354 461 337.5 444 c 128,-1,21
 321 427 321 427 321 403 c 0,22,23
 321 389 321 389 327 377 c 1,24,-1
 245 294 l 2,25,26
 236 285 236 285 221 262 c 0,27,28
 202 235 202 235 207 231 c 0,29,30
 207 230 207 230 209 230 c 0,31,32
 217 230 217 230 242 247 c 0,33,34
 263 261 263 261 270 269 c 2,35,-1
 353 352 l 1,36,37
 365 346 365 346 378 346 c 0,15,16
EndSplineSet
EndChar

StartChar: no
Encoding: 64 61784 64
Width: 512
GlyphClass: 2
Flags: W
LayerCount: 2
Fore
SplineSet
310 256 m 1,0,-1
 401 166 l 1,1,-1
 346 111 l 1,2,-1
 256 202 l 1,3,-1
 165 111 l 1,4,-1
 111 165 l 1,5,-1
 202 256 l 1,6,-1
 111 347 l 1,7,-1
 165 401 l 1,8,-1
 256 310 l 1,9,-1
 347 401 l 1,10,-1
 401 346 l 1,11,-1
 310 256 l 1,0,-1
EndSplineSet
EndChar

StartChar: marker
Encoding: 65 61785 65
Width: 512
GlyphClass: 2
Flags: W
LayerCount: 2
Fore
SplineSet
256 461 m 256,0,1
 312 461 312 461 359 433.5 c 128,-1,2
 406 406 406 406 433.5 359 c 128,-1,3
 461 312 461 312 461 256 c 128,-1,4
 461 200 461 200 433.5 153 c 128,-1,5
 406 106 406 106 359 78.5 c 128,-1,6
 312 51 312 51 256 51 c 128,-1,7
 200 51 200 51 153 78.5 c 128,-1,8
 106 106 106 106 78.5 153 c 128,-1,9
 51 200 51 200 51 256 c 128,-1,10
 51 312 51 312 78.5 359 c 128,-1,11
 106 406 106 406 153 433.5 c 128,-1,12
 200 461 200 461 256 461 c 256,0,1
256 128 m 256,13,14
 291 128 291 128 320.5 145 c 128,-1,15
 350 162 350 162 367 191.5 c 128,-1,16
 384 221 384 221 384 256 c 128,-1,17
 384 291 384 291 367 320.5 c 128,-1,18
 350 350 350 350 320.5 367 c 128,-1,19
 291 384 291 384 256 384 c 128,-1,20
 221 384 221 384 191.5 367 c 128,-1,21
 162 350 162 350 145 320.5 c 128,-1,22
 128 291 128 291 128 256 c 128,-1,23
 128 221 128 221 145 191.5 c 128,-1,24
 162 162 162 162 191.5 145 c 128,-1,25
 221 128 221 128 256 128 c 256,13,14
EndSplineSet
EndChar

StartChar: lock-duplicate
Encoding: 66 61792 66
AltUni2: 00f315.ffffffff.0 00f315.ffffffff.0
Width: 512
GlyphClass: 2
Flags: W
LayerCount: 2
Fore
SplineSet
384 282 m 2,0,-1
 358 282 l 1,1,-1
 358 358 l 2,2,3
 358 401 358 401 328 431 c 128,-1,4
 298 461 298 461 256 461 c 128,-1,5
 214 461 214 461 184 431 c 128,-1,6
 154 401 154 401 154 358 c 2,7,-1
 154 282 l 1,8,-1
 128 282 l 2,9,10
 118 282 118 282 110 274 c 128,-1,11
 102 266 102 266 102 256 c 2,12,-1
 102 77 l 2,13,14
 102 67 102 67 110 59 c 128,-1,15
 118 51 118 51 128 51 c 2,16,-1
 384 51 l 2,17,18
 394 51 394 51 402 59 c 128,-1,19
 410 67 410 67 410 77 c 2,20,-1
 410 256 l 2,21,22
 410 266 410 266 402 274 c 128,-1,23
 394 282 394 282 384 282 c 2,0,-1
282 102 m 1,24,-1
 230 102 l 1,25,-1
 241 159 l 1,26,27
 231 163 231 163 224.5 172.5 c 128,-1,28
 218 182 218 182 218 192 c 0,29,30
 218 207 218 207 229.5 218.5 c 128,-1,31
 241 230 241 230 256 230 c 128,-1,32
 271 230 271 230 282.5 218.5 c 128,-1,33
 294 207 294 207 294 192 c 0,34,35
 294 180 294 180 288.5 171 c 128,-1,36
 283 162 283 162 271 159 c 1,37,-1
 282 102 l 1,24,-1
307 282 m 1,38,-1
 205 282 l 1,39,-1
 205 358 l 2,40,41
 205 380 205 380 220 395 c 128,-1,42
 235 410 235 410 256 410 c 128,-1,43
 277 410 277 410 292 395 c 128,-1,44
 307 380 307 380 307 358 c 2,45,-1
 307 282 l 1,38,-1
EndSplineSet
EndChar

StartChar: format-gallery
Encoding: 67 61793 67
Width: 512
GlyphClass: 2
Flags: W
LayerCount: 2
Fore
SplineSet
410 410 m 1,0,-1
 460 410 l 2,1,2
 471 410 471 410 478.5 402 c 128,-1,3
 486 394 486 394 486 383 c 2,4,-1
 486 52 l 2,5,6
 486 41 486 41 478.5 33.5 c 128,-1,7
 471 26 471 26 460 26 c 2,8,-1
 129 26 l 2,9,10
 118 26 118 26 110 33.5 c 128,-1,11
 102 41 102 41 102 52 c 2,12,-1
 102 102 l 1,13,-1
 52 102 l 2,14,15
 41 102 41 102 33.5 110 c 128,-1,16
 26 118 26 118 26 129 c 2,17,-1
 26 460 l 2,18,19
 26 471 26 471 33.5 478.5 c 128,-1,20
 41 486 41 486 52 486 c 2,21,-1
 383 486 l 2,22,23
 394 486 394 486 402 478.5 c 128,-1,24
 410 471 410 471 410 460 c 2,25,-1
 410 410 l 1,0,-1
77 154 m 1,26,-1
 358 154 l 1,27,-1
 358 435 l 1,28,-1
 77 435 l 1,29,-1
 77 154 l 1,26,-1
205 371 m 256,30,31
 205 387 205 387 193.5 398.5 c 128,-1,32
 182 410 182 410 166 410 c 128,-1,33
 150 410 150 410 139 398.5 c 128,-1,34
 128 387 128 387 128 371 c 128,-1,35
 128 355 128 355 139 344 c 128,-1,36
 150 333 150 333 166 333 c 128,-1,37
 182 333 182 333 193.5 344 c 128,-1,38
 205 355 205 355 205 371 c 256,30,31
256 256 m 1,39,40
 258 266 258 266 261 276 c 0,41,42
 267 300 267 300 275 320 c 0,43,44
 286 348 286 348 299 364 c 0,45,46
 315 384 315 384 333 384 c 1,47,-1
 333 179 l 1,48,-1
 102 179 l 1,49,-1
 102 333 l 1,50,51
 120 333 120 333 132 321 c 0,52,53
 142 311 142 311 147 294 c 0,54,55
 151 282 151 282 153 268 c 2,56,-1
 154 256 l 1,57,-1
 157 269 l 2,58,59
 163 284 163 284 173 294 c 0,60,61
 186 307 186 307 205 307 c 0,62,63
 232 307 232 307 246 282 c 0,64,65
 254 269 254 269 256 256 c 1,66,-1
 256 256 l 1,39,40
435 77 m 1,67,-1
 435 358 l 1,68,-1
 410 358 l 1,69,-1
 410 129 l 2,70,71
 410 118 410 118 402 110 c 128,-1,72
 394 102 394 102 383 102 c 2,73,-1
 154 102 l 1,74,-1
 154 77 l 1,75,-1
 435 77 l 1,67,-1
EndSplineSet
EndChar

StartChar: list-view
Encoding: 68 61795 68
Width: 512
GlyphClass: 2
Flags: W
LayerCount: 2
Fore
SplineSet
51 26 m 2,0,-1
 461 26 l 2,1,2
 471 26 471 26 478.5 33.5 c 128,-1,3
 486 41 486 41 486 51 c 2,4,-1
 486 461 l 2,5,6
 486 471 486 471 478.5 478.5 c 128,-1,7
 471 486 471 486 461 486 c 2,8,-1
 51 486 l 2,9,10
 41 486 41 486 33.5 478.5 c 128,-1,11
 26 471 26 471 26 461 c 2,12,-1
 26 51 l 2,13,14
 26 41 26 41 33.5 33.5 c 128,-1,15
 41 26 41 26 51 26 c 2,0,-1
102 435 m 0,16,17
 113 435 113 435 120.5 427.5 c 128,-1,18
 128 420 128 420 128 409.5 c 128,-1,19
 128 399 128 399 120.5 391.5 c 128,-1,20
 113 384 113 384 102.5 384 c 128,-1,21
 92 384 92 384 84.5 391.5 c 128,-1,22
 77 399 77 399 77 409.5 c 128,-1,23
 77 420 77 420 84.5 427.5 c 128,-1,24
 92 435 92 435 102 435 c 0,16,17
435 435 m 1,25,-1
 435 384 l 1,26,-1
 154 384 l 1,27,-1
 154 435 l 1,28,-1
 435 435 l 1,25,-1
102 333 m 0,29,30
 113 333 113 333 120.5 325.5 c 128,-1,31
 128 318 128 318 128 307.5 c 128,-1,32
 128 297 128 297 120.5 289.5 c 128,-1,33
 113 282 113 282 102.5 282 c 128,-1,34
 92 282 92 282 84.5 289.5 c 128,-1,35
 77 297 77 297 77 307.5 c 128,-1,36
 77 318 77 318 84.5 325.5 c 128,-1,37
 92 333 92 333 102 333 c 0,29,30
435 333 m 1,38,-1
 435 282 l 1,39,-1
 154 282 l 1,40,-1
 154 333 l 1,41,-1
 435 333 l 1,38,-1
102 230 m 0,42,43
 113 230 113 230 120.5 222.5 c 128,-1,44
 128 215 128 215 128 204.5 c 128,-1,45
 128 194 128 194 120.5 186.5 c 128,-1,46
 113 179 113 179 102.5 179 c 128,-1,47
 92 179 92 179 84.5 186.5 c 128,-1,48
 77 194 77 194 77 204.5 c 128,-1,49
 77 215 77 215 84.5 222.5 c 128,-1,50
 92 230 92 230 102 230 c 0,42,43
435 230 m 1,51,-1
 435 179 l 1,52,-1
 154 179 l 1,53,-1
 154 230 l 1,54,-1
 435 230 l 1,51,-1
102 128 m 0,55,56
 113 128 113 128 120.5 120.5 c 128,-1,57
 128 113 128 113 128 102.5 c 128,-1,58
 128 92 128 92 120.5 84.5 c 128,-1,59
 113 77 113 77 102.5 77 c 128,-1,60
 92 77 92 77 84.5 84.5 c 128,-1,61
 77 92 77 92 77 102.5 c 128,-1,62
 77 113 77 113 84.5 120.5 c 128,-1,63
 92 128 92 128 102 128 c 0,55,56
435 128 m 1,64,-1
 435 77 l 1,65,-1
 154 77 l 1,66,-1
 154 128 l 1,67,-1
 435 128 l 1,64,-1
EndSplineSet
EndChar

StartChar: excerpt-view
Encoding: 69 61796 69
Width: 512
GlyphClass: 2
Flags: W
LayerCount: 2
Fore
SplineSet
486 51 m 2,0,-1
 486 461 l 2,1,2
 486 471 486 471 478.5 478.5 c 128,-1,3
 471 486 471 486 461 486 c 2,4,-1
 51 486 l 2,5,6
 41 486 41 486 33.5 478.5 c 128,-1,7
 26 471 26 471 26 461 c 2,8,-1
 26 51 l 2,9,10
 26 41 26 41 33.5 33.5 c 128,-1,11
 41 26 41 26 51 26 c 2,12,-1
 461 26 l 2,13,14
 471 26 471 26 478.5 33.5 c 128,-1,15
 486 41 486 41 486 51 c 2,0,-1
102 435 m 0,16,17
 113 435 113 435 120.5 427.5 c 128,-1,18
 128 420 128 420 128 409.5 c 128,-1,19
 128 399 128 399 120.5 391.5 c 128,-1,20
 113 384 113 384 102.5 384 c 128,-1,21
 92 384 92 384 84.5 391.5 c 128,-1,22
 77 399 77 399 77 409.5 c 128,-1,23
 77 420 77 420 84.5 427.5 c 128,-1,24
 92 435 92 435 102 435 c 0,16,17
435 435 m 1,25,-1
 435 282 l 1,26,-1
 154 282 l 1,27,-1
 154 435 l 1,28,-1
 435 435 l 1,25,-1
102 230 m 0,29,30
 113 230 113 230 120.5 222.5 c 128,-1,31
 128 215 128 215 128 204.5 c 128,-1,32
 128 194 128 194 120.5 186.5 c 128,-1,33
 113 179 113 179 102.5 179 c 128,-1,34
 92 179 92 179 84.5 186.5 c 128,-1,35
 77 194 77 194 77 204.5 c 128,-1,36
 77 215 77 215 84.5 222.5 c 128,-1,37
 92 230 92 230 102 230 c 0,29,30
435 230 m 1,38,-1
 435 77 l 1,39,-1
 154 77 l 1,40,-1
 154 230 l 1,41,-1
 435 230 l 1,38,-1
EndSplineSet
EndChar

StartChar: image-crop
Encoding: 70 61797 70
Width: 512
GlyphClass: 2
Flags: W
LayerCount: 2
Fore
SplineSet
486 205 m 1,0,-1
 486 128 l 1,1,-1
 384 128 l 1,2,-1
 384 26 l 1,3,-1
 307 26 l 1,4,-1
 307 128 l 1,5,-1
 102 128 l 1,6,-1
 102 333 l 1,7,-1
 0 333 l 1,8,-1
 0 410 l 1,9,-1
 102 410 l 1,10,-1
 102 512 l 1,11,-1
 179 512 l 1,12,-1
 179 410 l 1,13,-1
 358 410 l 1,14,-1
 435 486 l 1,15,-1
 461 461 l 1,16,-1
 384 384 l 1,17,-1
 384 205 l 1,18,-1
 486 205 l 1,0,-1
282 333 m 1,19,-1
 179 333 l 1,20,-1
 179 230 l 1,21,-1
 282 333 l 1,19,-1
205 205 m 1,22,-1
 307 205 l 1,23,-1
 307 307 l 1,24,-1
 205 205 l 1,22,-1
EndSplineSet
EndChar

StartChar: image-rotate-left
Encoding: 71 61798 71
Width: 512
GlyphClass: 2
Flags: W
LayerCount: 2
Fore
SplineSet
179 384 m 1,0,-1
 129 384 l 1,1,2
 129 419 129 419 147 438 c 0,3,4
 166 458 166 458 205 458 c 1,5,-1
 205 512 l 1,6,7
 145 512 145 512 110.5 476.5 c 128,-1,8
 76 441 76 441 76 384 c 1,9,-1
 30 384 l 1,10,-1
 97 297 l 1,11,-1
 179 384 l 1,0,-1
512 486 m 1,12,-1
 512 128 l 1,13,-1
 384 128 l 1,14,-1
 384 0 l 1,15,-1
 26 0 l 1,16,-1
 26 256 l 1,17,-1
 256 256 l 1,18,-1
 256 486 l 1,19,-1
 512 486 l 1,12,-1
461 435 m 1,20,-1
 307 435 l 1,21,-1
 307 256 l 1,22,-1
 384 256 l 1,23,-1
 384 179 l 1,24,-1
 461 179 l 1,25,-1
 461 435 l 1,20,-1
333 205 m 1,26,-1
 77 205 l 1,27,-1
 77 51 l 1,28,-1
 333 51 l 1,29,-1
 333 205 l 1,26,-1
EndSplineSet
EndChar

StartChar: image-rotate-right
Encoding: 72 61799 72
Width: 512
GlyphClass: 2
Flags: W
LayerCount: 2
Fore
SplineSet
408 384 m 1,0,-1
 358 384 l 1,1,-1
 440 297 l 1,2,-1
 507 384 l 1,3,-1
 462 384 l 1,4,5
 462 441 462 441 427 476.5 c 128,-1,6
 392 512 392 512 333 512 c 1,7,-1
 333 458 l 1,8,9
 372 458 372 458 391 438 c 0,10,11
 408 419 408 419 408 384 c 1,0,-1
26 486 m 1,12,-1
 282 486 l 1,13,-1
 282 256 l 1,14,-1
 512 256 l 1,15,-1
 512 0 l 1,16,-1
 154 0 l 1,17,-1
 154 128 l 1,18,-1
 26 128 l 1,19,-1
 26 486 l 1,12,-1
77 435 m 1,20,-1
 77 179 l 1,21,-1
 154 179 l 1,22,-1
 154 256 l 1,23,-1
 230 256 l 1,24,-1
 230 435 l 1,25,-1
 77 435 l 1,20,-1
205 205 m 1,26,-1
 205 51 l 1,27,-1
 461 51 l 1,28,-1
 461 205 l 1,29,-1
 205 205 l 1,26,-1
EndSplineSet
EndChar

StartChar: image-flip-vertical
Encoding: 73 61800 73
Width: 512
GlyphClass: 2
Flags: W
LayerCount: 2
Fore
SplineSet
512 282 m 1,0,-1
 512 230 l 1,1,-1
 435 230 l 1,2,-1
 435 26 l 1,3,-1
 77 26 l 1,4,-1
 77 230 l 1,5,-1
 0 230 l 1,6,-1
 0 282 l 1,7,-1
 77 282 l 1,8,-1
 77 486 l 1,9,-1
 435 486 l 1,10,-1
 435 282 l 1,11,-1
 512 282 l 1,0,-1
166 333 m 1,12,-1
 346 333 l 1,13,-1
 256 435 l 1,14,-1
 166 333 l 1,12,-1
435 269 m 1,15,-1
 77 269 l 1,16,-1
 77 243 l 1,17,-1
 435 243 l 1,18,-1
 435 269 l 1,15,-1
346 179 m 1,19,-1
 166 179 l 1,20,-1
 256 77 l 1,21,-1
 346 179 l 1,19,-1
EndSplineSet
EndChar

StartChar: image-flip-horizontal
Encoding: 74 61801 74
Width: 512
GlyphClass: 2
Flags: W
LayerCount: 2
Fore
SplineSet
486 435 m 1,0,-1
 486 77 l 1,1,-1
 282 77 l 1,2,-1
 282 0 l 1,3,-1
 230 0 l 1,4,-1
 230 77 l 1,5,-1
 26 77 l 1,6,-1
 26 435 l 1,7,-1
 230 435 l 1,8,-1
 230 512 l 1,9,-1
 282 512 l 1,10,-1
 282 435 l 1,11,-1
 486 435 l 1,0,-1
269 77 m 1,12,-1
 269 435 l 1,13,-1
 243 435 l 1,14,-1
 243 77 l 1,15,-1
 269 77 l 1,12,-1
179 346 m 1,16,-1
 77 256 l 1,17,-1
 179 166 l 1,18,-1
 179 346 l 1,16,-1
435 256 m 1,19,-1
 333 346 l 1,20,-1
 333 166 l 1,21,-1
 435 256 l 1,19,-1
EndSplineSet
EndChar

StartChar: undo
Encoding: 75 61809 75
Width: 512
GlyphClass: 2
Flags: W
LayerCount: 2
Fore
SplineSet
307 384 m 2,0,-1
 179 384 l 1,1,-1
 179 461 l 1,2,-1
 26 358 l 1,3,-1
 179 256 l 1,4,-1
 179 333 l 1,5,-1
 307 333 l 2,6,7
 349 333 349 333 379.5 303 c 128,-1,8
 410 273 410 273 410 230.5 c 128,-1,9
 410 188 410 188 379.5 158 c 128,-1,10
 349 128 349 128 307 128 c 2,11,-1
 179 128 l 1,12,-1
 179 77 l 1,13,-1
 307 77 l 2,14,15
 349 77 349 77 384 97.5 c 128,-1,16
 419 118 419 118 440 153.5 c 128,-1,17
 461 189 461 189 461 230.5 c 128,-1,18
 461 272 461 272 440 307.5 c 128,-1,19
 419 343 419 343 384 363.5 c 128,-1,20
 349 384 349 384 307 384 c 2,0,-1
EndSplineSet
EndChar

StartChar: redo
Encoding: 76 61810 76
Width: 512
GlyphClass: 2
Flags: W
LayerCount: 2
Fore
SplineSet
205 384 m 2,0,-1
 333 384 l 1,1,-1
 333 461 l 1,2,-1
 486 358 l 1,3,-1
 333 256 l 1,4,-1
 333 333 l 1,5,-1
 205 333 l 2,6,7
 163 333 163 333 132.5 303 c 128,-1,8
 102 273 102 273 102 230.5 c 128,-1,9
 102 188 102 188 132.5 158 c 128,-1,10
 163 128 163 128 205 128 c 2,11,-1
 333 128 l 1,12,-1
 333 77 l 1,13,-1
 205 77 l 2,14,15
 163 77 163 77 128 97.5 c 128,-1,16
 93 118 93 118 72 153.5 c 128,-1,17
 51 189 51 189 51 230.5 c 128,-1,18
 51 272 51 272 72 307.5 c 128,-1,19
 93 343 93 343 128 363.5 c 128,-1,20
 163 384 163 384 205 384 c 2,0,-1
EndSplineSet
EndChar

StartChar: post-status
Encoding: 77 61811 77
Width: 512
GlyphClass: 2
Flags: W
LayerCount: 2
Fore
SplineSet
358 358 m 0,0,1
 358 323 358 323 336.5 295.5 c 128,-1,2
 315 268 315 268 282 260 c 1,3,-1
 282 102 l 2,4,5
 282 86 282 86 256 67 c 0,6,7
 243 58 243 58 230 51 c 1,8,-1
 230 51 l 1,9,-1
 230 260 l 1,10,11
 197 268 197 268 175.5 295.5 c 128,-1,12
 154 323 154 323 154 358 c 0,13,14
 154 401 154 401 184 431 c 128,-1,15
 214 461 214 461 256 461 c 128,-1,16
 298 461 298 461 328 431 c 128,-1,17
 358 401 358 401 358 358 c 0,0,1
205 384 m 256,18,19
 205 373 205 373 212.5 365.5 c 128,-1,20
 220 358 220 358 230.5 358 c 128,-1,21
 241 358 241 358 248.5 365.5 c 128,-1,22
 256 373 256 373 256 384 c 128,-1,23
 256 395 256 395 248.5 402.5 c 128,-1,24
 241 410 241 410 230.5 410 c 128,-1,25
 220 410 220 410 212.5 402.5 c 128,-1,26
 205 395 205 395 205 384 c 256,18,19
EndSplineSet
EndChar

StartChar: cart
Encoding: 78 61812 78
Width: 512
GlyphClass: 2
Flags: W
LayerCount: 2
Fore
SplineSet
154 179 m 1,0,-1
 384 179 l 2,1,2
 395 179 395 179 402.5 171.5 c 128,-1,3
 410 164 410 164 410 153.5 c 128,-1,4
 410 143 410 143 402.5 135.5 c 128,-1,5
 395 128 395 128 384 128 c 2,6,-1
 128 128 l 2,7,8
 117 128 117 128 109.5 135.5 c 128,-1,9
 102 143 102 143 102 154 c 2,10,-1
 102 410 l 1,11,-1
 51 410 l 2,12,13
 41 410 41 410 33.5 417.5 c 128,-1,14
 26 425 26 425 26 435.5 c 128,-1,15
 26 446 26 446 33.5 453.5 c 128,-1,16
 41 461 41 461 51 461 c 2,17,-1
 128 461 l 2,18,19
 139 461 139 461 146.5 453.5 c 128,-1,20
 154 446 154 446 154 435 c 2,21,-1
 154 384 l 1,22,-1
 486 384 l 1,23,-1
 384 205 l 1,24,-1
 154 205 l 1,25,-1
 154 179 l 1,0,-1
141 102 m 256,26,27
 157 102 157 102 168 91 c 128,-1,28
 179 80 179 80 179 64 c 128,-1,29
 179 48 179 48 168 37 c 128,-1,30
 157 26 157 26 141 26 c 128,-1,31
 125 26 125 26 113.5 37 c 128,-1,32
 102 48 102 48 102 64 c 128,-1,33
 102 80 102 80 113.5 91 c 128,-1,34
 125 102 125 102 141 102 c 256,26,27
371 102 m 256,35,36
 387 102 387 102 398.5 91 c 128,-1,37
 410 80 410 80 410 64 c 128,-1,38
 410 48 410 48 398.5 37 c 128,-1,39
 387 26 387 26 371 26 c 128,-1,40
 355 26 355 26 344 37 c 128,-1,41
 333 48 333 48 333 64 c 128,-1,42
 333 80 333 80 344 91 c 128,-1,43
 355 102 355 102 371 102 c 256,35,36
EndSplineSet
EndChar

StartChar: feedback
Encoding: 79 61813 79
Width: 512
GlyphClass: 2
Flags: W
LayerCount: 2
Fore
SplineSet
51 461 m 2,0,-1
 461 461 l 2,1,2
 471 461 471 461 478.5 453.5 c 128,-1,3
 486 446 486 446 486 435 c 2,4,-1
 486 77 l 2,5,6
 486 66 486 66 478.5 58.5 c 128,-1,7
 471 51 471 51 461 51 c 2,8,-1
 51 51 l 2,9,10
 41 51 41 51 33.5 58.5 c 128,-1,11
 26 66 26 66 26 77 c 2,12,-1
 26 435 l 2,13,14
 26 446 26 446 33.5 453.5 c 128,-1,15
 41 461 41 461 51 461 c 2,0,-1
435 102 m 1,16,-1
 435 333 l 1,17,-1
 77 333 l 1,18,-1
 77 102 l 1,19,-1
 435 102 l 1,16,-1
102 307 m 1,20,-1
 102 282 l 1,21,-1
 179 282 l 1,22,-1
 179 307 l 1,23,-1
 102 307 l 1,20,-1
205 307 m 1,24,-1
 205 230 l 1,25,-1
 410 230 l 1,26,-1
 410 307 l 1,27,-1
 205 307 l 1,24,-1
102 205 m 1,28,-1
 102 179 l 1,29,-1
 179 179 l 1,30,-1
 179 205 l 1,31,-1
 102 205 l 1,28,-1
205 205 m 1,32,-1
 205 128 l 1,33,-1
 410 128 l 1,34,-1
 410 205 l 1,35,-1
 205 205 l 1,32,-1
EndSplineSet
EndChar

StartChar: cloud
Encoding: 80 61814 80
Width: 512
GlyphClass: 2
Flags: W
LayerCount: 2
Fore
SplineSet
381 282 m 0,0,1
 381 285 381 285 382.5 293.5 c 128,-1,2
 384 302 384 302 384 307 c 0,3,4
 384 349 384 349 354 379.5 c 128,-1,5
 324 410 324 410 282 410 c 0,6,7
 252 410 252 410 227.5 394.5 c 128,-1,8
 203 379 203 379 189 353 c 1,9,10
 179 358 179 358 166 358 c 0,11,12
 140 358 140 358 121 339.5 c 128,-1,13
 102 321 102 321 102 294 c 0,14,15
 102 284 102 284 105 282 c 1,16,17
 70 276 70 276 48 251 c 128,-1,18
 26 226 26 226 26 192 c 0,19,20
 26 156 26 156 52.5 129 c 128,-1,21
 79 102 79 102 115 102 c 2,22,-1
 371 102 l 2,23,24
 408 102 408 102 434.5 129 c 128,-1,25
 461 156 461 156 461 191.5 c 128,-1,26
 461 227 461 227 438.5 252.5 c 128,-1,27
 416 278 416 278 381 282 c 0,0,1
EndSplineSet
EndChar

StartChar: visibility
Encoding: 81 61815 81
Width: 512
GlyphClass: 2
Flags: W
LayerCount: 2
Fore
SplineSet
504 271 m 2,0,1
 466 337 466 337 399.5 374.5 c 128,-1,2
 333 412 333 412 256 412 c 128,-1,3
 179 412 179 412 112.5 374.5 c 128,-1,4
 46 337 46 337 8 271 c 2,5,-1
 0 256 l 1,6,-1
 8 241 l 2,7,8
 46 175 46 175 112.5 137.5 c 128,-1,9
 179 100 179 100 256 100 c 128,-1,10
 333 100 333 100 399.5 137.5 c 128,-1,11
 466 175 466 175 504 241 c 2,12,-1
 512 256 l 1,13,-1
 504 271 l 2,0,1
256 151 m 256,14,15
 197 151 197 151 144.5 179.5 c 128,-1,16
 92 208 92 208 59 256 c 1,17,18
 84 294 84 294 122 320 c 128,-1,19
 160 346 160 346 205 356 c 1,20,21
 187 344 187 344 176.5 324 c 128,-1,22
 166 304 166 304 166 282 c 0,23,24
 166 245 166 245 193 218.5 c 128,-1,25
 220 192 220 192 256 192 c 128,-1,26
 292 192 292 192 319 218.5 c 128,-1,27
 346 245 346 245 346 282 c 0,28,29
 346 304 346 304 335.5 324 c 128,-1,30
 325 344 325 344 307 356 c 1,31,32
 352 346 352 346 390 320 c 128,-1,33
 428 294 428 294 453 256 c 1,34,35
 420 208 420 208 367.5 179.5 c 128,-1,36
 315 151 315 151 256 151 c 256,14,15
EndSplineSet
EndChar

StartChar: vault
Encoding: 82 61816 82
Width: 512
GlyphClass: 2
Flags: W
LayerCount: 2
Fore
SplineSet
461 77 m 2,0,-1
 461 435 l 2,1,2
 461 446 461 446 453.5 453.5 c 128,-1,3
 446 461 446 461 435 461 c 2,4,-1
 77 461 l 2,5,6
 66 461 66 461 58.5 453.5 c 128,-1,7
 51 446 51 446 51 435 c 2,8,-1
 51 77 l 2,9,10
 51 66 51 66 58.5 58.5 c 128,-1,11
 66 51 66 51 77 51 c 2,12,-1
 435 51 l 2,13,14
 446 51 446 51 453.5 58.5 c 128,-1,15
 461 66 461 66 461 77 c 2,0,-1
435 77 m 1,16,-1
 77 77 l 1,17,-1
 77 435 l 1,18,-1
 435 435 l 1,19,-1
 435 77 l 1,16,-1
122 410 m 2,20,-1
 390 410 l 2,21,22
 398 410 398 410 404 404 c 128,-1,23
 410 398 410 398 410 390 c 2,24,-1
 410 358 l 1,25,-1
 384 358 l 1,26,-1
 384 282 l 1,27,-1
 410 282 l 1,28,-1
 410 230 l 1,29,-1
 384 230 l 1,30,-1
 384 154 l 1,31,-1
 410 154 l 1,32,-1
 410 122 l 2,33,34
 410 114 410 114 404 108 c 128,-1,35
 398 102 398 102 390 102 c 2,36,-1
 122 102 l 2,37,38
 114 102 114 102 108 108 c 128,-1,39
 102 114 102 114 102 122 c 2,40,-1
 102 390 l 2,41,42
 102 398 102 398 108 404 c 128,-1,43
 114 410 114 410 122 410 c 2,20,-1
333 256 m 256,44,45
 333 298 333 298 303 328 c 128,-1,46
 273 358 273 358 230.5 358 c 128,-1,47
 188 358 188 358 158 328 c 128,-1,48
 128 298 128 298 128 256 c 128,-1,49
 128 214 128 214 158 184 c 128,-1,50
 188 154 188 154 230.5 154 c 128,-1,51
 273 154 273 154 303 184 c 128,-1,52
 333 214 333 214 333 256 c 256,44,45
230 333 m 1,53,-1
 250 303 l 1,54,55
 264 297 264 297 273 284.5 c 128,-1,56
 282 272 282 272 282 256 c 0,57,58
 282 235 282 235 267 220 c 128,-1,59
 252 205 252 205 230.5 205 c 128,-1,60
 209 205 209 205 194 220 c 128,-1,61
 179 235 179 235 179 256 c 0,62,63
 179 272 179 272 188 284.5 c 128,-1,64
 197 297 197 297 211 303 c 1,65,-1
 230 333 l 1,53,-1
EndSplineSet
EndChar

StartChar: search
Encoding: 83 61817 83
Width: 512
GlyphClass: 2
Flags: W
LayerCount: 2
Fore
SplineSet
311 405 m 0,0,1
 346 369 346 369 351 319.5 c 128,-1,2
 356 270 356 270 329 229 c 1,3,-1
 338 221 l 2,4,5
 347 214 347 214 359 206 c 2,6,-1
 376 194 l 2,7,8
 392 182 392 182 400 174 c 0,9,10
 413 161 413 161 422 148 c 128,-1,11
 431 135 431 135 436.5 121 c 128,-1,12
 442 107 442 107 441.5 95 c 128,-1,13
 441 83 441 83 432.5 75 c 128,-1,14
 424 67 424 67 411.5 66 c 128,-1,15
 399 65 399 65 386 70.5 c 128,-1,16
 373 76 373 76 359.5 85.5 c 128,-1,17
 346 95 346 95 334 107 c 0,18,19
 325 116 325 116 314 131 c 2,20,-1
 288 168 l 2,21,22
 282 176 282 176 276 181 c 1,23,24
 236 160 236 160 190.5 166.5 c 128,-1,25
 145 173 145 173 112 206 c 0,26,27
 85 233 85 233 75.5 269.5 c 128,-1,28
 66 306 66 306 75.5 342 c 128,-1,29
 85 378 85 378 112 405 c 128,-1,30
 139 432 139 432 175 441.5 c 128,-1,31
 211 451 211 451 247.5 441.5 c 128,-1,32
 284 432 284 432 311 405 c 0,0,1
275 242 m 0,33,34
 301 268 301 268 301 305.5 c 128,-1,35
 301 343 301 343 274.5 369 c 128,-1,36
 248 395 248 395 211 395 c 128,-1,37
 174 395 174 395 148 369 c 128,-1,38
 122 343 122 343 122 305.5 c 128,-1,39
 122 268 122 268 148 242 c 128,-1,40
 174 216 174 216 211 216 c 128,-1,41
 248 216 248 216 275 242 c 0,33,34
EndSplineSet
EndChar

StartChar: screenoptions
Encoding: 84 61824 84
Width: 512
GlyphClass: 2
Flags: W
LayerCount: 2
Fore
SplineSet
230 282 m 1,0,-1
 230 435 l 1,1,-1
 77 435 l 1,2,-1
 77 282 l 1,3,-1
 230 282 l 1,0,-1
435 282 m 1,4,-1
 435 435 l 1,5,-1
 282 435 l 1,6,-1
 282 282 l 1,7,-1
 435 282 l 1,4,-1
230 77 m 1,8,-1
 230 230 l 1,9,-1
 77 230 l 1,10,-1
 77 77 l 1,11,-1
 230 77 l 1,8,-1
435 77 m 1,12,-1
 435 230 l 1,13,-1
 282 230 l 1,14,-1
 282 77 l 1,15,-1
 435 77 l 1,12,-1
EndSplineSet
EndChar

StartChar: slides
Encoding: 85 61825 85
Width: 512
GlyphClass: 2
Flags: W
LayerCount: 2
Fore
SplineSet
128 154 m 1,0,-1
 128 358 l 1,1,-1
 384 358 l 1,2,-1
 384 154 l 1,3,-1
 128 154 l 1,0,-1
51 179 m 1,4,-1
 51 333 l 1,5,-1
 102 333 l 1,6,-1
 102 179 l 1,7,-1
 51 179 l 1,4,-1
154 333 m 1,8,-1
 154 179 l 1,9,-1
 358 179 l 1,10,-1
 358 333 l 1,11,-1
 154 333 l 1,8,-1
410 333 m 1,12,-1
 461 333 l 1,13,-1
 461 179 l 1,14,-1
 410 179 l 1,15,-1
 410 333 l 1,12,-1
333 282 m 1,16,-1
 333 307 l 1,17,-1
 179 307 l 1,18,-1
 179 282 l 1,19,-1
 333 282 l 1,16,-1
333 205 m 1,20,-1
 333 256 l 1,21,-1
 179 256 l 1,22,-1
 179 205 l 1,23,-1
 333 205 l 1,20,-1
EndSplineSet
EndChar

StartChar: trash
Encoding: 86 61826 86
Width: 512
GlyphClass: 2
Flags: W
LayerCount: 2
Fore
SplineSet
307 410 m 1,0,-1
 384 410 l 2,1,2
 396 410 396 410 403 403 c 128,-1,3
 410 396 410 396 410 384 c 2,4,-1
 410 358 l 1,5,-1
 77 358 l 1,6,-1
 77 384 l 2,7,8
 77 395 77 395 84.5 402.5 c 128,-1,9
 92 410 92 410 102 410 c 2,10,-1
 179 410 l 1,11,12
 183 431 183 431 201.5 446 c 128,-1,13
 220 461 220 461 243 461 c 128,-1,14
 266 461 266 461 284.5 446 c 128,-1,15
 303 431 303 431 307 410 c 1,0,-1
205 410 m 1,16,-1
 282 410 l 1,17,18
 278 421 278 421 266.5 428 c 128,-1,19
 255 435 255 435 243 435 c 128,-1,20
 231 435 231 435 220 428 c 128,-1,21
 209 421 209 421 205 410 c 1,16,-1
102 333 m 1,22,-1
 384 333 l 1,23,-1
 361 74 l 2,24,25
 361 65 361 65 353 58 c 128,-1,26
 345 51 345 51 335 51 c 2,27,-1
 151 51 l 2,28,29
 142 51 142 51 134.5 57.5 c 128,-1,30
 127 64 127 64 125 74 c 2,31,-1
 102 333 l 1,22,-1
EndSplineSet
EndChar

StartChar: analytics
Encoding: 87 61827 87
Width: 512
GlyphClass: 2
Flags: W
LayerCount: 2
Fore
SplineSet
461 51 m 1,0,-1
 461 461 l 1,1,-1
 51 461 l 1,2,-1
 51 51 l 1,3,-1
 461 51 l 1,0,-1
410 384 m 1,4,-1
 102 384 l 1,5,-1
 102 410 l 1,6,-1
 410 410 l 1,7,-1
 410 384 l 1,4,-1
179 333 m 1,8,-1
 179 256 l 1,9,-1
 256 256 l 1,10,11
 256 224 256 224 233.5 201.5 c 128,-1,12
 211 179 211 179 179 179 c 128,-1,13
 147 179 147 179 124.5 201.5 c 128,-1,14
 102 224 102 224 102 256 c 128,-1,15
 102 288 102 288 124.5 310.5 c 128,-1,16
 147 333 147 333 179 333 c 1,8,-1
205 282 m 1,17,-1
 205 333 l 1,18,19
 226 333 226 333 241 318 c 128,-1,20
 256 303 256 303 256 282 c 1,21,-1
 205 282 l 1,17,-1
410 307 m 1,22,-1
 307 307 l 1,23,-1
 307 333 l 1,24,-1
 410 333 l 1,25,-1
 410 307 l 1,22,-1
410 230 m 1,26,-1
 307 230 l 1,27,-1
 307 282 l 1,28,-1
 410 282 l 1,29,-1
 410 230 l 1,26,-1
410 179 m 1,30,-1
 307 179 l 1,31,-1
 307 205 l 1,32,-1
 410 205 l 1,33,-1
 410 179 l 1,30,-1
410 102 m 1,34,-1
 102 102 l 1,35,-1
 102 128 l 1,36,-1
 410 128 l 1,37,-1
 410 102 l 1,34,-1
EndSplineSet
EndChar

StartChar: chart-pie
Encoding: 88 61828 88
Width: 512
GlyphClass: 2
Flags: W
LayerCount: 2
Fore
SplineSet
256 256 m 1,0,-1
 256 435 l 1,1,2
 305 435 305 435 346 411 c 128,-1,3
 387 387 387 387 411 346 c 128,-1,4
 435 305 435 305 435 256 c 1,5,-1
 256 256 l 1,0,-1
230 410 m 1,6,-1
 230 230 l 1,7,-1
 410 230 l 1,8,9
 410 182 410 182 385.5 140.5 c 128,-1,10
 361 99 361 99 320 75 c 128,-1,11
 279 51 279 51 230.5 51 c 128,-1,12
 182 51 182 51 140.5 75 c 128,-1,13
 99 99 99 99 75 140.5 c 128,-1,14
 51 182 51 182 51 230.5 c 128,-1,15
 51 279 51 279 75 320 c 128,-1,16
 99 361 99 361 140.5 385.5 c 128,-1,17
 182 410 182 410 230 410 c 1,6,-1
EndSplineSet
EndChar

StartChar: chart-bar
Encoding: 89 61829 89
Width: 512
GlyphClass: 2
Flags: W
LayerCount: 2
Fore
SplineSet
461 51 m 1,0,-1
 461 461 l 1,1,-1
 358 461 l 1,2,-1
 358 51 l 1,3,-1
 461 51 l 1,0,-1
307 51 m 1,4,-1
 307 333 l 1,5,-1
 205 333 l 1,6,-1
 205 51 l 1,7,-1
 307 51 l 1,4,-1
154 51 m 1,8,-1
 154 256 l 1,9,-1
 51 256 l 1,10,-1
 51 51 l 1,11,-1
 154 51 l 1,8,-1
EndSplineSet
EndChar

StartChar: editor-bold
Encoding: 90 61952 90
Width: 512
GlyphClass: 2
Flags: W
LayerCount: 2
Fore
SplineSet
154 410 m 1,0,-1
 154 77 l 1,1,-1
 270 77 l 2,2,3
 323 77 323 77 353.5 102.5 c 128,-1,4
 384 128 384 128 384 173 c 0,5,6
 384 206 384 206 371 225 c 128,-1,7
 358 244 358 244 328 251 c 1,8,-1
 328 253 l 1,9,10
 350 257 350 257 363 276.5 c 128,-1,11
 376 296 376 296 376 325 c 0,12,13
 376 369 376 369 346.5 389.5 c 128,-1,14
 317 410 317 410 250 410 c 2,15,-1
 154 410 l 1,0,-1
219 278 m 1,16,-1
 219 352 l 1,17,-1
 254 352 l 2,18,19
 282 352 282 352 295 343.5 c 128,-1,20
 308 335 308 335 308 315.5 c 128,-1,21
 308 296 308 296 296 287 c 128,-1,22
 284 278 284 278 258 278 c 2,23,-1
 219 278 l 1,16,-1
219 222 m 1,24,-1
 260 222 l 2,25,26
 316 222 316 222 316 180 c 0,27,28
 316 157 316 157 303 146 c 128,-1,29
 290 135 290 135 262 135 c 2,30,-1
 219 135 l 1,31,-1
 219 222 l 1,24,-1
EndSplineSet
EndChar

StartChar: editor-italic
Encoding: 91 61953 91
Width: 512
GlyphClass: 2
Flags: W
LayerCount: 2
Fore
SplineSet
378 358 m 1,0,-1
 324 358 l 1,1,-1
 252 128 l 1,2,-1
 306 128 l 1,3,-1
 291 77 l 1,4,-1
 118 77 l 1,5,-1
 134 128 l 1,6,-1
 188 128 l 1,7,-1
 260 358 l 1,8,-1
 206 358 l 1,9,-1
 221 410 l 1,10,-1
 394 410 l 1,11,-1
 378 358 l 1,0,-1
EndSplineSet
EndChar

StartChar: editor-ul
Encoding: 92 61955 92
Width: 512
GlyphClass: 2
Flags: W
LayerCount: 2
Fore
SplineSet
141 333 m 256,0,1
 125 333 125 333 113.5 344 c 128,-1,2
 102 355 102 355 102 371 c 128,-1,3
 102 387 102 387 113.5 398.5 c 128,-1,4
 125 410 125 410 141 410 c 128,-1,5
 157 410 157 410 168 398.5 c 128,-1,6
 179 387 179 387 179 371 c 128,-1,7
 179 355 179 355 168 344 c 128,-1,8
 157 333 157 333 141 333 c 256,0,1
205 384 m 1,9,-1
 435 384 l 1,10,-1
 435 358 l 1,11,-1
 205 358 l 1,12,-1
 205 384 l 1,9,-1
141 205 m 256,13,14
 125 205 125 205 113.5 216 c 128,-1,15
 102 227 102 227 102 243 c 128,-1,16
 102 259 102 259 113.5 270.5 c 128,-1,17
 125 282 125 282 141 282 c 128,-1,18
 157 282 157 282 168 270.5 c 128,-1,19
 179 259 179 259 179 243 c 128,-1,20
 179 227 179 227 168 216 c 128,-1,21
 157 205 157 205 141 205 c 256,13,14
205 256 m 1,22,-1
 435 256 l 1,23,-1
 435 230 l 1,24,-1
 205 230 l 1,25,-1
 205 256 l 1,22,-1
141 77 m 256,26,27
 125 77 125 77 113.5 88 c 128,-1,28
 102 99 102 99 102 115 c 128,-1,29
 102 131 102 131 113.5 142.5 c 128,-1,30
 125 154 125 154 141 154 c 128,-1,31
 157 154 157 154 168 142.5 c 128,-1,32
 179 131 179 131 179 115 c 128,-1,33
 179 99 179 99 168 88 c 128,-1,34
 157 77 157 77 141 77 c 256,26,27
205 128 m 1,35,-1
 435 128 l 1,36,-1
 435 102 l 1,37,-1
 205 102 l 1,38,-1
 205 128 l 1,35,-1
EndSplineSet
EndChar

StartChar: editor-ol
Encoding: 93 61956 93
Width: 512
GlyphClass: 2
Flags: W
LayerCount: 2
Fore
SplineSet
154 333 m 1,0,-1
 154 435 l 1,1,-1
 136 435 l 1,2,-1
 103 409 l 1,3,-1
 113 396 l 1,4,-1
 125 405 l 1,5,-1
 133 412 l 1,6,-1
 132 402 l 1,7,-1
 132 333 l 1,8,-1
 154 333 l 1,0,-1
205 384 m 1,9,-1
 435 384 l 1,10,-1
 435 358 l 1,11,-1
 205 358 l 1,12,-1
 205 384 l 1,9,-1
173 206 m 1,13,-1
 173 224 l 1,14,-1
 129 224 l 1,15,-1
 129 225 l 1,16,-1
 142 237 l 2,17,18
 157 251 157 251 160 255 c 0,19,20
 166 262 166 262 168 268 c 128,-1,21
 170 274 170 274 170 281.5 c 128,-1,22
 170 289 170 289 166.5 295 c 128,-1,23
 163 301 163 301 155.5 304.5 c 128,-1,24
 148 308 148 308 139.5 308 c 128,-1,25
 131 308 131 308 126 307 c 128,-1,26
 121 306 121 306 115 303 c 128,-1,27
 109 300 109 300 102 294 c 1,28,-1
 114 280 l 1,29,30
 120 285 120 285 125.5 288 c 128,-1,31
 131 291 131 291 137 291 c 128,-1,32
 143 291 143 291 146 288 c 128,-1,33
 149 285 149 285 149 279 c 0,34,35
 149 275 149 275 147.5 271 c 128,-1,36
 146 267 146 267 143 262 c 2,37,-1
 128 247 l 1,38,-1
 103 221 l 1,39,-1
 103 206 l 1,40,-1
 173 206 l 1,13,-1
205 256 m 1,41,-1
 435 256 l 1,42,-1
 435 230 l 1,43,-1
 205 230 l 1,44,-1
 205 256 l 1,41,-1
172 155 m 0,45,46
 172 167 172 167 162.5 173.5 c 128,-1,47
 153 180 153 180 137 180 c 0,48,49
 117 180 117 180 103 169 c 1,50,-1
 113 154 l 1,51,52
 120 159 120 159 125 160.5 c 128,-1,53
 130 162 130 162 135 162 c 0,54,55
 150 162 150 162 150 150 c 0,56,57
 150 142 150 142 144.5 139 c 128,-1,58
 139 136 139 136 126 136 c 2,59,-1
 119 136 l 1,60,-1
 119 119 l 1,61,-1
 126 119 l 2,62,63
 140 119 140 119 146 116 c 128,-1,64
 152 113 152 113 152 105 c 128,-1,65
 152 97 152 97 146.5 93.5 c 128,-1,66
 141 90 141 90 130 90 c 0,67,68
 123 90 123 90 116 91.5 c 128,-1,69
 109 93 109 93 102 97 c 1,70,-1
 102 78 l 1,71,72
 115 72 115 72 133 72 c 0,73,74
 153 72 153 72 164 80.5 c 128,-1,75
 175 89 175 89 175 104 c 0,76,77
 175 114 175 114 168.5 120.5 c 128,-1,78
 162 127 162 127 149 128 c 1,79,-1
 149 129 l 1,80,81
 159 131 159 131 165.5 138 c 128,-1,82
 172 145 172 145 172 155 c 0,45,46
205 128 m 1,83,-1
 435 128 l 1,84,-1
 435 102 l 1,85,-1
 205 102 l 1,86,-1
 205 128 l 1,83,-1
EndSplineSet
EndChar

StartChar: editor-quote
Encoding: 94 61957 94
Width: 512
GlyphClass: 2
Flags: W
LayerCount: 2
Fore
SplineSet
243 174 m 0,0,1
 243 202 243 202 227 222 c 0,2,3
 216 236 216 236 196 240 c 0,4,5
 178 244 178 244 163 241 c 1,6,7
 157 272 157 272 179.5 307 c 128,-1,8
 202 342 202 342 237 360 c 1,9,-1
 202 410 l 1,10,11
 143 382 143 382 108 330 c 0,12,13
 67 271 67 271 75 204 c 0,14,15
 80 157 80 157 105 129.5 c 128,-1,16
 130 102 130 102 167 102 c 0,17,18
 200 102 200 102 221.5 121.5 c 128,-1,19
 243 141 243 141 243 174 c 0,0,1
449 174 m 0,20,21
 449 202 449 202 433 222 c 0,22,23
 422 236 422 236 402 240 c 0,24,25
 384 244 384 244 369 241 c 1,26,27
 363 272 363 272 385.5 307 c 128,-1,28
 408 342 408 342 443 360 c 1,29,-1
 408 410 l 1,30,31
 349 382 349 382 314 330 c 0,32,33
 273 271 273 271 281 204 c 0,34,35
 287 157 287 157 311.5 129.5 c 128,-1,36
 336 102 336 102 374 102 c 0,37,38
 406 102 406 102 427.5 121.5 c 128,-1,39
 449 141 449 141 449 174 c 0,20,21
EndSplineSet
EndChar

StartChar: editor-alignleft
Encoding: 95 61958 95
Width: 512
GlyphClass: 2
Flags: W
LayerCount: 2
Fore
SplineSet
307 384 m 1,0,-1
 307 435 l 1,1,-1
 77 435 l 1,2,-1
 77 384 l 1,3,-1
 307 384 l 1,0,-1
435 282 m 1,4,-1
 435 333 l 1,5,-1
 77 333 l 1,6,-1
 77 282 l 1,7,-1
 435 282 l 1,4,-1
307 179 m 1,8,-1
 307 230 l 1,9,-1
 77 230 l 1,10,-1
 77 179 l 1,11,-1
 307 179 l 1,8,-1
435 77 m 1,12,-1
 435 128 l 1,13,-1
 77 128 l 1,14,-1
 77 77 l 1,15,-1
 435 77 l 1,12,-1
EndSplineSet
EndChar

StartChar: editor-aligncenter
Encoding: 96 61959 96
Width: 512
GlyphClass: 2
Flags: W
LayerCount: 2
Fore
SplineSet
358 384 m 1,0,-1
 358 435 l 1,1,-1
 154 435 l 1,2,-1
 154 384 l 1,3,-1
 358 384 l 1,0,-1
435 282 m 1,4,-1
 435 333 l 1,5,-1
 77 333 l 1,6,-1
 77 282 l 1,7,-1
 435 282 l 1,4,-1
358 179 m 1,8,-1
 358 230 l 1,9,-1
 154 230 l 1,10,-1
 154 179 l 1,11,-1
 358 179 l 1,8,-1
435 77 m 1,12,-1
 435 128 l 1,13,-1
 77 128 l 1,14,-1
 77 77 l 1,15,-1
 435 77 l 1,12,-1
EndSplineSet
EndChar

StartChar: editor-alignright
Encoding: 97 61960 97
Width: 512
GlyphClass: 2
Flags: W
LayerCount: 2
Fore
SplineSet
435 384 m 1,0,-1
 435 435 l 1,1,-1
 205 435 l 1,2,-1
 205 384 l 1,3,-1
 435 384 l 1,0,-1
435 282 m 1,4,-1
 435 333 l 1,5,-1
 77 333 l 1,6,-1
 77 282 l 1,7,-1
 435 282 l 1,4,-1
435 179 m 1,8,-1
 435 230 l 1,9,-1
 205 230 l 1,10,-1
 205 179 l 1,11,-1
 435 179 l 1,8,-1
435 77 m 1,12,-1
 435 128 l 1,13,-1
 77 128 l 1,14,-1
 77 77 l 1,15,-1
 435 77 l 1,12,-1
EndSplineSet
EndChar

StartChar: editor-insertmore
Encoding: 98 61961 98
Width: 512
GlyphClass: 2
Flags: W
LayerCount: 2
Fore
SplineSet
435 333 m 1,0,-1
 435 435 l 1,1,-1
 77 435 l 1,2,-1
 77 333 l 1,3,-1
 435 333 l 1,0,-1
154 230 m 1,4,-1
 154 282 l 1,5,-1
 77 282 l 1,6,-1
 77 230 l 1,7,-1
 154 230 l 1,4,-1
307 230 m 1,8,-1
 307 282 l 1,9,-1
 205 282 l 1,10,-1
 205 230 l 1,11,-1
 307 230 l 1,8,-1
435 230 m 1,12,-1
 435 282 l 1,13,-1
 358 282 l 1,14,-1
 358 230 l 1,15,-1
 435 230 l 1,12,-1
435 77 m 1,16,-1
 435 179 l 1,17,-1
 77 179 l 1,18,-1
 77 77 l 1,19,-1
 435 77 l 1,16,-1
EndSplineSet
EndChar

StartChar: editor-spellcheck
Encoding: 99 61968 99
Width: 512
GlyphClass: 2
Flags: W
LayerCount: 2
Fore
SplineSet
406 441 m 0,0,1
 415 441 415 441 424 439 c 0,2,3
 430 436 430 436 440 432 c 1,4,-1
 449 453 l 1,5,6
 429 463 429 463 406.5 463 c 128,-1,7
 384 463 384 463 367 453.5 c 128,-1,8
 350 444 350 444 341.5 426 c 128,-1,9
 333 408 333 408 333 384 c 0,10,11
 333 346 333 346 351 325.5 c 128,-1,12
 369 305 369 305 402 305 c 0,13,14
 425 305 425 305 443 312 c 1,15,-1
 443 334 l 1,16,17
 435 331 435 331 425 329 c 128,-1,18
 415 327 415 327 406 327 c 0,19,20
 383 327 383 327 371 341 c 128,-1,21
 359 355 359 355 359 383 c 128,-1,22
 359 411 359 411 371.5 426 c 128,-1,23
 384 441 384 441 406 441 c 0,0,1
166 307 m 1,24,-1
 193 307 l 1,25,-1
 136 461 l 1,26,-1
 109 461 l 1,27,-1
 51 307 l 1,28,-1
 78 307 l 1,29,-1
 92 350 l 1,30,-1
 151 350 l 1,31,-1
 166 307 l 1,24,-1
205 461 m 1,32,-1
 205 307 l 1,33,-1
 260 307 l 2,34,35
 286 307 286 307 300.5 318.5 c 128,-1,36
 315 330 315 330 315 351 c 0,37,38
 315 367 315 367 307.5 375.5 c 128,-1,39
 300 384 300 384 283 388 c 1,40,-1
 283 389 l 1,41,42
 296 391 296 391 303.5 400 c 128,-1,43
 311 409 311 409 311 422 c 0,44,45
 311 442 311 442 296.5 451.5 c 128,-1,46
 282 461 282 461 250 461 c 2,47,-1
 205 461 l 1,32,-1
230 397 m 1,48,-1
 230 440 l 1,49,-1
 252 440 l 2,50,51
 269 440 269 440 276.5 435 c 128,-1,52
 284 430 284 430 284 419 c 128,-1,53
 284 408 284 408 277 402.5 c 128,-1,54
 270 397 270 397 254 397 c 2,55,-1
 230 397 l 1,48,-1
144 371 m 1,56,-1
 100 371 l 1,57,-1
 114 411 l 2,58,59
 119 428 119 428 122 439 c 1,60,-1
 130 413 l 1,61,-1
 144 371 l 1,56,-1
230 377 m 1,62,-1
 255 377 l 2,63,64
 272 377 272 377 280.5 371 c 128,-1,65
 289 365 289 365 289 353 c 128,-1,66
 289 341 289 341 280.5 334.5 c 128,-1,67
 272 328 272 328 257 328 c 2,68,-1
 230 328 l 1,69,-1
 230 377 l 1,62,-1
102 179 m 1,70,-1
 230 51 l 1,71,-1
 461 256 l 1,72,-1
 435 282 l 1,73,-1
 230 128 l 1,74,-1
 128 205 l 1,75,-1
 102 179 l 1,70,-1
EndSplineSet
EndChar

StartChar: editor-expand
Encoding: 100 61969 100
Width: 512
GlyphClass: 2
Flags: W
LayerCount: 2
Fore
SplineSet
179 307 m 1,0,-1
 333 307 l 1,1,-1
 333 205 l 1,2,-1
 179 205 l 1,3,-1
 179 307 l 1,0,-1
51 179 m 1,4,-1
 51 77 l 1,5,-1
 154 77 l 1,6,-1
 123 108 l 1,7,-1
 179 205 l 1,8,-1
 82 148 l 1,9,-1
 51 179 l 1,4,-1
358 77 m 1,10,-1
 461 77 l 1,11,-1
 461 179 l 1,12,-1
 430 148 l 1,13,-1
 333 205 l 1,14,-1
 389 108 l 1,15,-1
 358 77 l 1,10,-1
358 435 m 1,16,-1
 392 402 l 1,17,-1
 333 307 l 1,18,-1
 430 364 l 1,19,-1
 461 333 l 1,20,-1
 461 435 l 1,21,-1
 358 435 l 1,16,-1
154 435 m 1,22,-1
 51 435 l 1,23,-1
 51 333 l 1,24,-1
 82 364 l 1,25,-1
 179 307 l 1,26,-1
 120 402 l 1,27,-1
 154 435 l 1,22,-1
EndSplineSet
EndChar

StartChar: editor-kitchensink
Encoding: 101 61970 101
Width: 512
GlyphClass: 2
Flags: W
LayerCount: 2
Fore
SplineSet
486 461 m 1,0,-1
 486 307 l 1,1,-1
 26 307 l 1,2,-1
 26 461 l 1,3,-1
 486 461 l 1,0,-1
461 333 m 1,4,-1
 461 435 l 1,5,-1
 51 435 l 1,6,-1
 51 333 l 1,7,-1
 461 333 l 1,4,-1
128 410 m 1,8,-1
 128 358 l 1,9,-1
 77 358 l 1,10,-1
 77 410 l 1,11,-1
 128 410 l 1,8,-1
205 410 m 1,12,-1
 205 358 l 1,13,-1
 154 358 l 1,14,-1
 154 410 l 1,15,-1
 205 410 l 1,12,-1
282 410 m 1,16,-1
 282 358 l 1,17,-1
 230 358 l 1,18,-1
 230 410 l 1,19,-1
 282 410 l 1,16,-1
358 410 m 1,20,-1
 358 358 l 1,21,-1
 307 358 l 1,22,-1
 307 410 l 1,23,-1
 358 410 l 1,20,-1
435 410 m 1,24,-1
 435 358 l 1,25,-1
 384 358 l 1,26,-1
 384 410 l 1,27,-1
 435 410 l 1,24,-1
486 282 m 1,28,-1
 486 51 l 1,29,-1
 26 51 l 1,30,-1
 26 282 l 1,31,-1
 486 282 l 1,28,-1
461 77 m 1,32,-1
 461 256 l 1,33,-1
 51 256 l 1,34,-1
 51 77 l 1,35,-1
 461 77 l 1,32,-1
128 230 m 1,36,-1
 128 179 l 1,37,-1
 77 179 l 1,38,-1
 77 230 l 1,39,-1
 128 230 l 1,36,-1
205 230 m 1,40,-1
 205 179 l 1,41,-1
 154 179 l 1,42,-1
 154 230 l 1,43,-1
 205 230 l 1,40,-1
282 230 m 1,44,-1
 282 179 l 1,45,-1
 230 179 l 1,46,-1
 230 230 l 1,47,-1
 282 230 l 1,44,-1
435 230 m 1,48,-1
 435 179 l 1,49,-1
 307 179 l 1,50,-1
 307 230 l 1,51,-1
 435 230 l 1,48,-1
282 154 m 1,52,-1
 282 102 l 1,53,-1
 77 102 l 1,54,-1
 77 154 l 1,55,-1
 282 154 l 1,52,-1
358 154 m 1,56,-1
 358 102 l 1,57,-1
 307 102 l 1,58,-1
 307 154 l 1,59,-1
 358 154 l 1,56,-1
435 154 m 1,60,-1
 435 102 l 1,61,-1
 384 102 l 1,62,-1
 384 154 l 1,63,-1
 435 154 l 1,60,-1
EndSplineSet
EndChar

StartChar: editor-underline
Encoding: 102 61971 102
Width: 512
GlyphClass: 2
Flags: W
LayerCount: 2
Fore
SplineSet
358 384 m 1,0,-1
 307 384 l 1,1,-1
 307 238 l 2,2,3
 307 201 307 201 289 181.5 c 128,-1,4
 271 162 271 162 244 162 c 128,-1,5
 217 162 217 162 199 181 c 0,6,7
 179 202 179 202 179 237 c 2,8,-1
 179 384 l 1,9,-1
 128 384 l 1,10,-1
 128 234 l 2,11,12
 128 189 128 189 152 157 c 0,13,14
 182 118 182 118 242.5 118 c 128,-1,15
 303 118 303 118 334 157 c 0,16,17
 358 188 358 188 358 233 c 2,18,-1
 358 384 l 1,0,-1
358 51 m 1,19,-1
 358 102 l 1,20,-1
 128 102 l 1,21,-1
 128 51 l 1,22,-1
 358 51 l 1,19,-1
EndSplineSet
EndChar

StartChar: editor-justify
Encoding: 103 61972 103
Width: 512
GlyphClass: 2
Flags: W
LayerCount: 2
Fore
SplineSet
51 435 m 1,0,-1
 461 435 l 1,1,-1
 461 384 l 1,2,-1
 51 384 l 1,3,-1
 51 435 l 1,0,-1
51 333 m 1,4,-1
 461 333 l 1,5,-1
 461 282 l 1,6,-1
 51 282 l 1,7,-1
 51 333 l 1,4,-1
51 230 m 1,8,-1
 461 230 l 1,9,-1
 461 179 l 1,10,-1
 51 179 l 1,11,-1
 51 230 l 1,8,-1
51 128 m 1,12,-1
 461 128 l 1,13,-1
 461 77 l 1,14,-1
 51 77 l 1,15,-1
 51 128 l 1,12,-1
EndSplineSet
EndChar

StartChar: editor-textcolor
Encoding: 104 61973 104
Width: 512
GlyphClass: 2
Flags: W
LayerCount: 2
Fore
SplineSet
339 128 m 1,0,-1
 387 128 l 1,1,-1
 282 410 l 1,2,-1
 230 410 l 1,3,-1
 128 128 l 1,4,-1
 176 128 l 1,5,-1
 204 205 l 1,6,-1
 311 205 l 1,7,-1
 339 128 l 1,0,-1
300 244 m 1,8,-1
 218 244 l 1,9,-1
 256 369 l 1,10,-1
 300 244 l 1,8,-1
EndSplineSet
EndChar

StartChar: editor-paste-word
Encoding: 105 61974 105
Width: 512
GlyphClass: 2
Flags: W
LayerCount: 2
Fore
SplineSet
317 461 m 1,0,-1
 384 384 l 1,1,-1
 384 358 l 1,2,-1
 128 358 l 1,3,-1
 128 384 l 1,4,-1
 196 461 l 1,5,-1
 317 461 l 1,0,-1
256 384 m 256,6,7
 267 384 267 384 274.5 391.5 c 128,-1,8
 282 399 282 399 282 409.5 c 128,-1,9
 282 420 282 420 274.5 427.5 c 128,-1,10
 267 435 267 435 256 435 c 128,-1,11
 245 435 245 435 237.5 427.5 c 128,-1,12
 230 420 230 420 230 409.5 c 128,-1,13
 230 399 230 399 237.5 391.5 c 128,-1,14
 245 384 245 384 256 384 c 256,6,7
461 77 m 2,15,-1
 461 384 l 2,16,17
 461 395 461 395 453.5 402.5 c 128,-1,18
 446 410 446 410 435 410 c 2,19,-1
 396 410 l 1,20,-1
 410 393 l 1,21,-1
 410 333 l 1,22,-1
 102 333 l 1,23,-1
 102 394 l 1,24,-1
 116 410 l 1,25,-1
 77 410 l 2,26,27
 66 410 66 410 58.5 402.5 c 128,-1,28
 51 395 51 395 51 384 c 2,29,-1
 51 77 l 2,30,31
 51 66 51 66 58.5 58.5 c 128,-1,32
 66 51 66 51 77 51 c 2,33,-1
 435 51 l 2,34,35
 446 51 446 51 453.5 58.5 c 128,-1,36
 461 66 461 66 461 77 c 2,15,-1
384 282 m 1,37,-1
 333 102 l 1,38,-1
 282 102 l 1,39,-1
 256 230 l 1,40,-1
 230 102 l 1,41,-1
 177 102 l 1,42,-1
 128 282 l 1,43,-1
 179 282 l 1,44,-1
 205 154 l 1,45,-1
 230 282 l 1,46,-1
 282 282 l 1,47,-1
 307 154 l 1,48,-1
 333 282 l 1,49,-1
 384 282 l 1,37,-1
EndSplineSet
EndChar

StartChar: editor-paste-text
Encoding: 106 61975 106
Width: 512
GlyphClass: 2
Flags: W
LayerCount: 2
Fore
SplineSet
317 461 m 1,0,-1
 384 384 l 1,1,-1
 384 358 l 1,2,-1
 128 358 l 1,3,-1
 128 384 l 1,4,-1
 196 461 l 1,5,-1
 317 461 l 1,0,-1
256 384 m 256,6,7
 267 384 267 384 274.5 391.5 c 128,-1,8
 282 399 282 399 282 409.5 c 128,-1,9
 282 420 282 420 274.5 427.5 c 128,-1,10
 267 435 267 435 256 435 c 128,-1,11
 245 435 245 435 237.5 427.5 c 128,-1,12
 230 420 230 420 230 409.5 c 128,-1,13
 230 399 230 399 237.5 391.5 c 128,-1,14
 245 384 245 384 256 384 c 256,6,7
396 410 m 1,15,-1
 435 410 l 2,16,17
 446 410 446 410 453.5 402.5 c 128,-1,18
 461 395 461 395 461 384 c 2,19,-1
 461 77 l 2,20,21
 461 66 461 66 453.5 58.5 c 128,-1,22
 446 51 446 51 435 51 c 2,23,-1
 77 51 l 2,24,25
 66 51 66 51 58.5 58.5 c 128,-1,26
 51 66 51 66 51 77 c 2,27,-1
 51 384 l 2,28,29
 51 395 51 395 58.5 402.5 c 128,-1,30
 66 410 66 410 77 410 c 2,31,-1
 116 410 l 1,32,-1
 102 393 l 1,33,-1
 102 333 l 1,34,-1
 410 333 l 1,35,-1
 410 393 l 1,36,-1
 396 410 l 1,15,-1
358 230 m 1,37,-1
 358 282 l 1,38,-1
 154 282 l 1,39,-1
 154 230 l 1,40,-1
 230 230 l 1,41,-1
 230 102 l 1,42,-1
 282 102 l 1,43,-1
 282 230 l 1,44,-1
 358 230 l 1,37,-1
EndSplineSet
EndChar

StartChar: editor-removeformatting
Encoding: 107 61976 107
Width: 512
GlyphClass: 2
Flags: W
LayerCount: 2
Fore
SplineSet
366 394 m 1,0,-1
 394 366 l 2,1,2
 410 351 410 351 410 328 c 2,3,-1
 410 274 l 2,4,5
 410 252 410 252 394 237 c 2,6,-1
 224 67 l 2,7,8
 209 51 209 51 186.5 51 c 128,-1,9
 164 51 164 51 149 67 c 2,10,-1
 92 123 l 2,11,12
 77 139 77 139 77 161 c 2,13,-1
 77 215 l 2,14,15
 77 238 77 238 92 253 c 2,16,-1
 262 423 l 2,17,18
 277 438 277 438 299.5 438 c 128,-1,19
 322 438 322 438 337 423 c 2,20,-1
 366 394 l 1,0,-1
207 146 m 2,21,-1
 371 311 l 2,22,23
 379 318 379 318 379 328.5 c 128,-1,24
 379 339 379 339 371 347 c 2,25,-1
 316 402 l 2,26,27
 309 409 309 409 298 409 c 128,-1,28
 287 409 287 409 280 402 c 2,29,-1
 115 238 l 2,30,31
 108 230 108 230 108 219 c 128,-1,32
 108 208 108 208 115 201 c 2,33,-1
 170 146 l 2,34,35
 178 139 178 139 188.5 139 c 128,-1,36
 199 139 199 139 207 146 c 2,21,-1
EndSplineSet
EndChar

StartChar: editor-video
Encoding: 108 61977 108
Width: 512
GlyphClass: 2
Flags: W
LayerCount: 2
Fore
SplineSet
410 461 m 1,0,-1
 333 461 l 1,1,-1
 333 435 l 1,2,-1
 179 435 l 1,3,-1
 179 461 l 1,4,-1
 102 461 l 1,5,-1
 102 77 l 1,6,-1
 179 77 l 1,7,-1
 179 102 l 1,8,-1
 333 102 l 1,9,-1
 333 77 l 1,10,-1
 410 77 l 1,11,-1
 410 461 l 1,0,-1
154 435 m 1,12,-1
 154 410 l 1,13,-1
 128 410 l 1,14,-1
 128 435 l 1,15,-1
 154 435 l 1,12,-1
384 435 m 1,16,-1
 384 410 l 1,17,-1
 358 410 l 1,18,-1
 358 435 l 1,19,-1
 384 435 l 1,16,-1
333 410 m 1,20,-1
 333 282 l 1,21,-1
 179 282 l 1,22,-1
 179 410 l 1,23,-1
 333 410 l 1,20,-1
154 384 m 1,24,-1
 154 358 l 1,25,-1
 128 358 l 1,26,-1
 128 384 l 1,27,-1
 154 384 l 1,24,-1
384 384 m 1,28,-1
 384 358 l 1,29,-1
 358 358 l 1,30,-1
 358 384 l 1,31,-1
 384 384 l 1,28,-1
154 333 m 1,32,-1
 154 307 l 1,33,-1
 128 307 l 1,34,-1
 128 333 l 1,35,-1
 154 333 l 1,32,-1
384 333 m 1,36,-1
 384 307 l 1,37,-1
 358 307 l 1,38,-1
 358 333 l 1,39,-1
 384 333 l 1,36,-1
154 282 m 1,40,-1
 154 256 l 1,41,-1
 128 256 l 1,42,-1
 128 282 l 1,43,-1
 154 282 l 1,40,-1
384 282 m 1,44,-1
 384 256 l 1,45,-1
 358 256 l 1,46,-1
 358 282 l 1,47,-1
 384 282 l 1,44,-1
333 256 m 1,48,-1
 333 128 l 1,49,-1
 179 128 l 1,50,-1
 179 256 l 1,51,-1
 333 256 l 1,48,-1
154 230 m 1,52,-1
 154 205 l 1,53,-1
 128 205 l 1,54,-1
 128 230 l 1,55,-1
 154 230 l 1,52,-1
384 230 m 1,56,-1
 384 205 l 1,57,-1
 358 205 l 1,58,-1
 358 230 l 1,59,-1
 384 230 l 1,56,-1
154 179 m 1,60,-1
 154 154 l 1,61,-1
 128 154 l 1,62,-1
 128 179 l 1,63,-1
 154 179 l 1,60,-1
384 179 m 1,64,-1
 384 154 l 1,65,-1
 358 154 l 1,66,-1
 358 179 l 1,67,-1
 384 179 l 1,64,-1
154 128 m 1,68,-1
 154 102 l 1,69,-1
 128 102 l 1,70,-1
 128 128 l 1,71,-1
 154 128 l 1,68,-1
384 128 m 1,72,-1
 384 102 l 1,73,-1
 358 102 l 1,74,-1
 358 128 l 1,75,-1
 384 128 l 1,72,-1
EndSplineSet
EndChar

StartChar: editor-customchar
Encoding: 109 61984 109
Width: 512
GlyphClass: 2
Flags: W
LayerCount: 2
Fore
SplineSet
256 374 m 256,0,1
 305 374 305 374 330.5 346.5 c 128,-1,2
 356 319 356 319 356 266 c 0,3,4
 356 217 356 217 338 182 c 0,5,6
 324 155 324 155 282 128 c 1,7,-1
 282 77 l 1,8,-1
 435 77 l 1,9,-1
 435 128 l 1,10,-1
 341 128 l 1,11,12
 378 154 378 154 395 188 c 0,13,14
 414 227 414 227 414 274 c 0,15,16
 414 342 414 342 371.5 381.5 c 128,-1,17
 329 421 329 421 255.5 421 c 128,-1,18
 182 421 182 421 140 381 c 128,-1,19
 98 341 98 341 98 274 c 0,20,21
 98 227 98 227 117 188 c 0,22,23
 133 155 133 155 170 128 c 1,24,-1
 77 128 l 1,25,-1
 77 77 l 1,26,-1
 230 77 l 1,27,-1
 230 128 l 1,28,29
 209 142 209 142 197 153 c 0,30,31
 181 168 181 168 173 184 c 0,32,33
 156 217 156 217 156 266 c 0,34,35
 156 319 156 319 181.5 346.5 c 128,-1,36
 207 374 207 374 256 374 c 256,0,1
EndSplineSet
EndChar

StartChar: editor-outdent
Encoding: 110 61985 110
Width: 512
GlyphClass: 2
Flags: W
LayerCount: 2
Fore
SplineSet
179 410 m 1,0,-1
 179 435 l 1,1,-1
 77 435 l 1,2,-1
 77 410 l 1,3,-1
 179 410 l 1,0,-1
435 384 m 1,4,-1
 435 435 l 1,5,-1
 205 435 l 1,6,-1
 205 384 l 1,7,-1
 435 384 l 1,4,-1
179 333 m 1,8,-1
 128 333 l 1,9,-1
 128 384 l 1,10,-1
 26 294 l 1,11,-1
 128 205 l 1,12,-1
 128 256 l 1,13,-1
 179 256 l 1,14,-1
 179 333 l 1,8,-1
435 307 m 1,15,-1
 435 358 l 1,16,-1
 205 358 l 1,17,-1
 205 307 l 1,18,-1
 435 307 l 1,15,-1
384 230 m 1,19,-1
 384 282 l 1,20,-1
 205 282 l 1,21,-1
 205 230 l 1,22,-1
 384 230 l 1,19,-1
435 154 m 1,23,-1
 435 205 l 1,24,-1
 205 205 l 1,25,-1
 205 154 l 1,26,-1
 435 154 l 1,23,-1
179 154 m 1,27,-1
 179 179 l 1,28,-1
 77 179 l 1,29,-1
 77 154 l 1,30,-1
 179 154 l 1,27,-1
282 77 m 1,31,-1
 282 128 l 1,32,-1
 205 128 l 1,33,-1
 205 77 l 1,34,-1
 282 77 l 1,31,-1
EndSplineSet
EndChar

StartChar: editor-indent
Encoding: 111 61986 111
Width: 512
GlyphClass: 2
Flags: W
LayerCount: 2
Fore
SplineSet
77 384 m 1,0,-1
 77 435 l 1,1,-1
 307 435 l 1,2,-1
 307 384 l 1,3,-1
 77 384 l 1,0,-1
333 410 m 1,4,-1
 333 435 l 1,5,-1
 435 435 l 1,6,-1
 435 410 l 1,7,-1
 333 410 l 1,4,-1
333 333 m 1,8,-1
 384 333 l 1,9,-1
 384 384 l 1,10,-1
 486 294 l 1,11,-1
 384 205 l 1,12,-1
 384 256 l 1,13,-1
 333 256 l 1,14,-1
 333 333 l 1,8,-1
77 307 m 1,15,-1
 77 358 l 1,16,-1
 307 358 l 1,17,-1
 307 307 l 1,18,-1
 77 307 l 1,15,-1
128 230 m 1,19,-1
 128 282 l 1,20,-1
 307 282 l 1,21,-1
 307 230 l 1,22,-1
 128 230 l 1,19,-1
77 154 m 1,23,-1
 77 205 l 1,24,-1
 307 205 l 1,25,-1
 307 154 l 1,26,-1
 77 154 l 1,23,-1
333 154 m 1,27,-1
 333 179 l 1,28,-1
 435 179 l 1,29,-1
 435 154 l 1,30,-1
 333 154 l 1,27,-1
230 77 m 1,31,-1
 230 128 l 1,32,-1
 307 128 l 1,33,-1
 307 77 l 1,34,-1
 230 77 l 1,31,-1
EndSplineSet
EndChar

StartChar: editor-help
Encoding: 112 61987 112
Width: 512
GlyphClass: 2
Flags: W
LayerCount: 2
Fore
SplineSet
435 256 m 256,0,1
 435 305 435 305 411 346 c 128,-1,2
 387 387 387 387 346 411 c 128,-1,3
 305 435 305 435 256 435 c 128,-1,4
 207 435 207 435 166 411 c 128,-1,5
 125 387 125 387 101 346 c 128,-1,6
 77 305 77 305 77 256 c 128,-1,7
 77 207 77 207 101 166 c 128,-1,8
 125 125 125 125 166 101 c 128,-1,9
 207 77 207 77 256 77 c 128,-1,10
 305 77 305 77 346 101 c 128,-1,11
 387 125 387 125 411 166 c 128,-1,12
 435 207 435 207 435 256 c 256,0,1
274 218 m 1,13,-1
 234 218 l 1,14,-1
 234 229 l 2,15,16
 234 243 234 243 240 253.5 c 128,-1,17
 246 264 246 264 263 277 c 0,18,19
 278 288 278 288 283.5 295 c 128,-1,20
 289 302 289 302 289 311.5 c 128,-1,21
 289 321 289 321 281.5 326 c 128,-1,22
 274 331 274 331 261 331 c 0,23,24
 239 331 239 331 210 316 c 1,25,-1
 194 349 l 1,26,27
 227 368 227 368 264 368 c 0,28,29
 295 368 295 368 313.5 353 c 128,-1,30
 332 338 332 338 332 313 c 0,31,32
 332 296 332 296 324.5 284.5 c 128,-1,33
 317 273 317 273 296 258 c 0,34,35
 282 247 282 247 278 241.5 c 128,-1,36
 274 236 274 236 274 227 c 2,37,-1
 274 218 l 1,13,-1
236 148 m 0,38,39
 229 154 229 154 229 167 c 128,-1,40
 229 180 229 180 236 186 c 128,-1,41
 243 192 243 192 255.5 192 c 128,-1,42
 268 192 268 192 275 185.5 c 128,-1,43
 282 179 282 179 282 167 c 128,-1,44
 282 155 282 155 275 148 c 128,-1,45
 268 141 268 141 255.5 141 c 128,-1,46
 243 141 243 141 236 148 c 0,38,39
EndSplineSet
EndChar

StartChar: editor-strikethrough
Encoding: 113 61988 113
Width: 512
GlyphClass: 2
Flags: W
LayerCount: 2
Fore
SplineSet
405 198 m 0,0,1
 415 198 415 198 423.5 200 c 128,-1,2
 432 202 432 202 443 205 c 1,3,-1
 443 184 l 1,4,5
 425 177 425 177 402 177 c 0,6,7
 369 177 369 177 351 197 c 0,8,9
 336 214 336 214 333 243 c 1,10,-1
 309 243 l 1,11,12
 314 235 314 235 314 223 c 0,13,14
 314 203 314 203 299.5 191 c 128,-1,15
 285 179 285 179 260 179 c 2,16,-1
 205 179 l 1,17,-1
 205 243 l 1,18,-1
 169 243 l 1,19,-1
 193 179 l 1,20,-1
 166 179 l 1,21,-1
 151 222 l 1,22,-1
 93 222 l 1,23,-1
 78 179 l 1,24,-1
 51 179 l 1,25,-1
 75 243 l 1,26,-1
 51 243 l 1,27,-1
 51 269 l 1,28,-1
 85 269 l 1,29,-1
 109 333 l 1,30,-1
 136 333 l 1,31,-1
 159 269 l 1,32,-1
 205 269 l 1,33,-1
 205 333 l 1,34,-1
 250 333 l 2,35,36
 268 333 268 333 279 330 c 0,37,38
 288 328 288 328 295 322 c 0,39,40
 310 313 310 313 310 293 c 0,41,42
 310 280 310 280 303 271 c 2,43,-1
 301 269 l 1,44,-1
 334 269 l 1,45,46
 336 285 336 285 342 297 c 0,47,48
 351 315 351 315 367 324.5 c 128,-1,49
 383 334 383 334 406 334 c 128,-1,50
 429 334 429 334 449 324 c 1,51,-1
 440 303 l 1,52,53
 433 306 433 306 423.5 309 c 128,-1,54
 414 312 414 312 405 312 c 0,55,56
 384 312 384 312 371 297 c 0,57,58
 362 286 362 286 360 269 c 1,59,-1
 435 269 l 1,60,-1
 435 243 l 1,61,-1
 360 243 l 1,62,63
 362 223 362 223 371 213 c 0,64,65
 383 198 383 198 405 198 c 0,0,1
114 283 m 2,66,-1
 109 269 l 1,67,-1
 136 269 l 1,68,-1
 128 289 l 1,69,-1
 122 311 l 1,70,71
 118 295 118 295 114 283 c 2,66,-1
230 311 m 1,72,-1
 230 269 l 1,73,-1
 260 269 l 2,74,75
 270 270 270 270 277 274 c 128,-1,76
 284 278 284 278 284 289.5 c 128,-1,77
 284 301 284 301 276 306 c 128,-1,78
 268 311 268 311 251 311 c 2,79,-1
 230 311 l 1,72,-1
144 243 m 1,80,-1
 144 243 l 1,81,-1
 100 243 l 1,82,-1
 144 243 l 1,80,-1
280 243 m 1,83,-1
 279 243 l 1,84,-1
 230 243 l 1,85,-1
 230 200 l 1,86,-1
 256 200 l 2,87,88
 272 200 272 200 280 206 c 128,-1,89
 288 212 288 212 288 224.5 c 128,-1,90
 288 237 288 237 280 243 c 1,83,-1
EndSplineSet
EndChar

StartChar: editor-unlink
Encoding: 114 61989 114
Width: 512
GlyphClass: 2
Flags: W
LayerCount: 2
Fore
SplineSet
454 454 m 256,0,1
 475 433 475 433 482.5 404.5 c 128,-1,2
 490 376 490 376 482.5 347.5 c 128,-1,3
 475 319 475 319 454 298 c 2,4,-1
 415 259 l 2,5,6
 404 247 404 247 387 239 c 1,7,-1
 333 256 l 1,8,-1
 376 298 l 1,9,-1
 415 337 l 2,10,11
 431 353 431 353 431 376 c 128,-1,12
 431 399 431 399 415 415 c 128,-1,13
 399 431 399 431 376 431 c 128,-1,14
 353 431 353 431 337 415 c 2,15,-1
 317 396 l 1,16,-1
 256 333 l 1,17,-1
 239 388 l 1,18,19
 247 404 247 404 259 415 c 2,20,-1
 298 454 l 2,21,22
 319 475 319 475 347.5 482.5 c 128,-1,23
 376 490 376 490 404.5 482.5 c 128,-1,24
 433 475 433 475 454 454 c 256,0,1
51 410 m 1,25,-1
 256 256 l 1,26,-1
 102 461 l 1,27,-1
 51 410 l 1,25,-1
154 461 m 1,28,-1
 256 256 l 1,29,-1
 205 461 l 1,30,-1
 154 461 l 1,28,-1
51 358 m 1,31,-1
 256 256 l 1,32,-1
 51 307 l 1,33,-1
 51 358 l 1,31,-1
240 162 m 1,34,-1
 256 179 l 1,35,-1
 275 119 l 1,36,-1
 240 83 l 2,37,38
 218 62 218 62 190 54.5 c 128,-1,39
 162 47 162 47 133.5 54.5 c 128,-1,40
 105 62 105 62 83.5 83.5 c 128,-1,41
 62 105 62 105 54.5 133.5 c 128,-1,42
 47 162 47 162 54.5 190 c 128,-1,43
 62 218 62 218 83 240 c 2,44,-1
 119 275 l 1,45,-1
 179 256 l 1,46,-1
 162 240 l 1,47,-1
 123 200 l 2,48,49
 106 184 106 184 106 161.5 c 128,-1,50
 106 139 106 139 122.5 122.5 c 128,-1,51
 139 106 139 106 161.5 106 c 128,-1,52
 184 106 184 106 200 123 c 2,53,-1
 240 162 l 1,34,-1
461 102 m 1,54,-1
 256 256 l 1,55,-1
 410 51 l 1,56,-1
 461 102 l 1,54,-1
358 51 m 1,57,-1
 256 256 l 1,58,-1
 307 51 l 1,59,-1
 358 51 l 1,57,-1
461 154 m 1,60,-1
 256 256 l 1,61,-1
 461 205 l 1,62,-1
 461 154 l 1,60,-1
EndSplineSet
EndChar

StartChar: dashboard
Encoding: 115 61990 115
Width: 512
GlyphClass: 2
Flags: W
LayerCount: 2
Fore
SplineSet
96 102 m 1,0,-1
 416 102 l 1,1,2
 437 129 437 129 449 162 c 128,-1,3
 461 195 461 195 461 230 c 0,4,5
 461 286 461 286 433.5 333 c 128,-1,6
 406 380 406 380 359 407.5 c 128,-1,7
 312 435 312 435 256 435 c 128,-1,8
 200 435 200 435 153 407.5 c 128,-1,9
 106 380 106 380 78.5 333 c 128,-1,10
 51 286 51 286 51 230 c 0,11,12
 51 195 51 195 63 162 c 128,-1,13
 75 129 75 129 96 102 c 1,0,-1
256 410 m 256,14,15
 267 410 267 410 274.5 402.5 c 128,-1,16
 282 395 282 395 282 384 c 128,-1,17
 282 373 282 373 274.5 365.5 c 128,-1,18
 267 358 267 358 256 358 c 128,-1,19
 245 358 245 358 237.5 365.5 c 128,-1,20
 230 373 230 373 230 384 c 128,-1,21
 230 395 230 395 237.5 402.5 c 128,-1,22
 245 410 245 410 256 410 c 256,14,15
154 358 m 0,23,24
 164 358 164 358 171.5 350.5 c 128,-1,25
 179 343 179 343 179 332.5 c 128,-1,26
 179 322 179 322 171.5 314.5 c 128,-1,27
 164 307 164 307 153.5 307 c 128,-1,28
 143 307 143 307 135.5 314.5 c 128,-1,29
 128 322 128 322 128 332.5 c 128,-1,30
 128 343 128 343 135.5 350.5 c 128,-1,31
 143 358 143 358 154 358 c 0,23,24
358 358 m 0,32,33
 369 358 369 358 376.5 350.5 c 128,-1,34
 384 343 384 343 384 332.5 c 128,-1,35
 384 322 384 322 376.5 314.5 c 128,-1,36
 369 307 369 307 358.5 307 c 128,-1,37
 348 307 348 307 340.5 314.5 c 128,-1,38
 333 322 333 322 333 332.5 c 128,-1,39
 333 343 333 343 340.5 350.5 c 128,-1,40
 348 358 348 358 358 358 c 0,32,33
221 216 m 1,41,-1
 307 333 l 1,42,-1
 307 179 l 2,43,44
 307 158 307 158 292 143 c 128,-1,45
 277 128 277 128 256 128 c 128,-1,46
 235 128 235 128 220 143 c 128,-1,47
 205 158 205 158 205 179.5 c 128,-1,48
 205 201 205 201 221 216 c 1,41,-1
102 256 m 0,49,50
 113 256 113 256 120.5 248.5 c 128,-1,51
 128 241 128 241 128 230.5 c 128,-1,52
 128 220 128 220 120.5 212.5 c 128,-1,53
 113 205 113 205 102.5 205 c 128,-1,54
 92 205 92 205 84.5 212.5 c 128,-1,55
 77 220 77 220 77 230.5 c 128,-1,56
 77 241 77 241 84.5 248.5 c 128,-1,57
 92 256 92 256 102 256 c 0,49,50
410 256 m 0,58,59
 420 256 420 256 427.5 248.5 c 128,-1,60
 435 241 435 241 435 230.5 c 128,-1,61
 435 220 435 220 427.5 212.5 c 128,-1,62
 420 205 420 205 409.5 205 c 128,-1,63
 399 205 399 205 391.5 212.5 c 128,-1,64
 384 220 384 220 384 230.5 c 128,-1,65
 384 241 384 241 391.5 248.5 c 128,-1,66
 399 256 399 256 410 256 c 0,58,59
282 179 m 0,67,68
 282 190 282 190 274.5 197.5 c 128,-1,69
 267 205 267 205 256 205 c 128,-1,70
 245 205 245 205 237.5 197.5 c 128,-1,71
 230 190 230 190 230 179.5 c 128,-1,72
 230 169 230 169 237.5 161.5 c 128,-1,73
 245 154 245 154 256 154 c 128,-1,74
 267 154 267 154 274.5 161.5 c 128,-1,75
 282 169 282 169 282 179 c 0,67,68
EndSplineSet
EndChar

StartChar: flag
Encoding: 116 61991 116
Width: 512
GlyphClass: 2
Flags: W
LayerCount: 2
Fore
SplineSet
128 51 m 1,0,-1
 128 435 l 1,1,-1
 77 435 l 1,2,-1
 77 51 l 1,3,-1
 128 51 l 1,0,-1
154 205 m 1,4,-1
 154 410 l 1,5,6
 179 418 179 418 214 417 c 0,7,8
 236 416 236 416 282 410 c 0,9,10
 331 403 331 403 357 402 c 0,11,12
 400 401 400 401 435 410 c 1,13,-1
 435 205 l 1,14,15
 409 193 409 193 366 195 c 0,16,17
 341 196 341 196 288 203 c 0,18,19
 239 210 239 210 216 211 c 0,20,21
 178 213 178 213 154 205 c 1,4,-1
EndSplineSet
EndChar

StartChar: menu-alt
Encoding: 117 61992 117
Width: 512
GlyphClass: 2
Flags: W
LayerCount: 2
Fore
SplineSet
77 230 m 1,0,-1
 435 230 l 1,1,-1
 435 282 l 1,2,-1
 77 282 l 1,3,-1
 77 230 l 1,0,-1
77 102 m 1,4,-1
 435 102 l 1,5,-1
 435 154 l 1,6,-1
 77 154 l 1,7,-1
 77 102 l 1,4,-1
77 410 m 1,8,-1
 77 358 l 1,9,-1
 435 358 l 1,10,-1
 435 410 l 1,11,-1
 77 410 l 1,8,-1
EndSplineSet
EndChar

StartChar: leftright
Encoding: 118 61993 118
Width: 512
GlyphClass: 2
Flags: W
LayerCount: 2
Fore
SplineSet
77 255 m 1,0,-1
 230 358 l 1,1,-1
 230 154 l 1,2,-1
 77 255 l 1,0,-1
282 358 m 1,3,-1
 435 255 l 1,4,-1
 282 154 l 1,5,-1
 282 358 l 1,3,-1
EndSplineSet
EndChar

StartChar: location
Encoding: 119 62000 119
Width: 512
GlyphClass: 2
Flags: W
LayerCount: 2
Fore
SplineSet
256 461 m 256,0,1
 214 461 214 461 179 440 c 128,-1,2
 144 419 144 419 123 384 c 128,-1,3
 102 349 102 349 102 307 c 0,4,5
 102 271 102 271 122 237 c 0,6,7
 138 207 138 207 167 182 c 2,8,-1
 172 178 l 2,9,10
 200 155 200 155 215 135 c 0,11,12
 249 91 249 91 256 66 c 1,13,14
 263 91 263 91 297 135 c 0,15,16
 312 155 312 155 340 178 c 2,17,-1
 345 182 l 2,18,19
 374 207 374 207 390 237 c 0,20,21
 410 271 410 271 410 307 c 0,22,23
 410 349 410 349 389 384 c 128,-1,24
 368 419 368 419 333 440 c 128,-1,25
 298 461 298 461 256 461 c 256,0,1
256 395 m 256,26,27
 292 395 292 395 318 369.5 c 128,-1,28
 344 344 344 344 344 307.5 c 128,-1,29
 344 271 344 271 318 245 c 128,-1,30
 292 219 292 219 256 219 c 128,-1,31
 220 219 220 219 194 245 c 128,-1,32
 168 271 168 271 168 307.5 c 128,-1,33
 168 344 168 344 194 369.5 c 128,-1,34
 220 395 220 395 256 395 c 256,26,27
EndSplineSet
EndChar

StartChar: location-alt
Encoding: 120 62001 120
Width: 512
GlyphClass: 2
Flags: W
LayerCount: 2
Fore
SplineSet
333 176 m 1,0,-1
 363 328 l 1,1,2
 378 336 378 336 387.5 351 c 128,-1,3
 397 366 397 366 397 384 c 0,4,5
 397 410 397 410 378 429 c 128,-1,6
 359 448 359 448 332.5 448 c 128,-1,7
 306 448 306 448 287.5 429 c 128,-1,8
 269 410 269 410 269 384 c 0,9,10
 269 366 269 366 278 351 c 128,-1,11
 287 336 287 336 303 328 c 1,12,-1
 333 176 l 1,0,-1
333 422 m 256,13,14
 349 422 349 422 360 411 c 128,-1,15
 371 400 371 400 371 384 c 128,-1,16
 371 368 371 368 360 357 c 128,-1,17
 349 346 349 346 333 346 c 128,-1,18
 317 346 317 346 305.5 357 c 128,-1,19
 294 368 294 368 294 384 c 128,-1,20
 294 400 294 400 305.5 411 c 128,-1,21
 317 422 317 422 333 422 c 256,13,14
377 300 m 1,22,-1
 461 334 l 1,23,-1
 461 103 l 1,24,-1
 336 51 l 1,25,-1
 179 103 l 1,26,-1
 51 52 l 1,27,-1
 51 282 l 1,28,-1
 179 334 l 1,29,-1
 289 297 l 1,30,-1
 333 111 l 1,31,-1
 377 300 l 1,22,-1
EndSplineSet
EndChar

StartChar: images-alt
Encoding: 121 62002 121
Width: 512
GlyphClass: 2
Flags: W
LayerCount: 2
Fore
SplineSet
102 128 m 1,0,-1
 102 205 l 1,1,-1
 51 205 l 1,2,-1
 51 461 l 1,3,-1
 358 461 l 1,4,-1
 358 384 l 1,5,-1
 410 384 l 1,6,-1
 410 307 l 1,7,-1
 461 307 l 1,8,-1
 461 51 l 1,9,-1
 154 51 l 1,10,-1
 154 128 l 1,11,-1
 102 128 l 1,0,-1
282 435 m 0,12,13
 260 435 260 435 245 420 c 128,-1,14
 230 405 230 405 230 384 c 1,15,-1
 333 384 l 1,16,17
 333 405 333 405 318 420 c 128,-1,18
 303 435 303 435 282 435 c 0,12,13
102 230 m 1,19,-1
 102 358 l 1,20,-1
 77 358 l 1,21,-1
 77 230 l 1,22,-1
 102 230 l 1,19,-1
282 307 m 1,23,-1
 384 307 l 1,24,25
 384 328 384 328 369 343 c 128,-1,26
 354 358 354 358 333 358 c 128,-1,27
 312 358 312 358 297 343 c 128,-1,28
 282 328 282 328 282 307 c 1,23,-1
154 154 m 1,29,-1
 154 282 l 1,30,-1
 128 282 l 1,31,-1
 128 154 l 1,32,-1
 154 154 l 1,29,-1
384 179 m 256,33,34
 405 179 405 179 420 194 c 128,-1,35
 435 209 435 209 435 230.5 c 128,-1,36
 435 252 435 252 420 267 c 128,-1,37
 405 282 405 282 384 282 c 128,-1,38
 363 282 363 282 348 267 c 128,-1,39
 333 252 333 252 333 230.5 c 128,-1,40
 333 209 333 209 348 194 c 128,-1,41
 363 179 363 179 384 179 c 256,33,34
435 77 m 1,42,-1
 435 128 l 1,43,44
 393 128 393 128 359 140 c 0,45,46
 339 147 339 147 307 166.5 c 128,-1,47
 275 186 275 186 255 193 c 0,48,49
 222 205 222 205 179 205 c 1,50,-1
 179 77 l 1,51,-1
 435 77 l 1,42,-1
EndSplineSet
EndChar

StartChar: images-alt2
Encoding: 122 62003 122
Width: 512
GlyphClass: 2
Flags: W
LayerCount: 2
Fore
SplineSet
128 435 m 1,0,-1
 486 435 l 1,1,-1
 486 154 l 1,2,-1
 435 154 l 1,3,-1
 435 102 l 1,4,-1
 384 102 l 1,5,-1
 384 51 l 1,6,-1
 26 51 l 1,7,-1
 26 333 l 1,8,-1
 77 333 l 1,9,-1
 77 384 l 1,10,-1
 128 384 l 1,11,-1
 128 435 l 1,0,-1
461 179 m 1,12,-1
 461 410 l 1,13,-1
 154 410 l 1,14,-1
 154 179 l 1,15,-1
 461 179 l 1,12,-1
384 282 m 256,16,17
 363 282 363 282 348 297 c 128,-1,18
 333 312 333 312 333 333 c 128,-1,19
 333 354 333 354 348 369 c 128,-1,20
 363 384 363 384 384 384 c 128,-1,21
 405 384 405 384 420 369 c 128,-1,22
 435 354 435 354 435 333 c 128,-1,23
 435 312 435 312 420 297 c 128,-1,24
 405 282 405 282 384 282 c 256,16,17
410 128 m 1,25,-1
 410 154 l 1,26,-1
 128 154 l 1,27,-1
 128 358 l 1,28,-1
 102 358 l 1,29,-1
 102 128 l 1,30,-1
 410 128 l 1,25,-1
179 358 m 1,31,-1
 435 205 l 1,32,-1
 179 205 l 1,33,-1
 179 358 l 1,31,-1
358 77 m 1,34,-1
 358 102 l 1,35,-1
 77 102 l 1,36,-1
 77 307 l 1,37,-1
 51 307 l 1,38,-1
 51 77 l 1,39,-1
 358 77 l 1,34,-1
EndSplineSet
EndChar

StartChar: video-alt
Encoding: 123 62004 123
Width: 512
GlyphClass: 2
Flags: W
LayerCount: 2
Fore
SplineSet
205 384 m 256,0,1
 205 395 205 395 197.5 402.5 c 128,-1,2
 190 410 190 410 179 410 c 2,3,-1
 51 410 l 2,4,5
 41 410 41 410 33.5 402.5 c 128,-1,6
 26 395 26 395 26 384 c 128,-1,7
 26 373 26 373 33.5 365.5 c 128,-1,8
 41 358 41 358 51 358 c 2,9,-1
 179 358 l 2,10,11
 190 358 190 358 197.5 365.5 c 128,-1,12
 205 373 205 373 205 384 c 256,0,1
358 256 m 1,13,-1
 461 358 l 1,14,-1
 461 102 l 1,15,-1
 358 205 l 1,16,-1
 358 256 l 1,13,-1
333 154 m 2,17,-1
 333 307 l 2,18,19
 333 318 333 318 325.5 325.5 c 128,-1,20
 318 333 318 333 307 333 c 2,21,-1
 102 333 l 2,22,23
 92 333 92 333 84.5 325.5 c 128,-1,24
 77 318 77 318 77 307 c 2,25,-1
 77 154 l 2,26,27
 77 143 77 143 84.5 135.5 c 128,-1,28
 92 128 92 128 102 128 c 2,29,-1
 307 128 l 2,30,31
 318 128 318 128 325.5 135.5 c 128,-1,32
 333 143 333 143 333 154 c 2,17,-1
EndSplineSet
EndChar

StartChar: video-alt2
Encoding: 124 62005 124
Width: 512
GlyphClass: 2
Flags: W
LayerCount: 2
Fore
SplineSet
307 179 m 2,0,-1
 307 333 l 2,1,2
 307 354 307 354 292 369 c 128,-1,3
 277 384 277 384 256 384 c 2,4,-1
 77 384 l 2,5,6
 56 384 56 384 41 369 c 128,-1,7
 26 354 26 354 26 333 c 2,8,-1
 26 179 l 2,9,10
 26 158 26 158 41 143 c 128,-1,11
 56 128 56 128 77 128 c 2,12,-1
 256 128 l 2,13,14
 277 128 277 128 292 143 c 128,-1,15
 307 158 307 158 307 179 c 2,0,-1
333 243 m 1,16,-1
 486 128 l 1,17,-1
 486 384 l 1,18,-1
 333 269 l 1,19,-1
 333 243 l 1,16,-1
EndSplineSet
EndChar

StartChar: video-alt3
Encoding: 125 62006 125
Width: 512
GlyphClass: 2
Flags: W
LayerCount: 2
Fore
SplineSet
486 128 m 2,0,-1
 486 384 l 2,1,2
 486 405 486 405 471 420 c 128,-1,3
 456 435 456 435 435 435 c 2,4,-1
 102 435 l 2,5,6
 81 435 81 435 66 420 c 128,-1,7
 51 405 51 405 51 384 c 2,8,-1
 51 128 l 2,9,10
 51 107 51 107 66 92 c 128,-1,11
 81 77 81 77 102 77 c 2,12,-1
 435 77 l 2,13,14
 456 77 456 77 471 92 c 128,-1,15
 486 107 486 107 486 128 c 2,0,-1
205 154 m 1,16,-1
 205 358 l 1,17,-1
 358 256 l 1,18,-1
 205 154 l 1,16,-1
EndSplineSet
EndChar

StartChar: share
Encoding: 126 62007 126
Width: 512
GlyphClass: 2
Flags: W
LayerCount: 2
Fore
SplineSet
371 205 m 0,0,1
 403 205 403 205 425.5 182.5 c 128,-1,2
 448 160 448 160 448 128 c 128,-1,3
 448 96 448 96 425.5 73.5 c 128,-1,4
 403 51 403 51 371 51 c 128,-1,5
 339 51 339 51 316.5 73.5 c 128,-1,6
 294 96 294 96 294 128 c 0,7,8
 294 137 294 137 297 146 c 1,9,-1
 185 205 l 1,10,11
 162 179 162 179 129 179 c 128,-1,12
 96 179 96 179 73.5 201.5 c 128,-1,13
 51 224 51 224 51 256 c 128,-1,14
 51 288 51 288 73.5 310.5 c 128,-1,15
 96 333 96 333 128.5 333 c 128,-1,16
 161 333 161 333 185 307 c 1,17,-1
 297 366 l 1,18,19
 294 375 294 375 294 384 c 0,20,21
 294 416 294 416 316.5 438.5 c 128,-1,22
 339 461 339 461 371 461 c 128,-1,23
 403 461 403 461 425.5 438.5 c 128,-1,24
 448 416 448 416 448 384 c 128,-1,25
 448 352 448 352 425.5 329.5 c 128,-1,26
 403 307 403 307 370.5 307 c 128,-1,27
 338 307 338 307 315 333 c 1,28,-1
 202 274 l 1,29,30
 205 265 205 265 205 256 c 128,-1,31
 205 247 205 247 202 238 c 1,32,-1
 315 179 l 1,33,34
 337 205 337 205 371 205 c 0,0,1
EndSplineSet
EndChar

StartChar: chart-line
Encoding: 127 62008 127
Width: 512
GlyphClass: 2
Flags: W
LayerCount: 2
Fore
SplineSet
461 422 m 0,0,1
 461 411 461 411 454.5 401 c 128,-1,2
 448 391 448 391 437 387 c 1,3,-1
 437 51 l 1,4,-1
 51 51 l 1,5,-1
 159 224 l 1,6,7
 154 233 154 233 154 243 c 0,8,9
 154 259 154 259 165 270.5 c 128,-1,10
 176 282 176 282 192 282 c 128,-1,11
 208 282 208 282 219 270.5 c 128,-1,12
 230 259 230 259 230 243 c 0,13,14
 230 239 230 239 229 234 c 1,15,-1
 266 218 l 1,16,17
 278 230 278 230 294 230 c 0,18,19
 300 230 300 230 307 228 c 1,20,-1
 399 392 l 1,21,22
 384 404 384 404 384 422 c 0,23,24
 384 438 384 438 395 449.5 c 128,-1,25
 406 461 406 461 422 461 c 0,26,27
 429 461 429 461 436 458 c 1,28,-1
 437 461 l 1,29,-1
 437 458 l 1,30,31
 448 453 448 453 454.5 443.5 c 128,-1,32
 461 434 461 434 461 422 c 0,0,1
412 77 m 1,33,-1
 412 362 l 1,34,-1
 327 211 l 1,35,36
 333 202 333 202 333 192 c 0,37,38
 333 176 333 176 321.5 165 c 128,-1,39
 310 154 310 154 294 154 c 128,-1,40
 278 154 278 154 267 165 c 128,-1,41
 256 176 256 176 256 192 c 2,42,-1
 256 194 l 1,43,-1
 215 212 l 1,44,45
 204 205 204 205 192 205 c 0,46,47
 186 205 186 205 179 207 c 1,48,-1
 97 77 l 1,49,-1
 412 77 l 1,33,-1
EndSplineSet
EndChar

StartChar: chart-area
Encoding: 128 62009 128
Width: 512
GlyphClass: 2
Flags: W
LayerCount: 2
Fore
SplineSet
461 51 m 1,0,-1
 461 366 l 1,1,2
 473 372 473 372 479.5 384 c 128,-1,3
 486 396 486 396 486 410 c 0,4,5
 486 431 486 431 471 446 c 128,-1,6
 456 461 456 461 435 461 c 128,-1,7
 414 461 414 461 399 446 c 128,-1,8
 384 431 384 431 384 410 c 0,9,10
 384 395 384 395 392 382.5 c 128,-1,11
 400 370 400 370 413 364 c 1,12,-1
 307 195 l 1,13,14
 294 205 294 205 278 205 c 128,-1,15
 262 205 262 205 249 196 c 128,-1,16
 236 187 236 187 230 173 c 1,17,-1
 176 212 l 1,18,19
 179 221 179 221 179 230 c 0,20,21
 179 252 179 252 164 267 c 128,-1,22
 149 282 149 282 128 282 c 128,-1,23
 107 282 107 282 92 267 c 128,-1,24
 77 252 77 252 77 230 c 0,25,26
 77 217 77 217 83.5 205.5 c 128,-1,27
 90 194 90 194 102 187 c 1,28,-1
 26 51 l 1,29,-1
 461 51 l 1,0,-1
435 435 m 0,30,31
 446 435 446 435 453.5 427.5 c 128,-1,32
 461 420 461 420 461 409.5 c 128,-1,33
 461 399 461 399 453.5 391.5 c 128,-1,34
 446 384 446 384 435.5 384 c 128,-1,35
 425 384 425 384 417.5 391.5 c 128,-1,36
 410 399 410 399 410 409.5 c 128,-1,37
 410 420 410 420 417.5 427.5 c 128,-1,38
 425 435 425 435 435 435 c 0,30,31
128 256 m 256,39,40
 139 256 139 256 146.5 248.5 c 128,-1,41
 154 241 154 241 154 230.5 c 128,-1,42
 154 220 154 220 146.5 212.5 c 128,-1,43
 139 205 139 205 128 205 c 128,-1,44
 117 205 117 205 109.5 212.5 c 128,-1,45
 102 220 102 220 102 230.5 c 128,-1,46
 102 241 102 241 109.5 248.5 c 128,-1,47
 117 256 117 256 128 256 c 256,39,40
278 179 m 0,48,49
 288 179 288 179 295.5 171.5 c 128,-1,50
 303 164 303 164 303 153.5 c 128,-1,51
 303 143 303 143 295.5 135.5 c 128,-1,52
 288 128 288 128 277.5 128 c 128,-1,53
 267 128 267 128 259.5 135.5 c 128,-1,54
 252 143 252 143 252 153.5 c 128,-1,55
 252 164 252 164 259.5 171.5 c 128,-1,56
 267 179 267 179 278 179 c 0,48,49
EndSplineSet
EndChar

StartChar: share-alt
Encoding: 129 62016 129
Width: 512
GlyphClass: 2
Flags: W
LayerCount: 2
Fore
SplineSet
415 364 m 0,0,1
 424 350 424 350 421 334.5 c 128,-1,2
 418 319 418 319 405 310 c 128,-1,3
 392 301 392 301 376.5 304 c 128,-1,4
 361 307 361 307 352 321 c 0,5,6
 346 328 346 328 337 337 c 128,-1,7
 328 346 328 346 319.5 352 c 128,-1,8
 311 358 311 358 300.5 362.5 c 128,-1,9
 290 367 290 367 279 369 c 0,10,11
 256 374 256 374 233 369 c 0,12,13
 222 367 222 367 211.5 362.5 c 128,-1,14
 201 358 201 358 192 352 c 128,-1,15
 183 346 183 346 174.5 337.5 c 128,-1,16
 166 329 166 329 160 320 c 128,-1,17
 154 311 154 311 150 301 c 1,18,-1
 150 300 l 1,19,20
 146 292 146 292 144 282 c 1,21,-1
 26 282 l 1,22,-1
 26 358 l 1,23,-1
 94 358 l 1,24,-1
 97 364 l 2,25,26
 107 379 107 379 120 392 c 128,-1,27
 133 405 133 405 149 415.5 c 128,-1,28
 165 426 165 426 182 433.5 c 128,-1,29
 199 441 199 441 217 444 c 0,30,31
 256 452 256 452 295 444 c 0,32,33
 313 441 313 441 330 433.5 c 128,-1,34
 347 426 347 426 363 415.5 c 128,-1,35
 379 405 379 405 392 392 c 128,-1,36
 405 379 405 379 415 364 c 0,0,1
320 256 m 256,37,38
 320 282 320 282 301 301 c 128,-1,39
 282 320 282 320 256 320 c 128,-1,40
 230 320 230 320 211 301 c 128,-1,41
 192 282 192 282 192 256 c 128,-1,42
 192 230 192 230 211 211 c 128,-1,43
 230 192 230 192 256 192 c 128,-1,44
 282 192 282 192 301 211 c 128,-1,45
 320 230 320 230 320 256 c 256,37,38
97 148 m 0,46,47
 88 162 88 162 91 177.5 c 128,-1,48
 94 193 94 193 107 202 c 128,-1,49
 120 211 120 211 135.5 208 c 128,-1,50
 151 205 151 205 160 191 c 0,51,52
 166 184 166 184 175 175 c 128,-1,53
 184 166 184 166 192.5 160 c 128,-1,54
 201 154 201 154 210.5 150 c 128,-1,55
 220 146 220 146 233 143 c 0,56,57
 255 138 255 138 279 143 c 0,58,59
 292 146 292 146 301.5 150 c 128,-1,60
 311 154 311 154 320 160 c 128,-1,61
 329 166 329 166 337 174 c 128,-1,62
 345 182 345 182 351.5 192 c 128,-1,63
 358 202 358 202 362 211 c 1,64,-1
 362 212 l 1,65,66
 366 220 366 220 368 230 c 1,67,-1
 486 230 l 1,68,-1
 486 154 l 1,69,-1
 418 154 l 1,70,-1
 415 148 l 2,71,72
 405 133 405 133 392 120 c 128,-1,73
 379 107 379 107 363 96.5 c 128,-1,74
 347 86 347 86 330.5 79 c 128,-1,75
 314 72 314 72 295 68 c 0,76,77
 256 60 256 60 217 68 c 0,78,79
 198 72 198 72 181.5 79 c 128,-1,80
 165 86 165 86 149 96.5 c 128,-1,81
 133 107 133 107 120 120 c 128,-1,82
 107 133 107 133 97 148 c 0,46,47
EndSplineSet
EndChar

StartChar: share-alt2
Encoding: 130 62018 130
Width: 512
GlyphClass: 2
Flags: W
LayerCount: 2
Fore
SplineSet
461 307 m 1,0,-1
 333 205 l 1,1,-1
 333 281 l 1,2,3
 275 280 275 280 239 267 c 0,4,5
 191 249 191 249 154 205 c 1,6,7
 159 274 159 274 204.5 313 c 128,-1,8
 250 352 250 352 333 357 c 1,9,-1
 333 435 l 1,10,-1
 461 307 l 1,0,-1
102 154 m 1,11,-1
 384 154 l 1,12,-1
 384 205 l 1,13,-1
 435 246 l 1,14,-1
 435 102 l 1,15,-1
 51 102 l 1,16,-1
 51 384 l 1,17,-1
 293 384 l 1,18,19
 223 372 223 372 180 333 c 1,20,-1
 102 333 l 1,21,-1
 102 154 l 1,11,-1
EndSplineSet
EndChar

StartChar: twitter
Encoding: 131 62209 131
Width: 512
GlyphClass: 2
Flags: W
LayerCount: 2
Fore
SplineSet
485 398 m 1,0,1
 466 369 466 369 438 349 c 1,2,-1
 438 337 l 2,3,4
 438 273 438 273 407 213 c 0,5,6
 375 149 375 149 317 112 c 0,7,8
 253 70 253 70 171 70 c 0,9,10
 93 70 93 70 27 112 c 1,11,12
 40 111 40 111 50 111 c 0,13,14
 115 111 115 111 166 151 c 1,15,16
 136 152 136 152 112 170 c 128,-1,17
 88 188 88 188 79 216 c 1,18,19
 88 215 88 215 96 215 c 0,20,21
 108 215 108 215 121 218 c 1,22,23
 88 224 88 224 67 250 c 128,-1,24
 46 276 46 276 46 310 c 2,25,-1
 46 311 l 1,26,27
 66 300 66 300 88 299 c 1,28,29
 69 312 69 312 57.5 332.5 c 128,-1,30
 46 353 46 353 46 378 c 128,-1,31
 46 403 46 403 59 425 c 1,32,33
 94 381 94 381 144.5 355 c 128,-1,34
 195 329 195 329 253 327 c 1,35,36
 250 338 250 338 250 348 c 0,37,38
 250 387 250 387 277.5 414.5 c 128,-1,39
 305 442 305 442 344 442 c 0,40,41
 364 442 364 442 382 434 c 128,-1,42
 400 426 400 426 413 412 c 1,43,44
 445 419 445 419 472 435 c 1,45,46
 461 401 461 401 431 383 c 1,47,48
 458 386 458 386 485 398 c 1,0,1
EndSplineSet
EndChar

StartChar: twitter-alt
Encoding: 132 62210 132
Width: 512
GlyphClass: 2
Flags: W
LayerCount: 2
Fore
SplineSet
356 159 m 2,0,-1
 218 159 l 2,1,2
 210 159 210 159 210 169 c 2,3,-1
 210 246 l 1,4,-1
 356 246 l 2,5,6
 377 246 377 246 393.5 261.5 c 128,-1,7
 410 277 410 277 410 299.5 c 128,-1,8
 410 322 410 322 393.5 337.5 c 128,-1,9
 377 353 377 353 356 353 c 2,10,-1
 210 353 l 1,11,-1
 210 407 l 2,12,13
 210 430 210 430 193.5 445.5 c 128,-1,14
 177 461 177 461 154.5 461 c 128,-1,15
 132 461 132 461 117 445.5 c 128,-1,16
 102 430 102 430 102 407 c 2,17,-1
 102 172 l 2,18,19
 102 118 102 118 132 86 c 0,20,21
 162 53 162 53 220 51 c 2,22,-1
 358 51 l 2,23,24
 380 51 380 51 396 67.5 c 128,-1,25
 412 84 412 84 412 105 c 0,26,27
 410 128 410 128 393.5 143.5 c 128,-1,28
 377 159 377 159 356 159 c 2,0,-1
EndSplineSet
EndChar

StartChar: rss
Encoding: 133 62211 133
Width: 512
GlyphClass: 2
Flags: W
LayerCount: 2
Fore
SplineSet
382 51 m 1,0,-1
 461 51 l 1,1,2
 461 160 461 160 405 254 c 0,3,4
 350 346 350 346 258 399 c 0,5,6
 162 454 162 454 51 454 c 1,7,-1
 51 377 l 1,8,9
 141 377 141 377 218 333 c 0,10,11
 293 289 293 289 337 216 c 0,12,13
 382 140 382 140 382 51 c 1,0,-1
243 51 m 1,14,-1
 322 51 l 1,15,16
 322 123 322 123 285.5 184.5 c 128,-1,17
 249 246 249 246 186.5 281.5 c 128,-1,18
 124 317 124 317 51 317 c 1,19,-1
 51 240 l 1,20,21
 90 240 90 240 124.5 226 c 128,-1,22
 159 212 159 212 186.5 185 c 128,-1,23
 214 158 214 158 228.5 123.5 c 128,-1,24
 243 89 243 89 243 51 c 1,14,-1
106 52 m 0,25,26
 128 52 128 52 144 67.5 c 128,-1,27
 160 83 160 83 160 105 c 128,-1,28
 160 127 160 127 144 143 c 128,-1,29
 128 159 128 159 105.5 159 c 128,-1,30
 83 159 83 159 67 143 c 128,-1,31
 51 127 51 127 51 105 c 128,-1,32
 51 83 51 83 67 67.5 c 128,-1,33
 83 52 83 52 106 52 c 0,25,26
EndSplineSet
EndChar

StartChar: facebook
Encoding: 134 62212 134
Width: 512
GlyphClass: 2
Flags: W
LayerCount: 2
Fore
SplineSet
74 461 m 2,0,-1
 438 461 l 2,1,2
 448 461 448 461 454.5 454.5 c 128,-1,3
 461 448 461 448 461 438 c 2,4,-1
 461 74 l 2,5,6
 461 64 461 64 454.5 57.5 c 128,-1,7
 448 51 448 51 438 51 c 2,8,-1
 334 51 l 1,9,-1
 334 210 l 1,10,-1
 387 210 l 1,11,-1
 395 272 l 1,12,-1
 334 272 l 1,13,-1
 334 311 l 2,14,15
 334 326 334 326 340.5 333.5 c 128,-1,16
 347 341 347 341 365 341 c 2,17,-1
 397 341 l 1,18,-1
 397 397 l 1,19,20
 380 399 380 399 350 399 c 0,21,22
 313 399 313 399 291.5 377.5 c 128,-1,23
 270 356 270 356 270 317 c 2,24,-1
 270 272 l 1,25,-1
 217 272 l 1,26,-1
 217 210 l 1,27,-1
 270 210 l 1,28,-1
 270 51 l 1,29,-1
 74 51 l 2,30,31
 65 51 65 51 58 57.5 c 128,-1,32
 51 64 51 64 51 74 c 2,33,-1
 51 438 l 2,34,35
 51 448 51 448 58 454.5 c 128,-1,36
 65 461 65 461 74 461 c 2,0,-1
EndSplineSet
EndChar

StartChar: facebook-alt
Encoding: 135 62213 135
Width: 512
GlyphClass: 2
Flags: W
LayerCount: 2
Fore
SplineSet
217 51 m 1,0,-1
 292 51 l 1,1,-1
 292 238 l 1,2,-1
 354 238 l 1,3,-1
 364 311 l 1,4,-1
 292 311 l 1,5,-1
 292 357 l 2,6,7
 292 375 292 375 298 383 c 0,8,9
 307 393 307 393 328 393 c 2,10,-1
 366 393 l 1,11,-1
 366 458 l 1,12,13
 342 461 342 461 310 461 c 0,14,15
 268 461 268 461 242.5 435.5 c 128,-1,16
 217 410 217 410 217 365 c 2,17,-1
 217 311 l 1,18,-1
 154 311 l 1,19,-1
 154 238 l 1,20,-1
 217 238 l 1,21,-1
 217 51 l 1,0,-1
EndSplineSet
EndChar

StartChar: camera
Encoding: 136 62214 136
Width: 512
GlyphClass: 2
Flags: W
LayerCount: 2
Fore
SplineSet
154 384 m 1,0,-1
 154 435 l 1,1,-1
 77 435 l 1,2,-1
 77 384 l 1,3,-1
 154 384 l 1,0,-1
461 128 m 1,4,-1
 461 410 l 1,5,-1
 230 410 l 1,6,-1
 179 358 l 1,7,-1
 51 358 l 1,8,-1
 51 128 l 1,9,-1
 461 128 l 1,4,-1
282 333 m 0,10,11
 313 333 313 333 335.5 310.5 c 128,-1,12
 358 288 358 288 358 256 c 128,-1,13
 358 224 358 224 335.5 201.5 c 128,-1,14
 313 179 313 179 281.5 179 c 128,-1,15
 250 179 250 179 227.5 201.5 c 128,-1,16
 205 224 205 224 205 256 c 128,-1,17
 205 288 205 288 227.5 310.5 c 128,-1,18
 250 333 250 333 282 333 c 0,10,11
EndSplineSet
EndChar

StartChar: groups
Encoding: 137 62215 137
Width: 512
GlyphClass: 2
Flags: W
LayerCount: 2
Fore
SplineSet
206 398 m 0,0,1
 202 381 202 381 207.5 360 c 128,-1,2
 213 339 213 339 225 325 c 0,3,4
 239 309 239 309 256 309 c 128,-1,5
 273 309 273 309 286 324 c 128,-1,6
 299 339 299 339 304.5 360 c 128,-1,7
 310 381 310 381 306 398.5 c 128,-1,8
 302 416 302 416 287.5 428 c 128,-1,9
 273 440 273 440 256 440 c 128,-1,10
 239 440 239 440 224.5 428 c 128,-1,11
 210 416 210 416 206 398 c 0,0,1
100 375 m 0,12,13
 97 361 97 361 101.5 343 c 128,-1,14
 106 325 106 325 117 312.5 c 128,-1,15
 128 300 128 300 142.5 300 c 128,-1,16
 157 300 157 300 168 312.5 c 128,-1,17
 179 325 179 325 184 343 c 128,-1,18
 189 361 189 361 185.5 375.5 c 128,-1,19
 182 390 182 390 169.5 400 c 128,-1,20
 157 410 157 410 142.5 410 c 128,-1,21
 128 410 128 410 115.5 400 c 128,-1,22
 103 390 103 390 100 375 c 0,12,13
327 375 m 0,23,24
 323 361 323 361 328 343 c 128,-1,25
 333 325 333 325 344 312.5 c 128,-1,26
 355 300 355 300 369.5 300 c 128,-1,27
 384 300 384 300 395 312.5 c 128,-1,28
 406 325 406 325 410.5 343 c 128,-1,29
 415 361 415 361 411.5 375.5 c 128,-1,30
 408 390 408 390 396 400 c 128,-1,31
 384 410 384 410 369.5 410 c 128,-1,32
 355 410 355 410 342.5 400 c 128,-1,33
 330 390 330 390 327 375 c 0,23,24
312 82 m 2,34,-1
 344 192 l 2,35,36
 358 239 358 239 333.5 267 c 128,-1,37
 309 295 309 295 256 295 c 128,-1,38
 203 295 203 295 178 267 c 128,-1,39
 153 239 153 239 168 192 c 2,40,-1
 200 82 l 2,41,42
 205 69 205 69 220.5 60 c 128,-1,43
 236 51 236 51 255.5 51 c 128,-1,44
 275 51 275 51 291 60 c 128,-1,45
 307 69 307 69 312 82 c 2,34,-1
155 278 m 1,46,47
 128 240 128 240 145 186 c 2,48,-1
 173 89 l 1,49,50
 160 81 160 81 143 81 c 128,-1,51
 126 81 126 81 112.5 88 c 128,-1,52
 99 95 99 95 95 107 c 2,53,-1
 68 200 l 2,54,55
 56 240 56 240 77 263.5 c 128,-1,56
 98 287 98 287 143 287 c 0,57,58
 153 287 153 287 163 286 c 1,59,-1
 155 278 l 1,46,47
369 287 m 0,60,61
 414 287 414 287 435 263.5 c 128,-1,62
 456 240 456 240 444 200 c 2,63,-1
 417 107 l 2,64,65
 413 95 413 95 399.5 88 c 128,-1,66
 386 81 386 81 369 81 c 128,-1,67
 352 81 352 81 338 89 c 1,68,-1
 367 185 l 2,69,70
 384 240 384 240 356 278 c 0,71,72
 353 282 353 282 349 286 c 1,73,74
 359 287 359 287 369 287 c 0,60,61
EndSplineSet
EndChar

StartChar: hammer
Encoding: 138 62216 138
Width: 512
GlyphClass: 2
Flags: W
LayerCount: 2
Fore
SplineSet
453 350 m 1,0,-1
 489 314 l 1,1,-1
 400 227 l 1,2,-1
 364 263 l 1,3,-1
 386 284 l 1,4,5
 372 317 372 317 347 343 c 1,6,-1
 229 174 l 1,7,-1
 94 54 l 2,8,9
 87 47 87 47 76.5 47 c 128,-1,10
 66 47 66 47 58 54 c 2,11,-1
 27 85 l 2,12,13
 20 92 20 92 20 103 c 128,-1,14
 20 114 20 114 27 121 c 2,15,-1
 308 375 l 1,16,17
 249 412 249 412 163 413 c 1,18,19
 268 445 268 445 331 421 c 0,20,21
 358 410 358 410 384 385 c 0,22,23
 399 370 399 370 425 336 c 2,24,-1
 431 329 l 1,25,-1
 453 350 l 1,0,-1
EndSplineSet
EndChar

StartChar: art
Encoding: 139 62217 139
Width: 512
GlyphClass: 2
Flags: W
LayerCount: 2
Fore
SplineSet
219 434 m 0,0,1
 226 431 226 431 224 424 c 0,2,3
 223 420 223 420 215 409 c 0,4,5
 203 391 203 391 201 381 c 0,6,7
 198 365 198 365 216 354 c 0,8,9
 228 346 228 346 251 362 c 0,10,11
 265 371 265 371 294 397 c 0,12,13
 320 421 320 421 330 427 c 0,14,15
 353 439 353 439 376 434 c 0,16,17
 406 428 406 428 420.5 395.5 c 128,-1,18
 435 363 435 363 430 309 c 0,19,20
 425 251 425 251 400 200 c 0,21,22
 371 142 371 142 324 112 c 0,23,24
 274 81 274 81 218.5 79.5 c 128,-1,25
 163 78 163 78 117 104.5 c 128,-1,26
 71 131 71 131 50 180 c 0,27,28
 31 222 31 222 42 273 c 0,29,30
 51 320 51 320 81 361.5 c 128,-1,31
 111 403 111 403 148 423 c 0,32,33
 186 445 186 445 219 434 c 0,0,1
250 269 m 0,34,35
 257 253 257 253 275.5 253.5 c 128,-1,36
 294 254 294 254 314.5 267 c 128,-1,37
 335 280 335 280 344 298 c 0,38,39
 355 320 355 320 347 340 c 0,40,41
 342 354 342 354 324 351 c 128,-1,42
 306 348 306 348 286 333.5 c 128,-1,43
 266 319 266 319 255 302 c 0,44,45
 244 283 244 283 250 269 c 0,34,35
EndSplineSet
EndChar

StartChar: migrate
Encoding: 140 62224 140
Width: 512
GlyphClass: 2
Flags: W
LayerCount: 2
Fore
SplineSet
102 358 m 1,0,-1
 256 358 l 1,1,-1
 256 410 l 1,2,-1
 51 410 l 1,3,-1
 51 102 l 1,4,-1
 256 102 l 1,5,-1
 256 154 l 1,6,-1
 102 154 l 1,7,-1
 102 358 l 1,0,-1
154 307 m 1,8,-1
 307 307 l 1,9,-1
 307 384 l 1,10,-1
 461 256 l 1,11,-1
 307 128 l 1,12,-1
 307 205 l 1,13,-1
 154 205 l 1,14,-1
 154 307 l 1,8,-1
EndSplineSet
EndChar

StartChar: performance
Encoding: 141 62225 141
Width: 512
GlyphClass: 2
Flags: W
LayerCount: 2
Fore
SplineSet
96 77 m 1,0,-1
 416 77 l 1,1,2
 461 133 461 133 461 205 c 0,3,4
 461 260 461 260 433.5 307 c 128,-1,5
 406 354 406 354 359 382 c 128,-1,6
 312 410 312 410 256 410 c 128,-1,7
 200 410 200 410 153 382 c 128,-1,8
 106 354 106 354 78.5 307 c 128,-1,9
 51 260 51 260 51 205 c 0,10,11
 51 133 51 133 96 77 c 1,0,-1
230 358 m 0,12,13
 230 369 230 369 237.5 376.5 c 128,-1,14
 245 384 245 384 256 384 c 128,-1,15
 267 384 267 384 274.5 376.5 c 128,-1,16
 282 369 282 369 282 358.5 c 128,-1,17
 282 348 282 348 274.5 340.5 c 128,-1,18
 267 333 267 333 256 333 c 128,-1,19
 245 333 245 333 237.5 340.5 c 128,-1,20
 230 348 230 348 230 358 c 0,12,13
102 307 m 256,21,22
 102 318 102 318 109.5 325.5 c 128,-1,23
 117 333 117 333 128 333 c 128,-1,24
 139 333 139 333 146.5 325.5 c 128,-1,25
 154 318 154 318 154 307 c 128,-1,26
 154 296 154 296 146.5 289 c 128,-1,27
 139 282 139 282 128 282 c 128,-1,28
 117 282 117 282 109.5 289 c 128,-1,29
 102 296 102 296 102 307 c 256,21,22
218 220 m 0,30,31
 232 233 232 233 310 273 c 0,32,33
 348 293 348 293 385 310 c 1,34,-1
 385 310 l 1,35,-1
 348 234 l 2,36,37
 309 156 309 156 295 143 c 0,38,39
 279 127 279 127 256.5 127 c 128,-1,40
 234 127 234 127 218 143 c 128,-1,41
 202 159 202 159 202 181.5 c 128,-1,42
 202 204 202 204 218 220 c 0,30,31
77 179 m 256,43,44
 77 190 77 190 84.5 197.5 c 128,-1,45
 92 205 92 205 102.5 205 c 128,-1,46
 113 205 113 205 120.5 197.5 c 128,-1,47
 128 190 128 190 128 179 c 128,-1,48
 128 168 128 168 120.5 161 c 128,-1,49
 113 154 113 154 102.5 154 c 128,-1,50
 92 154 92 154 84.5 161 c 128,-1,51
 77 168 77 168 77 179 c 256,43,44
230 179 m 256,52,53
 230 190 230 190 237.5 197.5 c 128,-1,54
 245 205 245 205 256 205 c 128,-1,55
 267 205 267 205 274.5 197.5 c 128,-1,56
 282 190 282 190 282 179 c 128,-1,57
 282 168 282 168 274.5 161 c 128,-1,58
 267 154 267 154 256 154 c 128,-1,59
 245 154 245 154 237.5 161 c 128,-1,60
 230 168 230 168 230 179 c 256,52,53
384 179 m 256,61,62
 384 190 384 190 391.5 197.5 c 128,-1,63
 399 205 399 205 409.5 205 c 128,-1,64
 420 205 420 205 427.5 197.5 c 128,-1,65
 435 190 435 190 435 179 c 128,-1,66
 435 168 435 168 427.5 161 c 128,-1,67
 420 154 420 154 409.5 154 c 128,-1,68
 399 154 399 154 391.5 161 c 128,-1,69
 384 168 384 168 384 179 c 256,61,62
EndSplineSet
EndChar

StartChar: products
Encoding: 142 62226 142
Width: 512
GlyphClass: 2
Flags: W
LayerCount: 2
Fore
SplineSet
435 307 m 1,0,-1
 461 307 l 1,1,-1
 461 26 l 1,2,-1
 51 26 l 1,3,-1
 51 307 l 1,4,-1
 77 307 l 1,5,-1
 77 358 l 2,6,7
 77 393 77 393 94 422.5 c 128,-1,8
 111 452 111 452 140.5 469 c 128,-1,9
 170 486 170 486 205 486 c 0,10,11
 232 486 232 486 256 476 c 1,12,13
 280 486 280 486 307 486 c 0,14,15
 342 486 342 486 371.5 469 c 128,-1,16
 401 452 401 452 418 422.5 c 128,-1,17
 435 393 435 393 435 358 c 2,18,-1
 435 307 l 1,0,-1
128 358 m 2,19,-1
 128 307 l 1,20,-1
 179 307 l 1,21,-1
 179 358 l 2,22,23
 179 400 179 400 205 435 c 1,24,-1
 205 435 l 1,25,26
 173 435 173 435 150.5 412.5 c 128,-1,27
 128 390 128 390 128 358 c 2,19,-1
384 307 m 1,28,-1
 384 358 l 2,29,30
 384 390 384 390 361.5 412.5 c 128,-1,31
 339 435 339 435 307 435 c 1,32,-1
 307 435 l 1,33,34
 333 400 333 400 333 358 c 2,35,-1
 333 307 l 1,36,-1
 384 307 l 1,28,-1
256 415 m 1,37,38
 230 392 230 392 230 358 c 2,39,-1
 230 307 l 1,40,-1
 282 307 l 1,41,-1
 282 358 l 2,42,43
 282 392 282 392 256 415 c 1,37,38
EndSplineSet
EndChar

StartChar: awards
Encoding: 143 62227 143
Width: 512
GlyphClass: 2
Flags: W
LayerCount: 2
Fore
SplineSet
114 380 m 1,0,-1
 128 321 l 1,1,-1
 114 262 l 1,2,-1
 166 231 l 1,3,-1
 197 179 l 1,4,-1
 256 193 l 1,5,-1
 315 179 l 1,6,-1
 346 231 l 1,7,-1
 398 262 l 1,8,-1
 384 321 l 1,9,-1
 398 380 l 1,10,-1
 347 412 l 1,11,-1
 315 463 l 1,12,-1
 256 449 l 1,13,-1
 197 463 l 1,14,-1
 165 412 l 1,15,-1
 114 380 l 1,0,-1
256 218 m 0,16,17
 214 218 214 218 184 248 c 128,-1,18
 154 278 154 278 154 320.5 c 128,-1,19
 154 363 154 363 184 392.5 c 128,-1,20
 214 422 214 422 256 422 c 128,-1,21
 298 422 298 422 328 392 c 128,-1,22
 358 362 358 362 358 320 c 128,-1,23
 358 278 358 278 328.5 248 c 128,-1,24
 299 218 299 218 256 218 c 0,16,17
256 243 m 256,25,26
 224 243 224 243 201.5 265.5 c 128,-1,27
 179 288 179 288 179 320 c 128,-1,28
 179 352 179 352 201.5 374.5 c 128,-1,29
 224 397 224 397 256 397 c 128,-1,30
 288 397 288 397 310.5 374.5 c 128,-1,31
 333 352 333 352 333 320 c 128,-1,32
 333 288 333 288 310.5 265.5 c 128,-1,33
 288 243 288 243 256 243 c 256,25,26
354 215 m 1,34,-1
 321 158 l 1,35,-1
 268 170 l 1,36,-1
 333 20 l 1,37,-1
 369 77 l 1,38,-1
 433 77 l 1,39,-1
 354 215 l 1,34,-1
157 213 m 1,40,-1
 189 156 l 1,41,-1
 243 169 l 1,42,-1
 179 20 l 1,43,-1
 143 77 l 1,44,-1
 79 77 l 1,45,-1
 157 213 l 1,40,-1
EndSplineSet
EndChar

StartChar: forms
Encoding: 144 62228 144
Width: 512
GlyphClass: 2
Flags: W
LayerCount: 2
Fore
SplineSet
51 461 m 1,0,-1
 230 461 l 1,1,-1
 230 282 l 1,2,-1
 51 282 l 1,3,-1
 51 461 l 1,0,-1
282 461 m 1,4,-1
 282 282 l 1,5,-1
 461 282 l 1,6,-1
 461 461 l 1,7,-1
 282 461 l 1,4,-1
141 397 m 1,8,-1
 179 435 l 1,9,-1
 102 435 l 1,10,-1
 141 397 l 1,8,-1
307 307 m 1,11,-1
 307 435 l 1,12,-1
 435 435 l 1,13,-1
 435 307 l 1,14,-1
 307 307 l 1,11,-1
115 371 m 1,15,-1
 77 410 l 1,16,-1
 77 333 l 1,17,-1
 115 371 l 1,15,-1
205 410 m 1,18,-1
 166 371 l 1,19,-1
 205 333 l 1,20,-1
 205 410 l 1,18,-1
141 346 m 1,21,-1
 102 307 l 1,22,-1
 179 307 l 1,23,-1
 141 346 l 1,21,-1
230 51 m 1,24,-1
 230 230 l 1,25,-1
 51 230 l 1,26,-1
 51 51 l 1,27,-1
 230 51 l 1,24,-1
461 51 m 1,28,-1
 282 51 l 1,29,-1
 282 230 l 1,30,-1
 461 230 l 1,31,-1
 461 51 l 1,28,-1
205 205 m 1,32,-1
 205 77 l 1,33,-1
 77 77 l 1,34,-1
 77 205 l 1,35,-1
 205 205 l 1,32,-1
371 166 m 1,36,-1
 410 205 l 1,37,-1
 333 205 l 1,38,-1
 371 166 l 1,36,-1
307 102 m 1,39,-1
 346 141 l 1,40,-1
 307 179 l 1,41,-1
 307 102 l 1,39,-1
397 141 m 1,42,-1
 435 102 l 1,43,-1
 435 179 l 1,44,-1
 397 141 l 1,42,-1
371 115 m 1,45,-1
 333 77 l 1,46,-1
 410 77 l 1,47,-1
 371 115 l 1,45,-1
EndSplineSet
EndChar

StartChar: download
Encoding: 145 62230 145
Width: 512
GlyphClass: 2
Flags: W
LayerCount: 2
Fore
SplineSet
359 410 m 1,0,-1
 359 256 l 1,1,-1
 410 256 l 1,2,-1
 410 461 l 1,3,-1
 102 461 l 1,4,-1
 102 256 l 1,5,-1
 154 256 l 1,6,-1
 154 410 l 1,7,-1
 359 410 l 1,0,-1
307 358 m 1,8,-1
 307 205 l 1,9,-1
 384 205 l 1,10,-1
 256 51 l 1,11,-1
 128 205 l 1,12,-1
 205 205 l 1,13,-1
 205 358 l 1,14,-1
 307 358 l 1,8,-1
EndSplineSet
EndChar

StartChar: upload
Encoding: 146 62231 146
Width: 512
GlyphClass: 2
Flags: W
LayerCount: 2
Fore
SplineSet
205 154 m 1,0,-1
 205 307 l 1,1,-1
 128 307 l 1,2,-1
 256 461 l 1,3,-1
 384 307 l 1,4,-1
 307 307 l 1,5,-1
 307 154 l 1,6,-1
 205 154 l 1,0,-1
154 102 m 1,7,-1
 154 256 l 1,8,-1
 102 256 l 1,9,-1
 102 51 l 1,10,-1
 410 51 l 1,11,-1
 410 256 l 1,12,-1
 358 256 l 1,13,-1
 358 102 l 1,14,-1
 154 102 l 1,7,-1
EndSplineSet
EndChar

StartChar: category
Encoding: 147 62232 147
Width: 512
GlyphClass: 2
Flags: W
LayerCount: 2
Fore
SplineSet
128 333 m 1,0,-1
 461 333 l 1,1,-1
 461 77 l 1,2,-1
 51 77 l 1,3,-1
 51 410 l 1,4,-1
 230 410 l 1,5,-1
 282 358 l 1,6,-1
 102 358 l 1,7,-1
 102 128 l 1,8,-1
 128 128 l 1,9,-1
 128 333 l 1,0,-1
EndSplineSet
EndChar

StartChar: admin-site
Encoding: 148 62233 148
Width: 512
GlyphClass: 2
Flags: W
LayerCount: 2
Fore
SplineSet
230 512 m 0,0,1
 168 512 168 512 115 481 c 128,-1,2
 62 450 62 450 31 397 c 128,-1,3
 0 344 0 344 0 281.5 c 128,-1,4
 0 219 0 219 31 166 c 128,-1,5
 62 113 62 113 115 82 c 128,-1,6
 168 51 168 51 230.5 51 c 128,-1,7
 293 51 293 51 346 82 c 128,-1,8
 399 113 399 113 430 166 c 128,-1,9
 461 219 461 219 461 281.5 c 128,-1,10
 461 344 461 344 430 397 c 128,-1,11
 399 450 399 450 346 481 c 128,-1,12
 293 512 293 512 230 512 c 0,0,1
319 206 m 0,13,14
 319 130 319 130 215 86 c 1,15,16
 217 120 217 120 209 142 c 0,17,18
 203 161 203 161 189 173 c 0,19,20
 180 180 180 180 162 190 c 0,21,22
 150 197 150 197 145 201 c 0,23,24
 137 207 137 207 133 214 c 1,25,26
 136 235 136 235 148 252.5 c 128,-1,27
 160 270 160 270 179 279 c 1,28,29
 118 289 118 289 72 330 c 1,30,31
 74 311 74 311 89 299 c 1,32,33
 58 311 58 311 39 338 c 1,34,35
 58 400 58 400 109 439.5 c 128,-1,36
 160 479 160 479 225 482 c 1,37,38
 213 462 213 462 206 437 c 0,39,40
 199 409 199 409 203 385 c 0,41,42
 207 356 207 356 225 339 c 1,43,44
 212 337 212 337 198 343 c 0,45,46
 190 347 190 347 176 356.5 c 128,-1,47
 162 366 162 366 156 367 c 0,48,49
 146 371 146 371 138 364 c 0,50,51
 124 350 124 350 130.5 334.5 c 128,-1,52
 137 319 137 319 162.5 305.5 c 128,-1,53
 188 292 188 292 227.5 285 c 128,-1,54
 267 278 267 278 288 266 c 0,55,56
 307 256 307 256 314 240 c 0,57,58
 319 228 319 228 319 206 c 0,13,14
353 308 m 1,59,60
 343 343 343 343 397 389 c 1,61,62
 423 351 423 351 428.5 306 c 128,-1,63
 434 261 434 261 418 218 c 1,64,65
 411 235 411 235 400 249 c 0,66,67
 393 258 393 258 380 272 c 0,68,69
 368 283 368 283 364 289 c 0,70,71
 356 299 356 299 353 309 c 1,72,-1
 353 308 l 1,59,60
EndSplineSet
EndChar

StartChar: editor-rtl
Encoding: 149 62240 149
Width: 512
GlyphClass: 2
Flags: W
LayerCount: 2
Fore
SplineSet
333 461 m 2,0,-1
 141 461 l 2,1,2
 109 461 109 461 82.5 445.5 c 128,-1,3
 56 430 56 430 41 403.5 c 128,-1,4
 26 377 26 377 26 345.5 c 128,-1,5
 26 314 26 314 41 287.5 c 128,-1,6
 56 261 56 261 82.5 245.5 c 128,-1,7
 109 230 109 230 141 230 c 2,8,-1
 154 230 l 1,9,-1
 154 77 l 2,10,11
 154 67 154 67 162 59 c 128,-1,12
 170 51 170 51 179.5 51 c 128,-1,13
 189 51 189 51 197 59 c 128,-1,14
 205 67 205 67 205 77 c 2,15,-1
 205 384 l 2,16,17
 205 394 205 394 213 402 c 128,-1,18
 221 410 221 410 230.5 410 c 128,-1,19
 240 410 240 410 248 402 c 128,-1,20
 256 394 256 394 256 384 c 2,21,-1
 256 77 l 2,22,23
 256 67 256 67 264 59 c 128,-1,24
 272 51 272 51 281.5 51 c 128,-1,25
 291 51 291 51 299 59 c 128,-1,26
 307 67 307 67 307 77 c 2,27,-1
 307 410 l 1,28,-1
 333 410 l 2,29,30
 342 410 342 410 350 418 c 128,-1,31
 358 426 358 426 358 435.5 c 128,-1,32
 358 445 358 445 350 453 c 128,-1,33
 342 461 342 461 333 461 c 2,0,-1
358 256 m 1,34,-1
 486 154 l 1,35,-1
 486 358 l 1,36,-1
 358 256 l 1,34,-1
EndSplineSet
EndChar

StartChar: backup
Encoding: 150 62241 150
Width: 512
GlyphClass: 2
Flags: W
LayerCount: 2
Fore
SplineSet
349 438 m 0,0,1
 399 413 399 413 428 367 c 128,-1,2
 457 321 457 321 460.5 266.5 c 128,-1,3
 464 212 464 212 438.5 162.5 c 128,-1,4
 413 113 413 113 367 84 c 128,-1,5
 321 55 321 55 266.5 51.5 c 128,-1,6
 212 48 212 48 163 74 c 0,7,8
 127 92 127 92 102 121 c 128,-1,9
 77 150 77 150 64 186 c 1,10,-1
 106 213 l 1,11,12
 115 182 115 182 135 157 c 128,-1,13
 155 132 155 132 185 116 c 0,14,15
 222 97 222 97 264 99.5 c 128,-1,16
 306 102 306 102 341 124.5 c 128,-1,17
 376 147 376 147 395.5 184.5 c 128,-1,18
 415 222 415 222 412.5 264 c 128,-1,19
 410 306 410 306 387.5 341 c 128,-1,20
 365 376 365 376 327.5 395.5 c 128,-1,21
 290 415 290 415 248 412.5 c 128,-1,22
 206 410 206 410 171 387.5 c 128,-1,23
 136 365 136 365 117 327 c 1,24,-1
 165 303 l 1,25,-1
 38 224 l 1,26,-1
 28 373 l 1,27,-1
 74 349 l 1,28,29
 99 399 99 399 145 428 c 128,-1,30
 191 457 191 457 245.5 460 c 128,-1,31
 300 463 300 463 349 438 c 0,0,1
238 238 m 0,32,33
 230 245 230 245 230 256 c 2,34,-1
 231 261 l 1,35,-1
 231 261 l 1,36,-1
 256 384 l 1,37,-1
 281 261 l 1,38,-1
 358 179 l 1,39,-1
 243 233 l 1,40,-1
 244 234 l 1,41,42
 240 236 240 236 238 238 c 0,32,33
EndSplineSet
EndChar

StartChar: portfolio
Encoding: 151 62242 151
Width: 512
GlyphClass: 2
Flags: W
LayerCount: 2
Fore
SplineSet
102 384 m 1,0,-1
 20 384 l 2,1,2
 12 384 12 384 6.5 378 c 128,-1,3
 1 372 1 372 2 362 c 2,4,-1
 42 107 l 1,5,-1
 67 207 l 2,6,7
 93 312 93 312 99 340 c 0,8,9
 101 350 101 350 108 354 c 128,-1,10
 115 358 115 358 124 358 c 2,11,-1
 256 358 l 1,12,-1
 236 418 l 2,13,14
 231 435 231 435 216 435 c 2,15,-1
 132 435 l 2,16,17
 124 435 124 435 118.5 430.5 c 128,-1,18
 113 426 113 426 111 419 c 2,19,-1
 102 384 l 1,0,-1
227 384 m 1,20,-1
 125 384 l 1,21,-1
 132 397 l 2,22,23
 140 410 140 410 147 410 c 2,24,-1
 202 410 l 2,25,26
 209 410 209 410 219 397 c 2,27,-1
 227 384 l 1,20,-1
68 96 m 0,28,29
 56 77 56 77 36 77 c 1,30,-1
 439 77 l 2,31,32
 449 77 449 77 456 82.5 c 128,-1,33
 463 88 463 88 465 98 c 2,34,-1
 508 314 l 2,35,36
 509 323 509 323 504 328 c 128,-1,37
 499 333 499 333 492 333 c 2,38,-1
 410 333 l 1,39,-1
 410 370 l 2,40,41
 410 374 410 374 405 379 c 128,-1,42
 400 384 400 384 393 384 c 2,43,-1
 296 384 l 2,44,45
 288 384 288 384 280 377 c 0,46,47
 276 373 276 373 274 369 c 2,48,-1
 256 333 l 1,49,-1
 143 333 l 2,50,51
 137 333 137 333 132 329.5 c 128,-1,52
 127 326 127 326 125 320 c 2,53,-1
 81 132 l 2,54,55
 77 109 77 109 68 96 c 0,28,29
394 333 m 1,56,-1
 282 333 l 1,57,-1
 286 339 l 2,58,59
 291 347 291 347 297 352 c 0,60,61
 304 358 304 358 311 358 c 2,62,-1
 369 358 l 2,63,64
 381 358 381 358 388 346 c 0,65,66
 392 339 392 339 394 333 c 1,67,-1
 394 333 l 1,56,-1
EndSplineSet
EndChar

StartChar: tag
Encoding: 152 62243 152
Width: 512
GlyphClass: 2
Flags: W
LayerCount: 2
Fore
SplineSet
282 461 m 1,0,-1
 461 461 l 1,1,-1
 461 282 l 1,2,-1
 205 26 l 1,3,-1
 26 205 l 1,4,-1
 282 461 l 1,0,-1
358 307 m 0,5,6
 380 307 380 307 395 322 c 128,-1,7
 410 337 410 337 410 358.5 c 128,-1,8
 410 380 410 380 395 395 c 128,-1,9
 380 410 380 410 358.5 410 c 128,-1,10
 337 410 337 410 322 395 c 128,-1,11
 307 380 307 380 307 358.5 c 128,-1,12
 307 337 307 337 322 322 c 128,-1,13
 337 307 337 307 358 307 c 0,5,6
EndSplineSet
EndChar

StartChar: wordpress-alt
Encoding: 153 62244 153
Width: 512
GlyphClass: 2
Flags: W
LayerCount: 2
Fore
SplineSet
512 256 m 256,0,1
 512 325 512 325 477.5 384 c 128,-1,2
 443 443 443 443 384 477.5 c 128,-1,3
 325 512 325 512 256 512 c 128,-1,4
 187 512 187 512 128 477.5 c 128,-1,5
 69 443 69 443 34.5 384 c 128,-1,6
 0 325 0 325 0 255.5 c 128,-1,7
 0 186 0 186 34.5 127.5 c 128,-1,8
 69 69 69 69 127.5 34.5 c 128,-1,9
 186 0 186 0 255.5 0 c 128,-1,10
 325 0 325 0 384 34.5 c 128,-1,11
 443 69 443 69 477.5 128 c 128,-1,12
 512 187 512 187 512 256 c 256,0,1
199 119 m 1,13,-1
 112 353 l 1,14,-1
 142 355 l 2,15,16
 148 356 148 356 150 363 c 128,-1,17
 152 370 152 370 149 376.5 c 128,-1,18
 146 383 146 383 140 383 c 2,19,-1
 119 382 l 2,20,21
 94 380 94 380 80 380 c 2,22,-1
 65 381 l 1,23,24
 96 428 96 428 146.5 456 c 128,-1,25
 197 484 197 484 256 484 c 0,26,27
 300 484 300 484 340 468 c 128,-1,28
 380 452 380 452 411 424 c 1,29,30
 396 426 396 426 383 416 c 0,31,32
 369 404 369 404 369 383 c 0,33,34
 369 372 369 372 374 360 c 0,35,36
 378 352 378 352 387 336 c 2,37,-1
 392 329 l 2,38,39
 406 305 406 305 406 266 c 0,40,41
 406 243 406 243 388 188 c 0,42,43
 379 161 379 161 370 138 c 1,44,-1
 370 138 l 1,45,-1
 292 353 l 1,46,47
 301 353 301 353 308 355 c 2,48,-1
 313 357 l 2,49,50
 319 358 319 358 321 366 c 128,-1,51
 323 374 323 374 320.5 381.5 c 128,-1,52
 318 389 318 389 312 388 c 2,53,-1
 290 387 l 2,54,55
 266 385 266 385 251 385 c 0,56,57
 229 385 229 385 191 388 c 1,58,-1
 191 388 l 1,59,60
 185 389 185 389 182.5 381 c 128,-1,61
 180 373 180 373 182 365 c 128,-1,62
 184 357 184 357 190 357 c 2,63,-1
 213 355 l 1,64,-1
 246 268 l 1,65,-1
 199 119 l 1,13,-1
446 256 m 1,66,67
 446 256 446 256 446 257 c 0,68,69
 454 278 454 278 457 295 c 0,70,71
 462 326 462 326 457 365 c 1,72,73
 484 315 484 315 484 256 c 0,74,75
 484 193 484 193 453.5 140 c 128,-1,76
 423 87 423 87 371 57 c 1,77,-1
 446 256 l 1,66,67
156 49 m 1,78,79
 98 77 98 77 63 133 c 128,-1,80
 28 189 28 189 28 256 c 0,81,82
 28 306 28 306 47 348 c 1,83,-1
 156 49 l 1,78,79
259 219 m 1,84,-1
 325 40 l 1,85,86
 291 28 291 28 256 28 c 0,87,88
 225 28 225 28 197 37 c 1,89,-1
 259 219 l 1,84,-1
EndSplineSet
EndChar

StartChar: networking
Encoding: 154 62245 154
Width: 512
GlyphClass: 2
Flags: W
LayerCount: 2
Fore
SplineSet
461 179 m 1,0,-1
 486 179 l 2,1,2
 497 179 497 179 504.5 171.5 c 128,-1,3
 512 164 512 164 512 153 c 2,4,-1
 512 77 l 2,5,6
 512 66 512 66 504.5 58.5 c 128,-1,7
 497 51 497 51 486 51 c 2,8,-1
 384 51 l 2,9,10
 373 51 373 51 365.5 58.5 c 128,-1,11
 358 66 358 66 358 77 c 2,12,-1
 358 153 l 2,13,14
 358 164 358 164 365.5 171.5 c 128,-1,15
 373 179 373 179 384 179 c 2,16,-1
 410 179 l 1,17,-1
 410 230 l 1,18,-1
 282 230 l 1,19,-1
 282 179 l 1,20,-1
 307 179 l 2,21,22
 318 179 318 179 325.5 171.5 c 128,-1,23
 333 164 333 164 333 153 c 2,24,-1
 333 77 l 2,25,26
 333 66 333 66 325.5 58.5 c 128,-1,27
 318 51 318 51 307 51 c 2,28,-1
 205 51 l 2,29,30
 194 51 194 51 186.5 58.5 c 128,-1,31
 179 66 179 66 179 77 c 2,32,-1
 179 153 l 2,33,34
 179 164 179 164 186.5 171.5 c 128,-1,35
 194 179 194 179 205 179 c 2,36,-1
 230 179 l 1,37,-1
 230 230 l 1,38,-1
 102 230 l 1,39,-1
 102 179 l 1,40,-1
 128 179 l 2,41,42
 139 179 139 179 146.5 171.5 c 128,-1,43
 154 164 154 164 154 153 c 2,44,-1
 154 77 l 2,45,46
 154 66 154 66 146.5 58.5 c 128,-1,47
 139 51 139 51 128 51 c 2,48,-1
 26 51 l 2,49,50
 15 51 15 51 7.5 58.5 c 128,-1,51
 0 66 0 66 0 77 c 2,52,-1
 0 153 l 2,53,54
 0 164 0 164 7.5 171.5 c 128,-1,55
 15 179 15 179 26 179 c 2,56,-1
 51 179 l 1,57,-1
 51 230 l 2,58,59
 51 252 51 252 66 267 c 128,-1,60
 81 282 81 282 102 282 c 2,61,-1
 230 282 l 1,62,-1
 230 333 l 1,63,-1
 205 333 l 2,64,65
 194 333 194 333 186.5 340.5 c 128,-1,66
 179 348 179 348 179 359 c 2,67,-1
 179 435 l 2,68,69
 179 446 179 446 186.5 453.5 c 128,-1,70
 194 461 194 461 205 461 c 2,71,-1
 307 461 l 2,72,73
 318 461 318 461 325.5 453.5 c 128,-1,74
 333 446 333 446 333 435 c 2,75,-1
 333 359 l 2,76,77
 333 348 333 348 325.5 340.5 c 128,-1,78
 318 333 318 333 307 333 c 2,79,-1
 282 333 l 1,80,-1
 282 282 l 1,81,-1
 410 282 l 2,82,83
 431 282 431 282 446 267 c 128,-1,84
 461 252 461 252 461 230 c 2,85,-1
 461 179 l 1,0,-1
EndSplineSet
EndChar

StartChar: translation
Encoding: 155 62246 155
Width: 512
GlyphClass: 2
Flags: W
LayerCount: 2
Fore
SplineSet
282 333 m 1,0,-1
 243 333 l 2,1,2
 231 333 231 333 220 328 c 128,-1,3
 209 323 209 323 202 315 c 1,4,-1
 179 384 l 1,5,-1
 106 384 l 1,6,-1
 45 205 l 1,7,-1
 88 205 l 1,8,-1
 107 256 l 1,9,-1
 179 256 l 1,10,-1
 179 154 l 1,11,-1
 51 154 l 2,12,13
 30 154 30 154 15 169 c 128,-1,14
 0 184 0 184 0 205 c 2,15,-1
 0 384 l 2,16,17
 0 405 0 405 15 420 c 128,-1,18
 30 435 30 435 51 435 c 2,19,-1
 230 435 l 2,20,21
 252 435 252 435 267 420 c 128,-1,22
 282 405 282 405 282 384 c 2,23,-1
 282 333 l 1,0,-1
167 282 m 1,24,-1
 115 282 l 1,25,-1
 141 357 l 1,26,-1
 167 282 l 1,24,-1
256 307 m 2,27,-1
 435 307 l 2,28,29
 456 307 456 307 471 292 c 128,-1,30
 486 277 486 277 486 256 c 2,31,-1
 486 77 l 2,32,33
 486 56 486 56 471 41 c 128,-1,34
 456 26 456 26 435 26 c 2,35,-1
 256 26 l 2,36,37
 235 26 235 26 220 41 c 128,-1,38
 205 56 205 56 205 77 c 2,39,-1
 205 256 l 2,40,41
 205 277 205 277 220 292 c 128,-1,42
 235 307 235 307 256 307 c 2,27,-1
442 179 m 1,43,-1
 442 207 l 1,44,-1
 360 207 l 1,45,-1
 360 262 l 1,46,-1
 331 262 l 1,47,-1
 331 207 l 1,48,-1
 250 207 l 1,49,-1
 250 179 l 1,50,-1
 282 179 l 1,51,52
 285 162 285 162 293.5 144.5 c 128,-1,53
 302 127 302 127 315 112 c 1,54,55
 299 105 299 105 281.5 100.5 c 128,-1,56
 264 96 264 96 256 96 c 1,57,-1
 257 92 l 2,58,59
 262 68 262 68 261 59 c 1,60,61
 277 59 277 59 300.5 67.5 c 128,-1,62
 324 76 324 76 345 88 c 1,63,64
 366 76 366 76 390 67.5 c 128,-1,65
 414 59 414 59 431 59 c 1,66,67
 430 69 430 69 435 94 c 1,68,-1
 436 96 l 1,69,70
 427 96 427 96 409.5 101 c 128,-1,71
 392 106 392 106 375 112 c 1,72,73
 388 127 388 127 396.5 145 c 128,-1,74
 405 163 405 163 407 179 c 1,75,-1
 442 179 l 1,43,-1
344 130 m 2,76,77
 324 148 324 148 318 179 c 1,78,-1
 372 179 l 1,79,80
 365 148 365 148 346 130 c 2,81,-1
 345 129 l 1,82,-1
 344 130 l 2,76,77
EndSplineSet
EndChar

StartChar: edit-large
Encoding: 156 62247 156
Width: 512
GlyphClass: 2
Flags: W
LayerCount: 2
Fore
SplineSet
164 151 m 1,0,-1
 197 118 l 1,1,-1
 374 294 l 1,2,-1
 340 328 l 1,3,-1
 164 151 l 1,0,-1
325 343 m 1,4,-1
 292 376 l 1,5,-1
 115 200 l 1,6,-1
 151 164 l 1,7,-1
 325 343 l 1,4,-1
379 463 m 2,8,-1
 463 379 l 2,9,10
 474 368 474 368 473.5 353 c 128,-1,11
 473 338 473 338 463 328 c 2,12,-1
 210 74 l 1,13,-1
 33 38 l 1,14,-1
 69 215 l 1,15,16
 307 457 307 457 323 468 c 0,17,18
 335 477 335 477 351.5 475.5 c 128,-1,19
 368 474 368 474 379 463 c 2,8,-1
EndSplineSet
EndChar

StartChar: smiley
Encoding: 157 62248 157
Width: 512
GlyphClass: 2
Flags: W
LayerCount: 2
Fore
SplineSet
179 379 m 256,0,1
 200 379 200 379 215 364 c 128,-1,2
 230 349 230 349 230 328 c 0,3,4
 230 314 230 314 223 302 c 1,5,-1
 211 305 l 2,6,7
 195 307 195 307 179 307 c 0,8,9
 154 307 154 307 135 302 c 1,10,-1
 135 302 l 1,11,12
 128 314 128 314 128 328 c 0,13,14
 128 349 128 349 143 364 c 128,-1,15
 158 379 158 379 179 379 c 256,0,1
333 379 m 0,16,17
 354 379 354 379 369 364 c 128,-1,18
 384 349 384 349 384 328 c 0,19,20
 384 314 384 314 377 302 c 1,21,-1
 364 305 l 2,22,23
 349 307 349 307 333 307 c 0,24,25
 307 307 307 307 289 302 c 1,26,-1
 289 302 l 1,27,28
 282 314 282 314 282 328 c 0,29,30
 282 349 282 349 296.5 364 c 128,-1,31
 311 379 311 379 333 379 c 0,16,17
256 28 m 256,32,33
 327 28 327 28 385.5 69.5 c 128,-1,34
 444 111 444 111 467 179 c 1,35,-1
 433 190 l 1,36,37
 414 134 414 134 365 99 c 128,-1,38
 316 64 316 64 256 64 c 128,-1,39
 196 64 196 64 147 99 c 128,-1,40
 98 134 98 134 79 190 c 1,41,-1
 45 179 l 1,42,43
 68 111 68 111 126.5 69.5 c 128,-1,44
 185 28 185 28 256 28 c 256,32,33
EndSplineSet
EndChar

StartChar: menu-alt2
Encoding: 158 62249 158
Width: 512
GlyphClass: 2
Flags: W
LayerCount: 2
Fore
SplineSet
128 128 m 1,0,-1
 384 128 l 1,1,-1
 384 179 l 1,2,-1
 128 179 l 1,3,-1
 128 128 l 1,0,-1
128 384 m 1,4,-1
 128 333 l 1,5,-1
 384 333 l 1,6,-1
 384 384 l 1,7,-1
 128 384 l 1,4,-1
128 230 m 1,8,-1
 384 230 l 1,9,-1
 384 282 l 1,10,-1
 128 282 l 1,11,-1
 128 230 l 1,8,-1
EndSplineSet
EndChar

StartChar: book
Encoding: 159 62256 159
Width: 512
GlyphClass: 2
Flags: W
LayerCount: 2
Fore
SplineSet
410 435 m 1,0,-1
 461 435 l 1,1,-1
 461 26 l 1,2,-1
 128 26 l 2,3,4
 96 26 96 26 73.5 48.5 c 128,-1,5
 51 71 51 71 51 102 c 2,6,-1
 51 410 l 2,7,8
 51 441 51 441 73.5 463.5 c 128,-1,9
 96 486 96 486 128 486 c 2,10,-1
 358 486 l 1,11,-1
 358 128 l 1,12,-1
 128 128 l 2,13,14
 117 128 117 128 109.5 120.5 c 128,-1,15
 102 113 102 113 102 102.5 c 128,-1,16
 102 92 102 92 109.5 84.5 c 128,-1,17
 117 77 117 77 128 77 c 2,18,-1
 410 77 l 1,19,-1
 410 435 l 1,0,-1
EndSplineSet
EndChar

StartChar: book-alt
Encoding: 160 62257 160
Width: 512
GlyphClass: 2
Flags: W
LayerCount: 2
Fore
SplineSet
128 77 m 2,0,-1
 461 77 l 1,1,-1
 461 26 l 1,2,-1
 128 26 l 2,3,4
 96 26 96 26 73.5 48.5 c 128,-1,5
 51 71 51 71 51 102 c 2,6,-1
 51 410 l 2,7,8
 51 441 51 441 73.5 463.5 c 128,-1,9
 96 486 96 486 128 486 c 2,10,-1
 461 486 l 1,11,-1
 461 128 l 1,12,-1
 128 128 l 2,13,14
 117 128 117 128 109.5 120.5 c 128,-1,15
 102 113 102 113 102 102.5 c 128,-1,16
 102 92 102 92 109.5 84.5 c 128,-1,17
 117 77 117 77 128 77 c 2,0,-1
179 166 m 2,18,-1
 179 448 l 2,19,20
 179 453 179 453 175.5 457 c 128,-1,21
 172 461 172 461 166.5 461 c 128,-1,22
 161 461 161 461 157.5 457 c 128,-1,23
 154 453 154 453 154 448 c 2,24,-1
 154 166 l 2,25,26
 154 161 154 161 157.5 157.5 c 128,-1,27
 161 154 161 154 166.5 154 c 128,-1,28
 172 154 172 154 175.5 157.5 c 128,-1,29
 179 161 179 161 179 166 c 2,18,-1
EndSplineSet
EndChar

StartChar: shield
Encoding: 161 62258 161
Width: 512
GlyphClass: 2
Flags: W
LayerCount: 2
Fore
SplineSet
256 461 m 1,0,1
 263 457 263 457 270 453 c 0,2,3
 287 443 287 443 307 435 c 0,4,5
 335 424 335 424 364 418 c 0,6,7
 400 410 400 410 435 410 c 1,8,9
 435 284 435 284 389 192 c 0,10,11
 356 125 356 125 302 82 c 0,12,13
 276 60 276 60 256 51 c 1,14,-1
 248 55 l 2,15,16
 238 60 238 60 228 68 c 0,17,18
 213 78 213 78 199 90 c 0,19,20
 182 106 182 106 166 125 c 0,21,22
 148 147 148 147 134 172 c 0,23,24
 117 202 117 202 105 235 c 0,25,26
 91 272 91 272 85 313 c 0,27,28
 77 359 77 359 77 410 c 1,29,30
 141 410 141 410 205 435 c 0,31,32
 237 448 237 448 256 461 c 1,33,-1
 256 461 l 1,0,1
256 256 m 1,34,-1
 384 256 l 1,35,-1
 388 262 l 2,36,37
 393 270 393 270 397 282 c 0,38,39
 402 298 402 298 406 321 c 0,40,41
 410 349 410 349 410 384 c 1,42,-1
 375 392 l 2,43,44
 336 401 336 401 307 411 c 0,45,46
 267 424 267 424 256 435 c 1,47,-1
 256 256 l 1,48,-1
 128 256 l 1,49,50
 137 221 137 221 159 185 c 0,51,52
 176 156 176 156 202 128 c 0,53,54
 220 108 220 108 240 90 c 2,55,-1
 256 77 l 1,56,-1
 256 256 l 1,34,-1
EndSplineSet
EndChar

StartChar: menu
Encoding: 162 62259 162
Width: 512
GlyphClass: 2
Flags: W
LayerCount: 2
Fore
SplineSet
77 128 m 1,0,-1
 435 128 l 1,1,-1
 435 179 l 1,2,-1
 77 179 l 1,3,-1
 77 128 l 1,0,-1
77 384 m 1,4,-1
 77 333 l 1,5,-1
 435 333 l 1,6,-1
 435 384 l 1,7,-1
 77 384 l 1,4,-1
77 230 m 1,8,-1
 435 230 l 1,9,-1
 435 282 l 1,10,-1
 77 282 l 1,11,-1
 77 230 l 1,8,-1
EndSplineSet
EndChar

StartChar: shield-alt
Encoding: 163 62260 163
Width: 512
GlyphClass: 2
Flags: W
LayerCount: 2
Fore
SplineSet
256 461 m 1,0,1
 263 457 263 457 270 453 c 0,2,3
 287 443 287 443 307 435 c 0,4,5
 335 424 335 424 364 418 c 0,6,7
 400 410 400 410 435 410 c 1,8,9
 435 284 435 284 389 192 c 0,10,11
 356 125 356 125 302 82 c 0,12,13
 276 60 276 60 256 51 c 1,14,-1
 248 55 l 2,15,16
 238 60 238 60 228 68 c 0,17,18
 213 78 213 78 199 90 c 0,19,20
 182 106 182 106 166 125 c 0,21,22
 148 147 148 147 134 172 c 0,23,24
 117 202 117 202 105 235 c 0,25,26
 91 272 91 272 85 313 c 0,27,28
 77 359 77 359 77 410 c 1,29,30
 141 410 141 410 205 435 c 0,31,32
 237 448 237 448 256 461 c 1,33,-1
 256 461 l 1,0,1
EndSplineSet
EndChar

StartChar: no-alt
Encoding: 164 62261 164
Width: 512
GlyphClass: 2
Flags: W
LayerCount: 2
Fore
SplineSet
383 347 m 1,0,-1
 292 256 l 1,1,-1
 383 165 l 1,2,-1
 347 129 l 1,3,-1
 256 220 l 1,4,-1
 166 129 l 1,5,-1
 129 166 l 1,6,-1
 220 256 l 1,7,-1
 129 346 l 1,8,-1
 166 383 l 1,9,-1
 256 292 l 1,10,-1
 347 383 l 1,11,-1
 383 347 l 1,0,-1
EndSplineSet
EndChar

StartChar: id
Encoding: 165 62262 165
Width: 512
GlyphClass: 2
Flags: W
LayerCount: 2
Fore
SplineSet
461 102 m 1,0,-1
 51 102 l 1,1,-1
 51 410 l 1,2,-1
 461 410 l 1,3,-1
 461 102 l 1,0,-1
180 294 m 0,4,5
 185 296 185 296 189 300 c 128,-1,6
 193 304 193 304 195 308 c 2,7,-1
 199 318 l 1,8,-1
 202 327 l 1,9,-1
 204 335 l 2,10,11
 206 347 206 347 203 358 c 128,-1,12
 200 369 200 369 191 376.5 c 128,-1,13
 182 384 182 384 169 384 c 0,14,15
 161 384 161 384 154.5 381 c 128,-1,16
 148 378 148 378 144 373 c 128,-1,17
 140 368 140 368 137.5 362 c 128,-1,18
 135 356 135 356 134 349 c 0,19,20
 134 345 134 345 134 335 c 2,21,-1
 139 318 l 2,22,23
 141 313 141 313 144 308 c 128,-1,24
 147 303 147 303 150.5 299.5 c 128,-1,25
 154 296 154 296 158.5 293.5 c 128,-1,26
 163 291 163 291 169 291 c 128,-1,27
 175 291 175 291 180 294 c 0,4,5
435 282 m 1,28,-1
 435 384 l 1,29,-1
 307 384 l 1,30,-1
 307 282 l 1,31,-1
 435 282 l 1,28,-1
169 260 m 1,32,-1
 134 283 l 1,33,34
 119 283 119 283 105 274.5 c 128,-1,35
 91 266 91 266 84 253 c 128,-1,36
 77 240 77 240 77 226 c 2,37,-1
 77 194 l 1,38,-1
 82 192 l 2,39,40
 88 190 88 190 96 189 c 0,41,42
 107 186 107 186 116 184.5 c 128,-1,43
 125 183 125 183 142 181 c 0,44,45
 156 179 156 179 169 179 c 128,-1,46
 182 179 182 179 197 181 c 0,47,48
 209 182 209 182 222 184 c 2,49,-1
 243 189 l 1,50,-1
 262 194 l 1,51,-1
 262 226 l 2,52,53
 262 240 262 240 254 253.5 c 128,-1,54
 246 267 246 267 232.5 275 c 128,-1,55
 219 283 219 283 204 283 c 1,56,-1
 169 260 l 1,32,-1
435 230 m 1,57,-1
 435 256 l 1,58,-1
 307 256 l 1,59,-1
 307 230 l 1,60,-1
 435 230 l 1,57,-1
435 179 m 1,61,-1
 435 205 l 1,62,-1
 307 205 l 1,63,-1
 307 179 l 1,64,-1
 435 179 l 1,61,-1
435 128 m 1,65,-1
 435 154 l 1,66,-1
 77 154 l 1,67,-1
 77 128 l 1,68,-1
 435 128 l 1,65,-1
EndSplineSet
EndChar

StartChar: id-alt
Encoding: 166 62263 166
Width: 512
GlyphClass: 2
Flags: W
LayerCount: 2
Fore
SplineSet
461 51 m 1,0,-1
 51 51 l 1,1,-1
 51 461 l 1,2,-1
 461 461 l 1,3,-1
 461 51 l 1,0,-1
206 319 m 0,4,5
 211 322 211 322 214.5 325.5 c 128,-1,6
 218 329 218 329 221 334 c 2,7,-1
 225 344 l 1,8,-1
 228 352 l 1,9,-1
 229 361 l 2,10,11
 231 372 231 372 228 383.5 c 128,-1,12
 225 395 225 395 216.5 402.5 c 128,-1,13
 208 410 208 410 195 410 c 0,14,15
 187 410 187 410 180 407 c 128,-1,16
 173 404 173 404 169 399 c 128,-1,17
 165 394 165 394 162.5 388 c 128,-1,18
 160 382 160 382 160 375 c 0,19,20
 159 370 159 370 160 361 c 2,21,-1
 165 344 l 2,22,23
 166 339 166 339 169 334 c 128,-1,24
 172 329 172 329 175.5 325 c 128,-1,25
 179 321 179 321 184 319 c 128,-1,26
 189 317 189 317 195 317 c 128,-1,27
 201 317 201 317 206 319 c 0,4,5
410 384 m 1,28,-1
 410 410 l 1,29,-1
 282 410 l 1,30,-1
 282 384 l 1,31,-1
 410 384 l 1,28,-1
410 333 m 1,32,-1
 410 358 l 1,33,-1
 282 358 l 1,34,-1
 282 333 l 1,35,-1
 410 333 l 1,32,-1
195 286 m 1,36,-1
 160 308 l 1,37,38
 144 308 144 308 130.5 300 c 128,-1,39
 117 292 117 292 109.5 278.5 c 128,-1,40
 102 265 102 265 102 251 c 2,41,-1
 102 219 l 1,42,-1
 108 218 l 2,43,44
 114 216 114 216 122 214 c 0,45,46
 132 212 132 212 141.5 210 c 128,-1,47
 151 208 151 208 168 206 c 0,48,49
 182 205 182 205 195 205 c 128,-1,50
 208 205 208 205 222 206 c 0,51,52
 235 208 235 208 248 210 c 2,53,-1
 269 214 l 1,54,-1
 288 219 l 1,55,-1
 288 251 l 2,56,57
 288 265 288 265 280 278.5 c 128,-1,58
 272 292 272 292 258.5 300.5 c 128,-1,59
 245 309 245 309 230 309 c 1,60,-1
 195 286 l 1,36,-1
410 282 m 1,61,-1
 410 307 l 1,62,-1
 333 307 l 1,63,-1
 333 282 l 1,64,-1
 410 282 l 1,61,-1
410 230 m 1,65,-1
 410 256 l 1,66,-1
 333 256 l 1,67,-1
 333 230 l 1,68,-1
 410 230 l 1,65,-1
410 154 m 1,69,-1
 410 179 l 1,70,-1
 102 179 l 1,71,-1
 102 154 l 1,72,-1
 410 154 l 1,69,-1
410 102 m 1,73,-1
 410 128 l 1,74,-1
 102 128 l 1,75,-1
 102 102 l 1,76,-1
 410 102 l 1,73,-1
EndSplineSet
EndChar

StartChar: businessman
Encoding: 167 62264 167
Width: 512
GlyphClass: 2
Flags: W
LayerCount: 2
Fore
SplineSet
435 79 m 1,0,-1
 435 143 l 2,1,2
 435 175 435 175 422 197 c 0,3,4
 405 227 405 227 381 241 c 0,5,6
 370 249 370 249 344 253 c 0,7,8
 326 256 326 256 307 256 c 1,9,-1
 266 212 l 1,10,-1
 282 179 l 1,11,-1
 282 102 l 1,12,-1
 256 74 l 1,13,-1
 230 102 l 1,14,-1
 230 179 l 1,15,-1
 248 212 l 1,16,-1
 205 256 l 1,17,18
 184 256 184 256 165 253 c 0,19,20
 140 249 140 249 128 241.5 c 128,-1,21
 116 234 116 234 106 222 c 0,22,23
 99 213 99 213 90 197 c 0,24,25
 82 184 82 184 79.5 172 c 128,-1,26
 77 160 77 160 77 143 c 2,27,-1
 77 79 l 1,28,-1
 98 72 l 2,29,30
 126 64 126 64 159 59 c 0,31,32
 206 51 206 51 256 51 c 0,33,34
 326 51 326 51 388 65 c 0,35,36
 419 72 419 72 435 79 c 1,37,-1
 435 79 l 1,0,-1
256 458 m 256,38,39
 220 458 220 458 200.5 429 c 128,-1,40
 181 400 181 400 187 361 c 128,-1,41
 193 322 193 322 211.5 298 c 128,-1,42
 230 274 230 274 256 274 c 128,-1,43
 282 274 282 274 300.5 298 c 128,-1,44
 319 322 319 322 325 362 c 128,-1,45
 331 402 331 402 311.5 430 c 128,-1,46
 292 458 292 458 256 458 c 256,38,39
EndSplineSet
EndChar

StartChar: lightbulb
Encoding: 168 62265 168
Width: 512
GlyphClass: 2
Flags: W
LayerCount: 2
Fore
SplineSet
256 486 m 256,0,1
 295 486 295 486 328 467 c 128,-1,2
 361 448 361 448 380.5 415 c 128,-1,3
 400 382 400 382 400 343 c 0,4,5
 400 322 400 322 387 291 c 0,6,7
 377 269 377 269 362 245 c 2,8,-1
 348 225 l 2,9,10
 342 217 342 217 337.5 203.5 c 128,-1,11
 333 190 333 190 333 179 c 2,12,-1
 333 154 l 2,13,14
 333 143 333 143 325.5 135.5 c 128,-1,15
 318 128 318 128 307 128 c 2,16,-1
 205 128 l 2,17,18
 194 128 194 128 186.5 135.5 c 128,-1,19
 179 143 179 143 179 154 c 2,20,-1
 179 179 l 2,21,22
 179 190 179 190 174.5 203.5 c 128,-1,23
 170 217 170 217 164 225 c 2,24,-1
 150 245 l 2,25,26
 135 269 135 269 126 291 c 0,27,28
 112 322 112 322 112 343 c 0,29,30
 112 382 112 382 131.5 415 c 128,-1,31
 151 448 151 448 184 467 c 128,-1,32
 217 486 217 486 256 486 c 256,0,1
179 80 m 2,33,-1
 179 102 l 1,34,-1
 333 102 l 1,35,-1
 333 80 l 2,36,37
 333 67 333 67 329 59 c 128,-1,38
 325 51 325 51 314 51 c 2,39,-1
 307 51 l 1,40,41
 307 39 307 39 300 32.5 c 128,-1,42
 293 26 293 26 281 26 c 2,43,-1
 230 26 l 2,44,45
 218 26 218 26 211.5 32.5 c 128,-1,46
 205 39 205 39 205 51 c 1,47,-1
 198 51 l 2,48,49
 187 51 187 51 183 59 c 128,-1,50
 179 67 179 67 179 80 c 2,33,-1
EndSplineSet
EndChar

StartChar: arrow-left-alt
Encoding: 169 62272 169
Width: 512
GlyphClass: 2
Flags: W
LayerCount: 2
Fore
SplineSet
461 282 m 1,0,-1
 461 230 l 1,1,-1
 154 230 l 1,2,-1
 256 128 l 1,3,-1
 230 77 l 1,4,-1
 51 256 l 1,5,-1
 230 435 l 1,6,-1
 256 384 l 1,7,-1
 154 282 l 1,8,-1
 461 282 l 1,0,-1
EndSplineSet
EndChar

StartChar: arrow-left-alt2
Encoding: 170 62273 170
Width: 512
GlyphClass: 2
Flags: W
LayerCount: 2
Fore
SplineSet
358 384 m 1,0,-1
 230 256 l 1,1,-1
 358 128 l 1,2,-1
 333 77 l 1,3,-1
 154 256 l 1,4,-1
 333 435 l 1,5,-1
 358 384 l 1,0,-1
EndSplineSet
EndChar

StartChar: arrow-up-alt
Encoding: 171 62274 171
Width: 512
GlyphClass: 2
Flags: W
LayerCount: 2
Fore
SplineSet
282 51 m 1,0,-1
 230 51 l 1,1,-1
 230 358 l 1,2,-1
 128 256 l 1,3,-1
 77 282 l 1,4,-1
 256 461 l 1,5,-1
 435 282 l 1,6,-1
 384 256 l 1,7,-1
 282 358 l 1,8,-1
 282 51 l 1,0,-1
EndSplineSet
EndChar

StartChar: arrow-up-alt2
Encoding: 172 62275 172
Width: 512
GlyphClass: 2
Flags: W
LayerCount: 2
Fore
SplineSet
384 154 m 1,0,-1
 256 282 l 1,1,-1
 128 154 l 1,2,-1
 77 179 l 1,3,-1
 256 358 l 1,4,-1
 435 179 l 1,5,-1
 384 154 l 1,0,-1
EndSplineSet
EndChar

StartChar: arrow-right-alt
Encoding: 173 62276 173
Width: 512
GlyphClass: 2
Flags: W
LayerCount: 2
Fore
SplineSet
51 230 m 1,0,-1
 51 282 l 1,1,-1
 358 282 l 1,2,-1
 256 384 l 1,3,-1
 282 435 l 1,4,-1
 461 256 l 1,5,-1
 282 77 l 1,6,-1
 256 128 l 1,7,-1
 358 230 l 1,8,-1
 51 230 l 1,0,-1
EndSplineSet
EndChar

StartChar: arrow-right-alt2
Encoding: 174 62277 174
Width: 512
GlyphClass: 2
Flags: W
LayerCount: 2
Fore
SplineSet
154 128 m 1,0,-1
 282 256 l 1,1,-1
 154 384 l 1,2,-1
 179 435 l 1,3,-1
 358 256 l 1,4,-1
 179 77 l 1,5,-1
 154 128 l 1,0,-1
EndSplineSet
EndChar

StartChar: arrow-down-alt
Encoding: 175 62278 175
Width: 512
GlyphClass: 2
Flags: W
LayerCount: 2
Fore
SplineSet
230 461 m 1,0,-1
 282 461 l 1,1,-1
 282 154 l 1,2,-1
 384 256 l 1,3,-1
 435 230 l 1,4,-1
 256 51 l 1,5,-1
 77 230 l 1,6,-1
 128 256 l 1,7,-1
 230 154 l 1,8,-1
 230 461 l 1,0,-1
EndSplineSet
EndChar

StartChar: arrow-down-alt2
Encoding: 176 62279 176
Width: 512
GlyphClass: 2
Flags: W
LayerCount: 2
Fore
SplineSet
128 358 m 1,0,-1
 256 230 l 1,1,-1
 384 358 l 1,2,-1
 435 333 l 1,3,-1
 256 154 l 1,4,-1
 77 333 l 1,5,-1
 128 358 l 1,0,-1
EndSplineSet
EndChar

StartChar: info
Encoding: 177 62280 177
Width: 512
GlyphClass: 2
Flags: W
LayerCount: 2
Fore
SplineSet
256 461 m 256,0,1
 312 461 312 461 359 433.5 c 128,-1,2
 406 406 406 406 433.5 359 c 128,-1,3
 461 312 461 312 461 256 c 128,-1,4
 461 200 461 200 433.5 153 c 128,-1,5
 406 106 406 106 359 78.5 c 128,-1,6
 312 51 312 51 256 51 c 128,-1,7
 200 51 200 51 153 78.5 c 128,-1,8
 106 106 106 106 78.5 153 c 128,-1,9
 51 200 51 200 51 256 c 128,-1,10
 51 312 51 312 78.5 359 c 128,-1,11
 106 406 106 406 153 433.5 c 128,-1,12
 200 461 200 461 256 461 c 256,0,1
282 358 m 0,13,14
 282 369 282 369 274.5 376.5 c 128,-1,15
 267 384 267 384 256 384 c 128,-1,16
 245 384 245 384 237.5 376.5 c 128,-1,17
 230 369 230 369 230 358.5 c 128,-1,18
 230 348 230 348 237.5 340.5 c 128,-1,19
 245 333 245 333 256 333 c 128,-1,20
 267 333 267 333 274.5 340.5 c 128,-1,21
 282 348 282 348 282 358 c 0,13,14
282 128 m 1,22,-1
 282 282 l 1,23,-1
 230 282 l 1,24,-1
 230 128 l 1,25,-1
 282 128 l 1,22,-1
EndSplineSet
EndChar

StartChar: menu-alt3
Encoding: 178 62281 178
Width: 512
GlyphClass: 2
Flags: W
LayerCount: 2
Fore
SplineSet
512 384 m 1,0,-1
 512 461 l 1,1,-1
 0 461 l 1,2,-1
 0 384 l 1,3,-1
 512 384 l 1,0,-1
512 230 m 1,4,-1
 512 307 l 1,5,-1
 0 307 l 1,6,-1
 0 230 l 1,7,-1
 512 230 l 1,4,-1
512 77 m 1,8,-1
 512 154 l 1,9,-1
 0 154 l 1,10,-1
 0 77 l 1,11,-1
 512 77 l 1,8,-1
EndSplineSet
EndChar

StartChar: buddicons-buddypress-logo
Encoding: 179 62536 179
Width: 512
GlyphClass: 2
Flags: W
LayerCount: 2
Fore
SplineSet
256 512 m 256,0,1
 326 512 326 512 384.5 477.5 c 128,-1,2
 443 443 443 443 477.5 384.5 c 128,-1,3
 512 326 512 326 512 256 c 128,-1,4
 512 186 512 186 477.5 127.5 c 128,-1,5
 443 69 443 69 384.5 34.5 c 128,-1,6
 326 0 326 0 256 0 c 128,-1,7
 186 0 186 0 127.5 34.5 c 128,-1,8
 69 69 69 69 34.5 127.5 c 128,-1,9
 0 186 0 186 0 256 c 128,-1,10
 0 326 0 326 34.5 384.5 c 128,-1,11
 69 443 69 443 127.5 477.5 c 128,-1,12
 186 512 186 512 256 512 c 256,0,1
256 499 m 256,13,14
 190 499 190 499 134 466.5 c 128,-1,15
 78 434 78 434 45.5 378 c 128,-1,16
 13 322 13 322 13 256 c 128,-1,17
 13 190 13 190 45.5 134 c 128,-1,18
 78 78 78 78 134 45.5 c 128,-1,19
 190 13 190 13 256 13 c 128,-1,20
 322 13 322 13 378 45.5 c 128,-1,21
 434 78 434 78 466.5 134 c 128,-1,22
 499 190 499 190 499 256 c 128,-1,23
 499 322 499 322 466.5 378 c 128,-1,24
 434 434 434 434 378 466.5 c 128,-1,25
 322 499 322 499 256 499 c 256,13,14
256 474 m 256,26,27
 315 474 315 474 365 444.5 c 128,-1,28
 415 415 415 415 444.5 365 c 128,-1,29
 474 315 474 315 474 256 c 128,-1,30
 474 197 474 197 444.5 147 c 128,-1,31
 415 97 415 97 365 67.5 c 128,-1,32
 315 38 315 38 256 38 c 128,-1,33
 197 38 197 38 147 67.5 c 128,-1,34
 97 97 97 97 67.5 147 c 128,-1,35
 38 197 38 197 38 256 c 128,-1,36
 38 315 38 315 67.5 365 c 128,-1,37
 97 415 97 415 147 444.5 c 128,-1,38
 197 474 197 474 256 474 c 256,26,27
302 430 m 0,39,40
 281 430 281 430 262 418 c 1,41,42
 293 411 293 411 312.5 386.5 c 128,-1,43
 332 362 332 362 332 330 c 0,44,45
 332 304 332 304 318 282 c 1,46,47
 344 288 344 288 360.5 308 c 128,-1,48
 377 328 377 328 377 355 c 0,49,50
 377 386 377 386 355 408 c 128,-1,51
 333 430 333 430 302 430 c 0,39,40
241 404 m 256,52,53
 210 404 210 404 188 382 c 128,-1,54
 166 360 166 360 166 329 c 128,-1,55
 166 298 166 298 188 276 c 128,-1,56
 210 254 210 254 241 254 c 128,-1,57
 272 254 272 254 294 276 c 128,-1,58
 316 298 316 298 316 329 c 128,-1,59
 316 360 316 360 294 382 c 128,-1,60
 272 404 272 404 241 404 c 256,52,53
350 276 m 1,61,-1
 337 261 l 1,62,63
 357 255 357 255 372 239 c 0,64,65
 384 226 384 226 391 208 c 0,66,67
 396 195 396 195 398 180 c 2,68,-1
 400 168 l 1,69,-1
 432 168 l 1,70,71
 432 222 432 222 411 250 c 0,72,73
 396 270 396 270 371 275 c 0,74,75
 359 277 359 277 350 276 c 1,76,-1
 350 276 l 1,61,-1
296 255 m 1,77,-1
 242 202 l 1,78,-1
 188 255 l 1,79,80
 151 254 151 254 128 233 c 0,81,82
 111 217 111 217 103 190 c 0,83,84
 98 170 98 170 98 147 c 2,85,-1
 100 128 l 1,86,-1
 383 128 l 1,87,88
 387 164 387 164 379 190 c 0,89,90
 372 213 372 213 358 228 c 0,91,92
 346 240 346 240 330 247 c 0,93,94
 319 252 319 252 306 254 c 2,95,-1
 296 255 l 1,77,-1
EndSplineSet
EndChar

StartChar: buddicons-forums
Encoding: 180 62537 180
Width: 512
GlyphClass: 2
Flags: W
LayerCount: 2
Fore
SplineSet
346 333 m 2,0,-1
 166 333 l 2,1,2
 150 333 150 333 139 344 c 128,-1,3
 128 355 128 355 128 371 c 128,-1,4
 128 387 128 387 139 398.5 c 128,-1,5
 150 410 150 410 166 410 c 2,6,-1
 207 410 l 1,7,8
 205 417 205 417 205 422 c 0,9,10
 205 438 205 438 216 449.5 c 128,-1,11
 227 461 227 461 243 461 c 2,12,-1
 269 461 l 2,13,14
 285 461 285 461 296 449.5 c 128,-1,15
 307 438 307 438 307 422 c 0,16,17
 307 417 307 417 305 410 c 1,18,-1
 346 410 l 2,19,20
 362 410 362 410 373 398.5 c 128,-1,21
 384 387 384 387 384 371 c 128,-1,22
 384 355 384 355 373 344 c 128,-1,23
 362 333 362 333 346 333 c 2,0,-1
102 307 m 2,24,-1
 410 307 l 2,25,26
 420 307 420 307 427.5 299.5 c 128,-1,27
 435 292 435 292 435 281.5 c 128,-1,28
 435 271 435 271 427.5 263.5 c 128,-1,29
 420 256 420 256 410 256 c 2,30,-1
 102 256 l 2,31,32
 92 256 92 256 84.5 263.5 c 128,-1,33
 77 271 77 271 77 281.5 c 128,-1,34
 77 292 77 292 84.5 299.5 c 128,-1,35
 92 307 92 307 102 307 c 2,24,-1
128 230 m 2,36,-1
 384 230 l 2,37,38
 395 230 395 230 402.5 222.5 c 128,-1,39
 410 215 410 215 410 204.5 c 128,-1,40
 410 194 410 194 402.5 186.5 c 128,-1,41
 395 179 395 179 384 179 c 2,42,-1
 128 179 l 2,43,44
 117 179 117 179 109.5 186.5 c 128,-1,45
 102 194 102 194 102 204.5 c 128,-1,46
 102 215 102 215 109.5 222.5 c 128,-1,47
 117 230 117 230 128 230 c 2,36,-1
179 154 m 2,48,-1
 333 154 l 2,49,50
 343 154 343 154 350.5 146.5 c 128,-1,51
 358 139 358 139 358 128 c 128,-1,52
 358 117 358 117 350.5 109.5 c 128,-1,53
 343 102 343 102 333 102 c 2,54,-1
 305 102 l 1,55,56
 307 95 307 95 307 90 c 0,57,58
 307 74 307 74 296 62.5 c 128,-1,59
 285 51 285 51 269 51 c 2,60,-1
 243 51 l 2,61,62
 227 51 227 51 216 62.5 c 128,-1,63
 205 74 205 74 205 90 c 0,64,65
 205 95 205 95 207 102 c 1,66,-1
 179 102 l 2,67,68
 169 102 169 102 161.5 109.5 c 128,-1,69
 154 117 154 117 154 128 c 128,-1,70
 154 139 154 139 161.5 146.5 c 128,-1,71
 169 154 169 154 179 154 c 2,48,-1
EndSplineSet
EndChar

StartChar: buddicons-topics
Encoding: 181 62544 181
Width: 512
GlyphClass: 2
Flags: W
LayerCount: 2
Fore
SplineSet
267 470 m 0,0,1
 256 481 256 481 240 481 c 128,-1,2
 224 481 224 481 213 470 c 2,3,-1
 68 325 l 2,4,5
 57 313 57 313 57 297.5 c 128,-1,6
 57 282 57 282 68 270.5 c 128,-1,7
 79 259 79 259 95 259 c 128,-1,8
 111 259 111 259 122 270 c 2,9,-1
 267 415 l 2,10,11
 278 426 278 426 278.5 442 c 128,-1,12
 279 458 279 458 267 470 c 0,0,1
340 397 m 0,13,14
 328 408 328 408 312.5 408 c 128,-1,15
 297 408 297 408 285 397 c 2,16,-1
 141 252 l 2,17,18
 129 241 129 241 129 225 c 128,-1,19
 129 209 129 209 140.5 198 c 128,-1,20
 152 187 152 187 168 187 c 128,-1,21
 184 187 184 187 195 198 c 2,22,-1
 340 343 l 2,23,24
 351 354 351 354 351 370 c 128,-1,25
 351 386 351 386 340 397 c 0,13,14
367 225 m 1,26,-1
 474 118 l 2,27,28
 485 107 485 107 485 91 c 128,-1,29
 485 75 485 75 474 63.5 c 128,-1,30
 463 52 463 52 447 52 c 128,-1,31
 431 52 431 52 420 64 c 2,32,-1
 313 171 l 1,33,-1
 267 125 l 2,34,35
 256 114 256 114 240 114 c 128,-1,36
 224 114 224 114 213 125.5 c 128,-1,37
 202 137 202 137 202 153 c 128,-1,38
 202 169 202 169 213 180 c 2,39,-1
 358 325 l 2,40,41
 369 336 369 336 385 336 c 128,-1,42
 401 336 401 336 412 324.5 c 128,-1,43
 423 313 423 313 423 297.5 c 128,-1,44
 423 282 423 282 412 270 c 2,45,-1
 367 225 l 1,26,-1
128 128 m 0,46,47
 128 146 128 146 117 173 c 0,48,49
 109 192 109 192 97 213 c 2,50,-1
 86 230 l 1,51,-1
 77 211 l 2,52,53
 66 187 66 187 60 168 c 0,54,55
 51 142 51 142 51 128 c 0,56,57
 51 105 51 105 61 91 c 128,-1,58
 71 77 71 77 86 77 c 2,59,-1
 94 77 l 2,60,61
 128 77 128 77 128 128 c 0,46,47
EndSplineSet
EndChar

StartChar: buddicons-replies
Encoding: 182 62545 182
Width: 512
GlyphClass: 2
Flags: W
LayerCount: 2
Fore
SplineSet
449 249 m 1,0,1
 471 226 471 226 471 194 c 128,-1,2
 471 162 471 162 448.5 139.5 c 128,-1,3
 426 117 426 117 394.5 117 c 128,-1,4
 363 117 363 117 340 140 c 1,5,-1
 332 153 l 1,6,7
 332 115 332 115 320 87 c 0,8,9
 311 66 311 66 293 50 c 0,10,11
 284 42 284 42 265 31 c 2,12,-1
 256 26 l 1,13,-1
 245 32 l 2,14,15
 227 44 227 44 217 52 c 0,16,17
 201 68 201 68 192 89 c 0,18,19
 180 116 180 116 180 153 c 1,20,-1
 172 140 l 1,21,22
 149 117 149 117 117.5 117 c 128,-1,23
 86 117 86 117 63.5 139.5 c 128,-1,24
 41 162 41 162 41 194 c 128,-1,25
 41 226 41 226 63 249 c 1,26,-1
 79 259 l 2,27,28
 99 272 99 272 117 282 c 1,29,30
 82 329 82 329 82 387 c 0,31,32
 82 399 82 399 84 413 c 1,33,34
 89 379 89 379 105.5 350 c 128,-1,35
 122 321 122 321 148 300 c 1,36,37
 162 307 162 307 181 314 c 128,-1,38
 200 321 200 321 209 323 c 1,39,-1
 205 323 l 2,40,41
 184 323 184 323 169 338 c 128,-1,42
 154 353 154 353 154 374 c 128,-1,43
 154 395 154 395 169 410 c 128,-1,44
 184 425 184 425 205 425 c 1,45,-1
 205 438 l 2,46,47
 205 444 205 444 208.5 447.5 c 128,-1,48
 212 451 212 451 217.5 451 c 128,-1,49
 223 451 223 451 226.5 447.5 c 128,-1,50
 230 444 230 444 230 438 c 2,51,-1
 230 425 l 1,52,-1
 282 425 l 1,53,-1
 282 438 l 2,54,55
 282 444 282 444 285.5 447.5 c 128,-1,56
 289 451 289 451 294.5 451 c 128,-1,57
 300 451 300 451 303.5 447.5 c 128,-1,58
 307 444 307 444 307 438 c 2,59,-1
 307 425 l 1,60,61
 328 425 328 425 343 410 c 128,-1,62
 358 395 358 395 358 374 c 128,-1,63
 358 353 358 353 343 338 c 128,-1,64
 328 323 328 323 307 323 c 2,65,-1
 303 323 l 1,66,67
 312 321 312 321 331.5 313.5 c 128,-1,68
 351 306 351 306 364 300 c 1,69,70
 390 321 390 321 407 350 c 128,-1,71
 424 379 424 379 428 413 c 1,72,73
 430 399 430 399 430 387 c 0,74,75
 430 329 430 329 396 282 c 1,76,77
 423 266 423 266 449 249 c 1,78,-1
 449 249 l 1,0,1
218 349 m 0,79,80
 227 349 227 349 235 356.5 c 128,-1,81
 243 364 243 364 243 374.5 c 128,-1,82
 243 385 243 385 235.5 392.5 c 128,-1,83
 228 400 228 400 217.5 400 c 128,-1,84
 207 400 207 400 199.5 392.5 c 128,-1,85
 192 385 192 385 192 374.5 c 128,-1,86
 192 364 192 364 199.5 356.5 c 128,-1,87
 207 349 207 349 218 349 c 0,79,80
294 400 m 0,88,89
 284 400 284 400 276.5 392.5 c 128,-1,90
 269 385 269 385 269 374.5 c 128,-1,91
 269 364 269 364 276.5 356.5 c 128,-1,92
 284 349 284 349 294.5 349 c 128,-1,93
 305 349 305 349 312.5 356.5 c 128,-1,94
 320 364 320 364 320 374.5 c 128,-1,95
 320 385 320 385 312.5 392.5 c 128,-1,96
 305 400 305 400 294 400 c 0,88,89
236 253 m 0,97,98
 231 249 231 249 231 243 c 128,-1,99
 231 237 231 237 234.5 233.5 c 128,-1,100
 238 230 238 230 243 230 c 2,101,-1
 269 230 l 2,102,103
 274 230 274 230 277.5 233.5 c 128,-1,104
 281 237 281 237 281 242.5 c 128,-1,105
 281 248 281 248 276 253 c 0,106,107
 273 256 273 256 269 256 c 2,108,-1
 243 256 l 2,109,110
 239 256 239 256 236 253 c 0,97,98
307 192 m 0,111,112
 307 198 307 198 302.5 201.5 c 128,-1,113
 298 205 298 205 294 205 c 2,114,-1
 218 205 l 2,115,116
 214 205 214 205 209.5 201 c 128,-1,117
 205 197 205 197 205 192 c 128,-1,118
 205 187 205 187 208.5 183 c 128,-1,119
 212 179 212 179 218 179 c 2,120,-1
 294 179 l 2,121,122
 300 179 300 179 303.5 183 c 128,-1,123
 307 187 307 187 307 192 c 0,111,112
218 128 m 2,124,-1
 294 128 l 2,125,126
 300 128 300 128 303.5 131.5 c 128,-1,127
 307 135 307 135 307 140.5 c 128,-1,128
 307 146 307 146 303.5 150 c 128,-1,129
 300 154 300 154 294 154 c 2,130,-1
 218 154 l 2,131,132
 212 154 212 154 208.5 150 c 128,-1,133
 205 146 205 146 205 140.5 c 128,-1,134
 205 135 205 135 208.5 131.5 c 128,-1,135
 212 128 212 128 218 128 c 2,124,-1
243 77 m 2,136,-1
 269 77 l 2,137,138
 274 77 274 77 278 80.5 c 128,-1,139
 282 84 282 84 282 89.5 c 128,-1,140
 282 95 282 95 278 98.5 c 128,-1,141
 274 102 274 102 269 102 c 2,142,-1
 243 102 l 2,143,144
 238 102 238 102 234 98.5 c 128,-1,145
 230 95 230 95 230 89.5 c 128,-1,146
 230 84 230 84 234 80.5 c 128,-1,147
 238 77 238 77 243 77 c 2,136,-1
EndSplineSet
EndChar

StartChar: buddicons-activity
Encoding: 183 62546 183
Width: 512
GlyphClass: 2
Flags: W
LayerCount: 2
Fore
SplineSet
205 486 m 1,0,-1
 205 307 l 1,1,-1
 256 307 l 1,2,-1
 256 358 l 2,3,4
 256 388 256 388 279.5 411.5 c 128,-1,5
 303 435 303 435 333 435 c 1,6,-1
 333 413 l 1,7,8
 356 435 356 435 384 435 c 1,9,-1
 384 358 l 1,10,-1
 410 358 l 2,11,12
 431 358 431 358 446 343 c 128,-1,13
 461 328 461 328 461 307 c 128,-1,14
 461 286 461 286 446 271 c 128,-1,15
 431 256 431 256 410 256 c 2,16,-1
 384 256 l 1,17,-1
 384 102 l 2,18,19
 384 92 384 92 376.5 84.5 c 128,-1,20
 369 77 369 77 358.5 77 c 128,-1,21
 348 77 348 77 340.5 84.5 c 128,-1,22
 333 92 333 92 333 102 c 2,23,-1
 333 158 l 1,24,25
 320 154 320 154 307 154 c 1,26,-1
 307 102 l 2,27,28
 307 92 307 92 299.5 84.5 c 128,-1,29
 292 77 292 77 281.5 77 c 128,-1,30
 271 77 271 77 263.5 84.5 c 128,-1,31
 256 92 256 92 256 102 c 2,32,-1
 256 154 l 1,33,-1
 205 154 l 1,34,-1
 205 102 l 2,35,36
 205 92 205 92 197.5 84.5 c 128,-1,37
 190 77 190 77 179.5 77 c 128,-1,38
 169 77 169 77 161.5 84.5 c 128,-1,39
 154 92 154 92 154 102 c 2,40,-1
 154 154 l 1,41,42
 141 154 141 154 128 158 c 1,43,-1
 128 102 l 2,44,45
 128 92 128 92 120.5 84.5 c 128,-1,46
 113 77 113 77 102.5 77 c 128,-1,47
 92 77 92 77 84.5 84.5 c 128,-1,48
 77 92 77 92 77 102 c 2,49,-1
 77 205 l 1,50,-1
 51 205 l 1,51,-1
 51 230 l 2,52,53
 51 262 51 262 73.5 284.5 c 128,-1,54
 96 307 96 307 128 307 c 2,55,-1
 179 307 l 1,56,-1
 179 486 l 1,57,-1
 205 486 l 1,0,-1
333 307 m 0,58,59
 343 307 343 307 350.5 314.5 c 128,-1,60
 358 322 358 322 358 332.5 c 128,-1,61
 358 343 358 343 350.5 350.5 c 128,-1,62
 343 358 343 358 332.5 358 c 128,-1,63
 322 358 322 358 314.5 350.5 c 128,-1,64
 307 343 307 343 307 332.5 c 128,-1,65
 307 322 307 322 314.5 314.5 c 128,-1,66
 322 307 322 307 333 307 c 0,58,59
EndSplineSet
EndChar

StartChar: buddicons-community
Encoding: 184 62547 184
Width: 512
GlyphClass: 2
Flags: W
LayerCount: 2
Fore
SplineSet
230 435 m 0,0,1
 230 459 230 459 205 486 c 1,2,3
 195 476 195 476 187 461.5 c 128,-1,4
 179 447 179 447 179 436.5 c 128,-1,5
 179 426 179 426 187 418 c 128,-1,6
 195 410 195 410 205 410 c 128,-1,7
 215 410 215 410 222.5 417.5 c 128,-1,8
 230 425 230 425 230 435 c 0,0,1
333 435 m 0,9,10
 333 459 333 459 307 486 c 1,11,12
 297 476 297 476 289.5 461.5 c 128,-1,13
 282 447 282 447 282 436.5 c 128,-1,14
 282 426 282 426 289.5 418 c 128,-1,15
 297 410 297 410 307.5 410 c 128,-1,16
 318 410 318 410 325.5 417.5 c 128,-1,17
 333 425 333 425 333 435 c 0,9,10
230 282 m 2,18,-1
 230 371 l 2,19,20
 230 382 230 382 222.5 389.5 c 128,-1,21
 215 397 215 397 204.5 397 c 128,-1,22
 194 397 194 397 186.5 389 c 128,-1,23
 179 381 179 381 179 371 c 2,24,-1
 179 282 l 2,25,26
 179 271 179 271 186.5 263.5 c 128,-1,27
 194 256 194 256 204.5 256 c 128,-1,28
 215 256 215 256 222.5 264 c 128,-1,29
 230 272 230 272 230 282 c 2,18,-1
333 282 m 2,30,-1
 333 371 l 2,31,32
 333 382 333 382 325.5 389.5 c 128,-1,33
 318 397 318 397 307.5 397 c 128,-1,34
 297 397 297 397 289.5 389 c 128,-1,35
 282 381 282 381 282 371 c 2,36,-1
 282 282 l 2,37,38
 282 271 282 271 289.5 263.5 c 128,-1,39
 297 256 297 256 307.5 256 c 128,-1,40
 318 256 318 256 325.5 264 c 128,-1,41
 333 272 333 272 333 282 c 2,30,-1
435 256 m 256,42,43
 435 284 435 284 410.5 307.5 c 128,-1,44
 386 331 386 331 346 345 c 1,45,-1
 346 282 l 2,46,47
 346 266 346 266 334.5 254.5 c 128,-1,48
 323 243 323 243 307 243 c 128,-1,49
 291 243 291 243 280 254.5 c 128,-1,50
 269 266 269 266 269 282 c 2,51,-1
 269 358 l 1,52,-1
 243 358 l 1,53,-1
 243 282 l 2,54,55
 243 266 243 266 232 254.5 c 128,-1,56
 221 243 221 243 205 243 c 128,-1,57
 189 243 189 243 177.5 254.5 c 128,-1,58
 166 266 166 266 166 282 c 2,59,-1
 166 345 l 1,60,61
 126 331 126 331 101.5 307.5 c 128,-1,62
 77 284 77 284 77 256 c 128,-1,63
 77 228 77 228 96 206 c 0,64,65
 117 183 117 183 159 170 c 0,66,67
 167 167 167 167 186 160 c 0,68,69
 208 151 208 151 220 147 c 0,70,71
 239 141 239 141 256 141 c 128,-1,72
 273 141 273 141 293 147 c 0,73,74
 304 151 304 151 327 160 c 0,75,76
 345 167 345 167 353 170 c 0,77,78
 395 183 395 183 415 205.5 c 128,-1,79
 435 228 435 228 435 256 c 256,42,43
256 117 m 256,80,81
 272 117 272 117 292 123 c 0,82,83
 304 126 304 126 325 134.5 c 128,-1,84
 346 143 346 143 355 145 c 0,85,86
 388 155 388 155 407 171 c 0,87,88
 420 182 420 182 435 205 c 1,89,-1
 435 128 l 2,90,91
 435 100 435 100 411 76.5 c 128,-1,92
 387 53 387 53 346 39.5 c 128,-1,93
 305 26 305 26 256 26 c 128,-1,94
 207 26 207 26 166 39.5 c 128,-1,95
 125 53 125 53 101 76.5 c 128,-1,96
 77 100 77 100 77 128 c 2,97,-1
 77 205 l 1,98,99
 91 182 91 182 106 171 c 0,100,101
 125 154 125 154 157 145 c 0,102,103
 166 143 166 143 186 135 c 0,104,105
 208 126 208 126 220 123 c 0,106,107
 240 117 240 117 256 117 c 256,80,81
EndSplineSet
EndChar

